<svg width="40" height="40" viewBox="0 0 40 40" fill="none" xmlns="http://www.w3.org/2000/svg">
<path d="M20 37.5C15.3587 37.5 10.9075 35.6563 7.62563 32.3744C4.34374 29.0925 2.5 24.6413 2.5 20C2.5 15.3587 4.34374 10.9075 7.62563 7.62563C10.9075 4.34374 15.3587 2.5 20 2.5C24.6413 2.5 29.0925 4.34374 32.3744 7.62563C35.6563 10.9075 37.5 15.3587 37.5 20C37.5 24.6413 35.6563 29.0925 32.3744 32.3744C29.0925 35.6563 24.6413 37.5 20 37.5ZM20 40C25.3043 40 30.3914 37.8929 34.1421 34.1421C37.8929 30.3914 40 25.3043 40 20C40 14.6957 37.8929 9.60859 34.1421 5.85786C30.3914 2.10714 25.3043 0 20 0C14.6957 0 9.60859 2.10714 5.85786 5.85786C2.10714 9.60859 0 14.6957 0 20C0 25.3043 2.10714 30.3914 5.85786 34.1421C9.60859 37.8929 14.6957 40 20 40Z" fill="#348AD4"/>
<path d="M17.505 27.5C17.505 27.1717 17.5697 26.8467 17.6953 26.5433C17.8209 26.24 18.0051 25.9644 18.2372 25.7323C18.4694 25.5001 18.745 25.316 19.0483 25.1903C19.3516 25.0647 19.6767 25 20.005 25C20.3333 25 20.6584 25.0647 20.9617 25.1903C21.265 25.316 21.5406 25.5001 21.7728 25.7323C22.0049 25.9644 22.1891 26.24 22.3147 26.5433C22.4403 26.8467 22.505 27.1717 22.505 27.5C22.505 28.1631 22.2416 28.799 21.7728 29.2678C21.3039 29.7367 20.668 30 20.005 30C19.342 30 18.7061 29.7367 18.2372 29.2678C17.7684 28.799 17.505 28.1631 17.505 27.5ZM17.75 12.4875C17.7167 12.1722 17.7501 11.8533 17.848 11.5516C17.9459 11.25 18.1061 10.9723 18.3183 10.7365C18.5305 10.5008 18.7898 10.3123 19.0795 10.1833C19.3692 10.0542 19.6829 9.98755 20 9.98755C20.3172 9.98755 20.6308 10.0542 20.9205 10.1833C21.2102 10.3123 21.4695 10.5008 21.6817 10.7365C21.8939 10.9723 22.0541 11.25 22.152 11.5516C22.2499 11.8533 22.2833 12.1722 22.25 12.4875L21.375 21.255C21.3456 21.5995 21.188 21.9203 20.9334 22.1541C20.6788 22.3879 20.3457 22.5177 20 22.5177C19.6543 22.5177 19.3212 22.3879 19.0666 22.1541C18.812 21.9203 18.6544 21.5995 18.625 21.255L17.75 12.4875Z" fill="#348AD4"/>
</svg>
