<svg width="20" height="20" viewBox="0 0 20 20" fill="none" xmlns="http://www.w3.org/2000/svg">
<path d="M2.68256 3.56756C2.62445 3.50945 2.57835 3.44046 2.5469 3.36454C2.51545 3.28861 2.49927 3.20724 2.49927 3.12506C2.49927 3.04288 2.51545 2.9615 2.5469 2.88558C2.57835 2.80965 2.62445 2.74067 2.68256 2.68256C2.74067 2.62445 2.80965 2.57835 2.88558 2.5469C2.9615 2.51545 3.04288 2.49927 3.12506 2.49927C3.20724 2.49927 3.28861 2.51545 3.36454 2.5469C3.44046 2.57835 3.50945 2.62445 3.56756 2.68256L10.0001 9.11631L16.4326 2.68256C16.4907 2.62445 16.5597 2.57835 16.6356 2.5469C16.7115 2.51545 16.7929 2.49927 16.8751 2.49927C16.9572 2.49927 17.0386 2.51545 17.1145 2.5469C17.1905 2.57835 17.2594 2.62445 17.3176 2.68256C17.3757 2.74067 17.4218 2.80965 17.4532 2.88558C17.4847 2.9615 17.5008 3.04288 17.5008 3.12506C17.5008 3.20724 17.4847 3.28861 17.4532 3.36454C17.4218 3.44046 17.3757 3.50945 17.3176 3.56756L10.8838 10.0001L17.3176 16.4326C17.3757 16.4907 17.4218 16.5597 17.4532 16.6356C17.4847 16.7115 17.5008 16.7929 17.5008 16.8751C17.5008 16.9572 17.4847 17.0386 17.4532 17.1145C17.4218 17.1905 17.3757 17.2594 17.3176 17.3176C17.2594 17.3757 17.1905 17.4218 17.1145 17.4532C17.0386 17.4847 16.9572 17.5008 16.8751 17.5008C16.7929 17.5008 16.7115 17.4847 16.6356 17.4532C16.5597 17.4218 16.4907 17.3757 16.4326 17.3176L10.0001 10.8838L3.56756 17.3176C3.50945 17.3757 3.44046 17.4218 3.36454 17.4532C3.28861 17.4847 3.20724 17.5008 3.12506 17.5008C3.04288 17.5008 2.9615 17.4847 2.88558 17.4532C2.80965 17.4218 2.74067 17.3757 2.68256 17.3176C2.62445 17.2594 2.57835 17.1905 2.5469 17.1145C2.51545 17.0386 2.49927 16.9572 2.49927 16.8751C2.49927 16.7929 2.51545 16.7115 2.5469 16.6356C2.57835 16.5597 2.62445 16.4907 2.68256 16.4326L9.11631 10.0001L2.68256 3.56756Z" fill="#33536F"/>
</svg>
