<svg width="25" height="25" viewBox="0 0 25 25" fill="none" xmlns="http://www.w3.org/2000/svg">
<circle cx="12.5" cy="12.5" r="12.5" fill="#8BC34A"/>
<circle cx="12.5" cy="12.5" r="10.5" fill="#F8FCFF"/>
<g clip-path="url(#clip0_114_986)">
<mask id="path-3-outside-1_114_986" maskUnits="userSpaceOnUse" x="4.5885" y="3.99585" width="15" height="17" fill="black">
<rect fill="white" x="4.5885" y="3.99585" width="15" height="17"/>
<path d="M14.2051 5.06153C14.1289 5.09962 14.044 5.17579 14 5.24317L13.9209 5.36329L13.9121 6.69044L13.9033 8.01759H10.6895C8.51563 8.01759 7.44044 8.02931 7.36426 8.04981C7.21485 8.09083 7.03028 8.26075 6.99219 8.39552C6.96876 8.46583 6.9629 9.01954 6.96876 10.0566L6.97755 11.6094L7.05665 11.7295C7.18848 11.9287 7.28223 11.958 7.86817 11.9668L8.37794 11.9756L7.02735 13.3291C6.10157 14.2549 5.66212 14.7178 5.62989 14.791C5.57423 14.9316 5.57423 15.0811 5.63282 15.2188C5.68262 15.3389 6.97755 16.6631 7.11524 16.7363C7.27051 16.8184 7.43165 16.7129 7.43165 16.5313C7.43165 16.458 7.32618 16.3408 6.72559 15.7344C6.18067 15.1865 6.02247 15.0137 6.03712 14.9727C6.04591 14.9404 7.05958 13.9092 8.29005 12.6816C10.168 10.8037 10.54 10.4463 10.5986 10.4551L10.669 10.4639L10.6836 11.9082L10.6982 13.3555L10.7686 13.4111C10.8301 13.4639 10.8916 13.4668 11.5625 13.4668H12.292L12.3506 13.3906C12.4326 13.2881 12.4268 13.1885 12.3389 13.1006C12.2686 13.0274 12.2656 13.0274 11.6943 13.0274H11.1231V12.5V11.9727H12.5147H13.9063V12.5V13.0274H13.5283C13.1914 13.0274 13.1445 13.0332 13.0742 13.0889C12.9775 13.165 12.9688 13.3203 13.0566 13.4082C13.1094 13.4609 13.1533 13.4668 13.5107 13.4668H13.9063V14.0147C13.9063 14.4922 13.915 14.583 13.9619 14.6885C14.0674 14.917 14.3721 15.043 14.627 14.9609C14.7149 14.9316 14.9111 14.7559 15.4736 14.1963L16.209 13.4668H16.8828C17.3691 13.4668 17.5654 13.4756 17.5918 13.502C17.6416 13.5518 17.6416 16.458 17.5918 16.5078C17.5654 16.5342 16.7686 16.543 14.1846 16.543H10.8096L10.7539 16.6045C10.7012 16.6631 10.6982 16.7422 10.6836 18.0869C10.669 19.3994 10.666 19.5137 10.6191 19.543C10.5752 19.5693 10.3936 19.3994 9.31544 18.3242C8.45704 17.4688 8.03516 17.0674 7.9795 17.0527C7.85352 17.0234 7.74219 17.1172 7.73048 17.2608C7.72169 17.3721 7.72462 17.375 8.97559 18.6289C9.83985 19.4932 10.2676 19.9033 10.3555 19.9443C10.6133 20.0703 10.9356 19.9561 11.0615 19.7012C11.1201 19.5752 11.1231 19.5371 11.1231 18.2774V16.9824H14.3399C16.4902 16.9824 17.5889 16.9707 17.665 16.9502C17.8027 16.9121 17.9756 16.7656 18.0254 16.6397C18.0576 16.5635 18.0664 16.2324 18.0664 14.999C18.0664 13.4873 18.0664 13.4522 18.0049 13.3262C17.9668 13.25 17.8936 13.168 17.8232 13.1211C17.7061 13.0449 17.6914 13.042 17.1787 13.0332L16.6543 13.0215L17.0527 12.6201C17.3867 12.2832 17.4512 12.2041 17.4512 12.1279C17.4512 12.0166 17.3457 11.9141 17.2315 11.9141C17.1553 11.9141 16.9619 12.0957 15.8223 13.2354C14.7207 14.334 14.4893 14.5537 14.4307 14.5449L14.3604 14.5361L14.3457 13.0918L14.3311 11.6445L14.2607 11.5889C14.1963 11.5361 14.126 11.5332 12.6582 11.5332H11.1231V10.9824C11.1231 10.3994 11.0967 10.2734 10.959 10.1504C10.874 10.0742 10.6982 10.0098 10.5811 10.0098C10.3701 10.0098 10.2764 10.083 9.54102 10.8184L8.82032 11.5332H8.14649C7.66016 11.5332 7.46387 11.5244 7.43751 11.4981C7.3877 11.4483 7.3877 8.542 7.43751 8.4922C7.46387 8.46583 8.26075 8.45704 10.8447 8.45704H14.2197L14.2754 8.39552C14.3281 8.33692 14.3311 8.25782 14.3457 6.9131C14.3604 5.59767 14.3633 5.48634 14.4131 5.45704C14.457 5.43067 14.7705 5.73243 16.7334 7.69532C17.9815 8.94337 19.0039 9.98341 19.0039 10.0068C19.0039 10.0303 18.7197 10.335 18.374 10.6836C17.8145 11.2432 17.7441 11.3252 17.7441 11.4102C17.7441 11.5332 17.832 11.6211 17.9551 11.6211C18.0371 11.6211 18.1221 11.5479 18.6875 10.9824C19.0801 10.5928 19.3496 10.2998 19.3848 10.2266C19.458 10.0772 19.458 9.91309 19.3848 9.76368C19.3027 9.59376 14.8115 5.10841 14.6621 5.04395C14.5098 4.98243 14.3545 4.98829 14.2051 5.06153Z"/>
</mask>
<path d="M14.2051 5.06153C14.1289 5.09962 14.044 5.17579 14 5.24317L13.9209 5.36329L13.9121 6.69044L13.9033 8.01759H10.6895C8.51563 8.01759 7.44044 8.02931 7.36426 8.04981C7.21485 8.09083 7.03028 8.26075 6.99219 8.39552C6.96876 8.46583 6.9629 9.01954 6.96876 10.0566L6.97755 11.6094L7.05665 11.7295C7.18848 11.9287 7.28223 11.958 7.86817 11.9668L8.37794 11.9756L7.02735 13.3291C6.10157 14.2549 5.66212 14.7178 5.62989 14.791C5.57423 14.9316 5.57423 15.0811 5.63282 15.2188C5.68262 15.3389 6.97755 16.6631 7.11524 16.7363C7.27051 16.8184 7.43165 16.7129 7.43165 16.5313C7.43165 16.458 7.32618 16.3408 6.72559 15.7344C6.18067 15.1865 6.02247 15.0137 6.03712 14.9727C6.04591 14.9404 7.05958 13.9092 8.29005 12.6816C10.168 10.8037 10.54 10.4463 10.5986 10.4551L10.669 10.4639L10.6836 11.9082L10.6982 13.3555L10.7686 13.4111C10.8301 13.4639 10.8916 13.4668 11.5625 13.4668H12.292L12.3506 13.3906C12.4326 13.2881 12.4268 13.1885 12.3389 13.1006C12.2686 13.0274 12.2656 13.0274 11.6943 13.0274H11.1231V12.5V11.9727H12.5147H13.9063V12.5V13.0274H13.5283C13.1914 13.0274 13.1445 13.0332 13.0742 13.0889C12.9775 13.165 12.9688 13.3203 13.0566 13.4082C13.1094 13.4609 13.1533 13.4668 13.5107 13.4668H13.9063V14.0147C13.9063 14.4922 13.915 14.583 13.9619 14.6885C14.0674 14.917 14.3721 15.043 14.627 14.9609C14.7149 14.9316 14.9111 14.7559 15.4736 14.1963L16.209 13.4668H16.8828C17.3691 13.4668 17.5654 13.4756 17.5918 13.502C17.6416 13.5518 17.6416 16.458 17.5918 16.5078C17.5654 16.5342 16.7686 16.543 14.1846 16.543H10.8096L10.7539 16.6045C10.7012 16.6631 10.6982 16.7422 10.6836 18.0869C10.669 19.3994 10.666 19.5137 10.6191 19.543C10.5752 19.5693 10.3936 19.3994 9.31544 18.3242C8.45704 17.4688 8.03516 17.0674 7.9795 17.0527C7.85352 17.0234 7.74219 17.1172 7.73048 17.2608C7.72169 17.3721 7.72462 17.375 8.97559 18.6289C9.83985 19.4932 10.2676 19.9033 10.3555 19.9443C10.6133 20.0703 10.9356 19.9561 11.0615 19.7012C11.1201 19.5752 11.1231 19.5371 11.1231 18.2774V16.9824H14.3399C16.4902 16.9824 17.5889 16.9707 17.665 16.9502C17.8027 16.9121 17.9756 16.7656 18.0254 16.6397C18.0576 16.5635 18.0664 16.2324 18.0664 14.999C18.0664 13.4873 18.0664 13.4522 18.0049 13.3262C17.9668 13.25 17.8936 13.168 17.8232 13.1211C17.7061 13.0449 17.6914 13.042 17.1787 13.0332L16.6543 13.0215L17.0527 12.6201C17.3867 12.2832 17.4512 12.2041 17.4512 12.1279C17.4512 12.0166 17.3457 11.9141 17.2315 11.9141C17.1553 11.9141 16.9619 12.0957 15.8223 13.2354C14.7207 14.334 14.4893 14.5537 14.4307 14.5449L14.3604 14.5361L14.3457 13.0918L14.3311 11.6445L14.2607 11.5889C14.1963 11.5361 14.126 11.5332 12.6582 11.5332H11.1231V10.9824C11.1231 10.3994 11.0967 10.2734 10.959 10.1504C10.874 10.0742 10.6982 10.0098 10.5811 10.0098C10.3701 10.0098 10.2764 10.083 9.54102 10.8184L8.82032 11.5332H8.14649C7.66016 11.5332 7.46387 11.5244 7.43751 11.4981C7.3877 11.4483 7.3877 8.542 7.43751 8.4922C7.46387 8.46583 8.26075 8.45704 10.8447 8.45704H14.2197L14.2754 8.39552C14.3281 8.33692 14.3311 8.25782 14.3457 6.9131C14.3604 5.59767 14.3633 5.48634 14.4131 5.45704C14.457 5.43067 14.7705 5.73243 16.7334 7.69532C17.9815 8.94337 19.0039 9.98341 19.0039 10.0068C19.0039 10.0303 18.7197 10.335 18.374 10.6836C17.8145 11.2432 17.7441 11.3252 17.7441 11.4102C17.7441 11.5332 17.832 11.6211 17.9551 11.6211C18.0371 11.6211 18.1221 11.5479 18.6875 10.9824C19.0801 10.5928 19.3496 10.2998 19.3848 10.2266C19.458 10.0772 19.458 9.91309 19.3848 9.76368C19.3027 9.59376 14.8115 5.10841 14.6621 5.04395C14.5098 4.98243 14.3545 4.98829 14.2051 5.06153Z" fill="#8BC34A"/>
<path d="M14.2051 5.06153C14.1289 5.09962 14.044 5.17579 14 5.24317L13.9209 5.36329L13.9121 6.69044L13.9033 8.01759H10.6895C8.51563 8.01759 7.44044 8.02931 7.36426 8.04981C7.21485 8.09083 7.03028 8.26075 6.99219 8.39552C6.96876 8.46583 6.9629 9.01954 6.96876 10.0566L6.97755 11.6094L7.05665 11.7295C7.18848 11.9287 7.28223 11.958 7.86817 11.9668L8.37794 11.9756L7.02735 13.3291C6.10157 14.2549 5.66212 14.7178 5.62989 14.791C5.57423 14.9316 5.57423 15.0811 5.63282 15.2188C5.68262 15.3389 6.97755 16.6631 7.11524 16.7363C7.27051 16.8184 7.43165 16.7129 7.43165 16.5313C7.43165 16.458 7.32618 16.3408 6.72559 15.7344C6.18067 15.1865 6.02247 15.0137 6.03712 14.9727C6.04591 14.9404 7.05958 13.9092 8.29005 12.6816C10.168 10.8037 10.54 10.4463 10.5986 10.4551L10.669 10.4639L10.6836 11.9082L10.6982 13.3555L10.7686 13.4111C10.8301 13.4639 10.8916 13.4668 11.5625 13.4668H12.292L12.3506 13.3906C12.4326 13.2881 12.4268 13.1885 12.3389 13.1006C12.2686 13.0274 12.2656 13.0274 11.6943 13.0274H11.1231V12.5V11.9727H12.5147H13.9063V12.5V13.0274H13.5283C13.1914 13.0274 13.1445 13.0332 13.0742 13.0889C12.9775 13.165 12.9688 13.3203 13.0566 13.4082C13.1094 13.4609 13.1533 13.4668 13.5107 13.4668H13.9063V14.0147C13.9063 14.4922 13.915 14.583 13.9619 14.6885C14.0674 14.917 14.3721 15.043 14.627 14.9609C14.7149 14.9316 14.9111 14.7559 15.4736 14.1963L16.209 13.4668H16.8828C17.3691 13.4668 17.5654 13.4756 17.5918 13.502C17.6416 13.5518 17.6416 16.458 17.5918 16.5078C17.5654 16.5342 16.7686 16.543 14.1846 16.543H10.8096L10.7539 16.6045C10.7012 16.6631 10.6982 16.7422 10.6836 18.0869C10.669 19.3994 10.666 19.5137 10.6191 19.543C10.5752 19.5693 10.3936 19.3994 9.31544 18.3242C8.45704 17.4688 8.03516 17.0674 7.9795 17.0527C7.85352 17.0234 7.74219 17.1172 7.73048 17.2608C7.72169 17.3721 7.72462 17.375 8.97559 18.6289C9.83985 19.4932 10.2676 19.9033 10.3555 19.9443C10.6133 20.0703 10.9356 19.9561 11.0615 19.7012C11.1201 19.5752 11.1231 19.5371 11.1231 18.2774V16.9824H14.3399C16.4902 16.9824 17.5889 16.9707 17.665 16.9502C17.8027 16.9121 17.9756 16.7656 18.0254 16.6397C18.0576 16.5635 18.0664 16.2324 18.0664 14.999C18.0664 13.4873 18.0664 13.4522 18.0049 13.3262C17.9668 13.25 17.8936 13.168 17.8232 13.1211C17.7061 13.0449 17.6914 13.042 17.1787 13.0332L16.6543 13.0215L17.0527 12.6201C17.3867 12.2832 17.4512 12.2041 17.4512 12.1279C17.4512 12.0166 17.3457 11.9141 17.2315 11.9141C17.1553 11.9141 16.9619 12.0957 15.8223 13.2354C14.7207 14.334 14.4893 14.5537 14.4307 14.5449L14.3604 14.5361L14.3457 13.0918L14.3311 11.6445L14.2607 11.5889C14.1963 11.5361 14.126 11.5332 12.6582 11.5332H11.1231V10.9824C11.1231 10.3994 11.0967 10.2734 10.959 10.1504C10.874 10.0742 10.6982 10.0098 10.5811 10.0098C10.3701 10.0098 10.2764 10.083 9.54102 10.8184L8.82032 11.5332H8.14649C7.66016 11.5332 7.46387 11.5244 7.43751 11.4981C7.3877 11.4483 7.3877 8.542 7.43751 8.4922C7.46387 8.46583 8.26075 8.45704 10.8447 8.45704H14.2197L14.2754 8.39552C14.3281 8.33692 14.3311 8.25782 14.3457 6.9131C14.3604 5.59767 14.3633 5.48634 14.4131 5.45704C14.457 5.43067 14.7705 5.73243 16.7334 7.69532C17.9815 8.94337 19.0039 9.98341 19.0039 10.0068C19.0039 10.0303 18.7197 10.335 18.374 10.6836C17.8145 11.2432 17.7441 11.3252 17.7441 11.4102C17.7441 11.5332 17.832 11.6211 17.9551 11.6211C18.0371 11.6211 18.1221 11.5479 18.6875 10.9824C19.0801 10.5928 19.3496 10.2998 19.3848 10.2266C19.458 10.0772 19.458 9.91309 19.3848 9.76368C19.3027 9.59376 14.8115 5.10841 14.6621 5.04395C14.5098 4.98243 14.3545 4.98829 14.2051 5.06153Z" stroke="#8BC34A" stroke-width="0.2" mask="url(#path-3-outside-1_114_986)"/>
</g>
<defs>
<clipPath id="clip0_114_986">
<rect width="15" height="15" fill="white" transform="translate(5 5)"/>
</clipPath>
</defs>
</svg>
