<svg width="17" height="17" viewBox="0 0 17 17" fill="none" xmlns="http://www.w3.org/2000/svg">
<g clip-path="url(#clip0_287_1107)">
<path d="M14.2213 15.9374C14.354 15.9371 14.4821 15.9866 14.5802 16.076C14.6783 16.1655 14.7394 16.2884 14.7514 16.4207C14.7634 16.5529 14.7254 16.6848 14.645 16.7905C14.5646 16.8961 14.4475 16.9678 14.3169 16.9915L14.2213 17H2.5323C2.39952 17.0002 2.27147 16.9508 2.17336 16.8613C2.07524 16.7719 2.01417 16.6489 2.00217 16.5167C1.99018 16.3845 2.02812 16.2525 2.10854 16.1469C2.18895 16.0412 2.30601 15.9695 2.43666 15.9459L2.5323 15.9374H14.2213ZM8.37678 2.95521e-08C8.50113 -4.14279e-05 8.62156 0.0435376 8.71709 0.123148C8.81262 0.202758 8.87721 0.313355 8.89959 0.435679L8.90809 0.531316L8.90384 13.064L12.7771 9.18752C12.8649 9.09935 12.9809 9.04477 13.1048 9.03331C13.2286 9.02186 13.3526 9.05424 13.4551 9.12483L13.5295 9.18646C13.6175 9.27437 13.6719 9.39038 13.6831 9.51427C13.6944 9.63816 13.6618 9.76208 13.5911 9.86442L13.5295 9.9388L8.75614 14.7207C8.68212 14.7946 8.58781 14.8449 8.48516 14.8652L8.37252 14.8758C8.29137 14.8757 8.21132 14.8569 8.13855 14.821C8.06578 14.7851 8.00223 14.7329 7.95278 14.6686L3.21663 9.9388C3.12213 9.84527 3.06614 9.7197 3.05971 9.5869C3.05327 9.45409 3.09687 9.3237 3.18188 9.22147C3.2669 9.11924 3.38715 9.0526 3.5189 9.0347C3.65066 9.01681 3.78433 9.04897 3.89353 9.12483L3.96791 9.18646L7.84121 13.0555L7.84546 0.531316C7.84546 0.390403 7.90144 0.25526 8.00108 0.155619C8.10072 0.0559777 8.23586 2.95521e-08 8.37678 2.95521e-08Z" fill="#33536F"/>
</g>
<defs>
<clipPath id="clip0_287_1107">
<rect width="17" height="17" fill="white"/>
</clipPath>
</defs>
</svg>
