<svg width="13" height="11" viewBox="0 0 13 11" fill="none" xmlns="http://www.w3.org/2000/svg">
<path d="M12.75 3.38V8.46875C12.75 8.98758 12.5515 9.48677 12.1952 9.86389C11.8389 10.241 11.3518 10.4675 10.8338 10.4969L10.7188 10.5H2.28125C1.76241 10.5 1.26323 10.3015 0.886106 9.9452C0.508979 9.58888 0.282499 9.10175 0.253125 8.58375L0.25 8.46875V3.38L6.2825 6.54C6.34961 6.57515 6.42424 6.59351 6.5 6.59351C6.57576 6.59351 6.65039 6.57515 6.7175 6.54L12.75 3.38ZM2.28125 0.5H10.7188C11.2222 0.499939 11.7078 0.686872 12.0813 1.02454C12.4547 1.36221 12.6895 1.82655 12.74 2.3275L6.5 5.59625L0.26 2.3275C0.308452 1.84644 0.526906 1.39845 0.876094 1.06404C1.22528 0.72963 1.6823 0.530742 2.165 0.503125L2.28125 0.5H10.7188H2.28125Z" fill="white"/>
</svg>
