<svg width="25" height="25" viewBox="0 0 25 25" fill="none" xmlns="http://www.w3.org/2000/svg">
<circle cx="12.5" cy="12.5" r="12.5" fill="#3D5AFE"/>
<circle cx="12.5" cy="12.5" r="10.5" fill="#F8FCFF"/>
<g clip-path="url(#clip0_216_1590)">
<path d="M12.1811 6.31239L12.2151 6.34155L12.297 6.4117C12.3259 6.43669 12.3599 6.45859 12.3914 6.47456C12.4073 6.48264 12.4241 6.48997 12.4406 6.49549C12.4556 6.50049 12.477 6.50625 12.4999 6.50625C12.5229 6.50625 12.5443 6.50049 12.5593 6.49549C12.5758 6.48997 12.5926 6.48264 12.6085 6.47456C12.64 6.45859 12.674 6.43669 12.7029 6.4117L12.7848 6.34155L12.8188 6.31239L12.8197 6.2676L12.8284 5.82269C12.8284 5.82262 12.8284 5.82255 12.8284 5.82248L12.8284 5.82229L12.7285 5.82031C12.7343 5.57422 12.7314 5.31641 12.7197 5.24609L12.1811 6.31239ZM12.1811 6.31239L12.1802 6.2676L12.1715 5.82268C12.1642 5.5583 12.1653 5.38075 12.1802 5.25817C12.1952 5.13487 12.2261 5.04942 12.2929 4.98655C12.3209 4.95901 12.3569 4.93854 12.3891 4.92502C12.4214 4.91145 12.4614 4.9 12.4999 4.9C12.6808 4.9 12.794 5.05565 12.8186 5.23116L12.1811 6.31239Z" fill="#3D5AFE" stroke="#3D5AFE" stroke-width="0.2"/>
<path d="M7.90402 6.80926L7.90392 6.80915L7.90823 6.8057C7.93644 6.78314 7.96992 6.76241 8.00172 6.74696C8.02926 6.73359 8.07096 6.71641 8.11133 6.71641C8.1402 6.71641 8.16434 6.72726 8.17635 6.73313C8.19135 6.74046 8.20661 6.74994 8.22137 6.76006C8.2511 6.78043 8.28697 6.80906 8.32785 6.84429C8.41002 6.9151 8.51964 7.01885 8.65357 7.15278C8.82815 7.3259 8.93464 7.43441 8.99707 7.5101C9.0604 7.5869 9.09316 7.64693 9.09316 7.72168C9.09316 7.8068 9.06501 7.88573 9.00711 7.94364C8.94921 8.00154 8.87027 8.02969 8.78516 8.02969C8.75365 8.02969 8.71977 8.02634 8.68135 8.01138C8.64503 7.99724 8.61012 7.97483 8.57211 7.94495C8.4979 7.88661 8.39212 7.78354 8.2167 7.60812C8.04373 7.43806 7.94041 7.3328 7.88082 7.25899C7.85059 7.22155 7.82761 7.18745 7.81265 7.15301C7.79657 7.116 7.7916 7.0829 7.7916 7.05078C7.7916 7.00391 7.79955 6.95924 7.82011 6.91636C7.84035 6.87414 7.86989 6.83981 7.90402 6.80926Z" fill="#3D5AFE" stroke="#3D5AFE" stroke-width="0.2"/>
<path d="M17.1025 6.9834L17.1961 6.94801C17.2112 6.988 17.2195 7.03313 17.2087 7.08539C17.1986 7.13412 17.1735 7.18016 17.1398 7.22709C17.0736 7.31907 16.9509 7.44488 16.7508 7.64059C16.5902 7.79975 16.4923 7.89496 16.4223 7.94932C16.3863 7.97733 16.3526 7.99866 16.317 8.01219C16.2795 8.02639 16.2461 8.02969 16.2148 8.02969C16.1297 8.02969 16.0508 8.00154 15.9929 7.94364C15.935 7.88573 15.9068 7.8068 15.9068 7.72168C15.9068 7.64693 15.9396 7.5869 16.0029 7.5101C16.0654 7.43441 16.1719 7.3259 16.3464 7.15278C16.4703 7.02891 16.5796 6.92546 16.6632 6.85243C16.7048 6.81609 16.7414 6.78603 16.771 6.76452C16.7857 6.75389 16.8005 6.74392 16.8146 6.73617C16.8217 6.7323 16.8302 6.72803 16.8397 6.72452C16.8479 6.72146 16.8635 6.71641 16.8828 6.71641C16.9519 6.71641 17.0195 6.74888 17.0703 6.78694C17.1221 6.82586 17.1719 6.88215 17.1964 6.94897L17.1025 6.9834ZM17.1025 6.9834C17.1436 7.0918 17.085 7.17383 16.6807 7.56934L16.417 7.22363C16.6631 6.97754 16.8477 6.81641 16.8828 6.81641C16.9619 6.81641 17.0703 6.89551 17.1025 6.9834Z" fill="#3D5AFE" stroke="#3D5AFE" stroke-width="0.2"/>
<path d="M16.2617 12.5088C16.0215 13.2646 15.6846 13.7334 14.7764 14.5654C14.542 14.7793 14.5215 14.8086 14.5215 14.9082C14.5215 15.04 14.6123 15.1367 14.7353 15.1367C14.7969 15.1367 14.8525 15.1016 14.9433 15.0078C15.0078 14.9375 15.1777 14.7793 15.3183 14.6592C15.8252 14.2139 16.1416 13.8184 16.4053 13.2998C17.2754 11.5889 16.9531 9.54687 15.6025 8.19629C14.9873 7.58105 14.2051 7.16211 13.3525 6.98926M16.2617 12.5088L16.1663 12.4787C16.1664 12.4787 16.1664 12.4786 16.1664 12.4785M16.2617 12.5088L16.1664 12.4785M16.2617 12.5088C16.3965 12.0811 16.4375 11.7881 16.4375 11.2842C16.4404 10.6279 16.3174 10.0918 16.039 9.54102C15.4824 8.43652 14.4512 7.6543 13.2383 7.41113L11.7912 7.50897M16.1664 12.4785C15.9336 13.211 15.6105 13.6656 14.7089 14.4916M16.1664 12.4785C16.2976 12.0619 16.3375 11.7793 16.3375 11.2842L16.3375 11.2837C16.3404 10.6424 16.2206 10.122 15.9498 9.58612L15.9497 9.58602C15.407 8.50914 14.4016 7.74637 13.2187 7.5092C13.0495 7.47596 12.7746 7.4584 12.4967 7.4584C12.2184 7.4584 11.9493 7.47601 11.7912 7.50897M14.7089 14.4916C14.7089 14.4916 14.7089 14.4916 14.7089 14.4916L14.7763 14.5654L14.7088 14.4917C14.7088 14.4917 14.7088 14.4917 14.7089 14.4916ZM14.7089 14.4916C14.5945 14.596 14.5222 14.6641 14.4806 14.7202C14.458 14.7508 14.4416 14.7814 14.432 14.8159C14.4227 14.8493 14.4215 14.8806 14.4215 14.9082C14.4215 15.089 14.551 15.2367 14.7353 15.2367C14.8423 15.2367 14.924 15.1715 15.0152 15.0774L15.0171 15.0754L15.0171 15.0754C15.0773 15.0096 15.2436 14.8546 15.3833 14.7352L15.3844 14.7343L15.3843 14.7343C15.8992 14.282 16.2241 13.8767 16.4944 13.3451C17.384 11.5958 17.0546 9.50693 15.6732 8.12558C15.0441 7.4964 14.2441 7.06799 13.3724 6.89125M13.3724 6.89125C13.3724 6.89126 13.3724 6.89126 13.3725 6.89127L13.3525 6.98926M13.3724 6.89125L13.3525 6.98926M13.3724 6.89125C13.1987 6.85592 12.9205 6.83152 12.6503 6.82121C12.3806 6.81093 12.1073 6.81421 11.944 6.8375M13.3525 6.98926C13.0215 6.92187 12.2656 6.89258 11.958 6.93652M11.958 6.93652L11.9444 6.83745C11.9443 6.83747 11.9441 6.83749 11.944 6.8375M11.958 6.93652C10.956 7.07422 10.1328 7.48437 9.40624 8.20801C8.7617 8.85254 8.38085 9.5498 8.19042 10.4492M11.958 6.93652L11.9439 6.83753C11.9439 6.83752 11.944 6.83751 11.944 6.8375M11.944 6.8375C10.9204 6.97825 10.0773 7.39848 9.33567 8.13715L9.33553 8.1373C8.67738 8.79545 8.28704 9.51005 8.09258 10.4285M8.09258 10.4285C8.09259 10.4285 8.0926 10.4284 8.09261 10.4284L8.19042 10.4492M8.09258 10.4285L8.19042 10.4492M8.09258 10.4285C8.02711 10.7362 8.00903 11.1836 8.0268 11.5718C8.03571 11.7667 8.0538 11.95 8.0805 12.0966C8.09382 12.1697 8.10969 12.2359 8.12854 12.2906C8.14629 12.3422 8.1707 12.3961 8.2076 12.433L8.27831 12.3623M8.19042 10.4492C8.06444 11.041 8.11717 12.2012 8.27831 12.3623M8.27831 12.3623L8.20622 12.4316C8.26544 12.4932 8.34769 12.5193 8.42376 12.5198C8.50005 12.5203 8.58157 12.4953 8.64374 12.4398L8.64457 12.4391L8.64456 12.4391C8.66846 12.4173 8.69311 12.3893 8.70885 12.3463C8.72324 12.307 8.72734 12.2627 8.72694 12.2125C8.72614 12.1135 8.70665 11.9538 8.67042 11.6813C8.63093 11.3793 8.65086 10.8868 8.71607 10.572C8.88211 9.77632 9.21853 9.14951 9.78438 8.58651L9.78456 8.58634C10.3592 8.01168 10.9715 7.68382 11.7912 7.50897M8.27831 12.3623L11.7912 7.50897M8.57713 12.3652C8.64452 12.3037 8.64452 12.2451 8.57128 11.6943C8.53026 11.3809 8.55077 10.877 8.61815 10.5518C8.78807 9.7373 9.13377 9.09277 9.71385 8.51562C10.3027 7.92676 10.9326 7.58984 11.7705 7.41113L8.57713 12.3652Z" fill="#3D5AFE" stroke="#3D5AFE" stroke-width="0.2"/>
<path d="M7.39648 11.583L7.47033 11.6504C7.45426 11.668 7.4314 11.6928 7.39522 11.7111C7.36048 11.7288 7.32139 11.7367 7.27651 11.7414C7.19072 11.7504 7.0448 11.7504 6.7803 11.7504L6.7666 11.7504L6.75141 11.7504C6.48245 11.7504 6.33615 11.7504 6.25025 11.7406C6.20455 11.7354 6.16541 11.7265 6.13021 11.7074C6.09697 11.6894 6.07405 11.6655 6.05791 11.6486C6.05781 11.6485 6.05771 11.6484 6.0576 11.6483C6.03136 11.6235 6.00842 11.5949 5.99138 11.5679C5.98258 11.554 5.97434 11.5389 5.96799 11.5236C5.96247 11.5103 5.95469 11.4882 5.95469 11.4629C5.95469 11.3996 5.97913 11.3351 6.00882 11.2847C6.03803 11.2351 6.0826 11.1819 6.13887 11.1537L6.13885 11.1537L6.14169 11.1524C6.15871 11.1445 6.17714 11.1407 6.18905 11.1386C6.20323 11.136 6.21955 11.1339 6.23715 11.1322C6.27249 11.1286 6.318 11.1259 6.37167 11.1238C6.4793 11.1197 6.62456 11.1183 6.79675 11.1197L6.79698 11.1197L6.81415 11.1199C7.07031 11.1227 7.21219 11.1242 7.29513 11.1344C7.33884 11.1397 7.37803 11.1486 7.41255 11.1684C7.44799 11.1887 7.46937 11.2157 7.4834 11.2335L7.48342 11.2335C7.53305 11.2952 7.5602 11.3684 7.55796 11.4446C7.55572 11.5211 7.52406 11.5927 7.46967 11.6511L7.39648 11.583ZM7.39648 11.583C7.47559 11.498 7.47852 11.3867 7.40527 11.2959L6.18359 11.2432C6.11914 11.2754 6.05469 11.3838 6.05469 11.4629C6.05469 11.4863 6.08691 11.5391 6.12793 11.5771C6.19824 11.6504 6.20117 11.6504 6.7666 11.6504C7.32031 11.6504 7.33496 11.6504 7.39648 11.583Z" fill="#3D5AFE" stroke="#3D5AFE" stroke-width="0.2"/>
<path d="M17.6268 11.1478L17.6268 11.1478C17.4219 11.2325 17.3792 11.5084 17.5375 11.6584C17.5563 11.6763 17.5802 11.6975 17.6163 11.7135C17.6505 11.7285 17.689 11.7361 17.7347 11.7407C17.8239 11.7498 17.9726 11.7504 18.2392 11.7504L18.2543 11.7504C18.519 11.7504 18.6638 11.7504 18.7494 11.7406C18.795 11.7354 18.834 11.7265 18.8692 11.7075C18.9028 11.6895 18.9258 11.6655 18.9424 11.6483C18.9425 11.6482 18.9426 11.6481 18.9427 11.648C18.9432 11.6474 18.9437 11.6469 18.9442 11.6464L18.872 11.5771C18.9131 11.5391 18.9453 11.4863 18.9453 11.4629C18.9453 11.3809 18.8808 11.2754 18.8076 11.2432L17.6268 11.1478ZM17.6268 11.1478L17.6284 11.1472C17.6557 11.1364 17.6957 11.1316 17.7287 11.1283C17.7669 11.1246 17.8147 11.1216 17.8681 11.1194C17.9751 11.1148 18.1085 11.1128 18.241 11.1131C18.3734 11.1135 18.5061 11.1163 18.6117 11.1214C18.6643 11.124 18.7113 11.1272 18.7486 11.1311C18.7671 11.1331 18.7845 11.1353 18.7995 11.138C18.8121 11.1403 18.831 11.1441 18.8482 11.1518L17.6268 11.1478Z" fill="#3D5AFE" stroke="#3D5AFE" stroke-width="0.2"/>
<path d="M14.6827 16.877C14.6592 16.748 14.5157 16.584 14.3868 16.5371M14.6827 16.877L14.7805 16.8564C14.7806 16.8568 14.7807 16.8572 14.7808 16.8577C14.7889 16.8976 14.7915 16.9697 14.7918 17.0446C14.7922 17.1246 14.7899 17.2201 14.7855 17.3124L14.7855 17.3128C14.7764 17.4881 14.7713 17.575 14.7704 17.6618C14.7692 17.7691 14.7742 17.8764 14.7855 18.1502L14.7855 18.1504C14.7927 18.3357 14.7963 18.4445 14.7883 18.5181C14.784 18.5578 14.7761 18.5912 14.7624 18.6235C14.7493 18.6544 14.7323 18.6806 14.7161 18.7049L14.7158 18.7053C14.6049 18.87 14.4665 18.9611 14.2829 18.9858L14.2829 18.9859L14.2804 18.9861L14.2023 18.9946L14.053 19.3236L14.053 19.3237C13.9617 19.524 13.8869 19.6657 13.8071 19.7716C13.7249 19.8807 13.6388 19.9498 13.5294 20.0087M14.6827 16.877C14.6944 16.9326 14.6944 17.126 14.6856 17.3076L14.6827 16.877ZM14.3868 16.5371L10.3145 17.2666C10.3244 17.4846 10.3295 17.5856 10.3299 17.6867C10.3302 17.7948 10.3251 17.9029 10.3145 18.1543C10.2999 18.5322 10.3028 18.5527 10.3672 18.6494C10.4639 18.793 10.5782 18.8662 10.7305 18.8867L10.8653 18.9014M14.3868 16.5371C14.2637 16.4932 14.2608 16.4492 14.3604 16.0596L14.3868 16.5371ZM13.5294 20.0087C13.5295 20.0086 13.5297 20.0085 13.5299 20.0084L13.4815 19.9209L13.5288 20.009C13.529 20.0089 13.5292 20.0088 13.5294 20.0087ZM13.5294 20.0087C13.4991 20.0254 13.4677 20.0414 13.4243 20.0533C13.3824 20.0649 13.3332 20.0716 13.2665 20.076C13.1345 20.0847 12.9127 20.0854 12.5 20.0854C12.0874 20.0854 11.8656 20.0847 11.7336 20.076C11.6669 20.0716 11.6177 20.0649 11.5758 20.0533C11.5324 20.0414 11.501 20.0254 11.4707 20.0087C11.4706 20.0086 11.4704 20.0085 11.4702 20.0084L11.5186 19.9209C11.3223 19.8154 11.2198 19.6807 11.0381 19.2822L10.8653 18.9014M10.8653 18.9014L10.8545 19.0008L10.7978 18.9946M10.8653 18.9014L10.7742 18.9427L10.7978 18.9946M10.7978 18.9946L10.7197 18.9861L10.7197 18.9862L10.7172 18.9858C10.5336 18.9611 10.3952 18.87 10.2843 18.7053L10.284 18.7049C10.2678 18.6806 10.2508 18.6544 10.2377 18.6235C10.224 18.5912 10.2161 18.5578 10.2118 18.5181C10.2038 18.4445 10.2074 18.3357 10.2146 18.1504L10.2146 18.1501C10.2251 17.9 10.2302 17.7933 10.2299 17.6867C10.2295 17.5871 10.2244 17.4875 10.2146 17.2711L10.2146 17.271C10.2087 17.1382 10.2071 17.0339 10.2102 16.9544C10.2131 16.8784 10.2206 16.8133 10.2392 16.7666L10.2392 16.7666L10.2398 16.7652C10.2703 16.6921 10.336 16.6171 10.4 16.5602C10.4613 16.5057 10.5389 16.4517 10.6097 16.4308C10.6083 16.4126 10.6057 16.3886 10.6019 16.355L10.7012 16.3437M10.7978 18.9946L10.3321 16.8037C10.376 16.6982 10.543 16.5518 10.6426 16.5254M10.7012 16.3437C10.6778 16.1416 10.5313 15.6934 10.4288 15.5176C10.2823 15.2598 10.0303 14.9609 9.79009 14.7559M10.7012 16.3437L10.6019 16.3553C10.5914 16.2645 10.5515 16.1097 10.4997 15.952C10.4477 15.7941 10.3881 15.6464 10.3424 15.568L10.3424 15.568L10.3418 15.567C10.2016 15.3202 9.9575 15.0303 9.72528 14.832M10.7012 16.3437C10.7188 16.499 10.7188 16.5049 10.6426 16.5254M9.79009 14.7559L9.72545 14.8322C9.72539 14.8321 9.72533 14.8321 9.72528 14.832M9.79009 14.7559L9.72516 14.8319C9.7252 14.8319 9.72524 14.832 9.72528 14.832M9.79009 14.7559C9.29204 14.334 8.84087 13.7949 8.62114 13.3584L9.72528 14.832M9.72528 14.832C9.22033 14.4043 8.75923 13.8552 8.53182 13.4034L8.53182 13.4034L8.53142 13.4025C8.50874 13.3565 8.48979 13.3166 8.47626 13.2819C8.46279 13.2474 8.45212 13.2118 8.45023 13.1749C8.44598 13.092 8.48767 13.0338 8.52788 12.9831M9.72528 14.832L8.52788 12.9831M10.6426 16.5254L10.6195 16.4396L10.6166 16.4288C10.626 16.4263 10.6318 16.4246 10.636 16.4232C10.6384 16.4224 10.6393 16.422 10.6392 16.4221C10.6392 16.4221 10.6385 16.4224 10.6374 16.423C10.6344 16.4247 10.6285 16.4286 10.6226 16.4357C10.6216 16.4369 10.6207 16.438 10.6198 16.4392L10.6426 16.5254ZM8.52788 12.9831C8.55541 12.9478 8.58848 12.9178 8.63004 12.8974C8.67182 12.8768 8.71615 12.8687 8.76177 12.8687C8.79697 12.8687 8.8345 12.871 8.872 12.8825C8.91146 12.8945 8.94543 12.915 8.97684 12.944C9.03342 12.9963 9.08628 13.082 9.15602 13.203L9.15603 13.203C9.40339 13.6323 9.66711 13.9346 10.2426 14.4374L10.2427 14.4375C10.7586 14.8896 11.1246 15.5583 11.2307 16.2405L11.256 16.4023L11.3994 16.4079L11.5211 16.4126V15.7373V15.0609H11.4747C11.2512 15.0609 11.0514 14.9619 10.9315 14.7762C10.8897 14.7157 10.8598 14.6664 10.8455 14.5848C10.833 14.5134 10.8327 14.4163 10.8327 14.2607C10.8327 14.0034 10.8422 13.8793 10.8945 13.7826M8.52788 12.9831L14.3907 16.4303C14.3904 16.4285 14.3901 16.426 14.3899 16.4224C14.3888 16.4029 14.3918 16.3698 14.4033 16.3118C14.4145 16.2553 14.4323 16.182 14.4572 16.0847C14.4913 15.9552 14.512 15.8726 14.5165 15.8138C14.519 15.7812 14.5172 15.751 14.5082 15.7207C14.4997 15.6917 14.4862 15.6683 14.4751 15.6502L14.4734 15.6473L14.4733 15.6473C14.401 15.537 14.2893 15.4759 14.1694 15.4925C14.0523 15.5087 13.9566 15.5952 13.9027 15.7174L13.902 15.719L13.902 15.719C13.8749 15.7834 13.8404 15.9082 13.8107 16.0363C13.7821 16.1598 13.7559 16.2959 13.7441 16.3998C13.7389 16.4004 13.7329 16.4009 13.726 16.4015C13.6971 16.4039 13.6582 16.4057 13.6036 16.4079C13.6035 16.4079 13.6035 16.4079 13.6034 16.4079L13.479 16.4127V15.7373V15.0609H13.5254C13.6813 15.0609 13.8195 15.0192 13.9297 14.9315C14.0397 14.8441 14.1133 14.7178 14.1526 14.5638L14.1527 14.5633C14.1785 14.4604 14.1828 14.3001 14.1746 14.1565C14.1704 14.0831 14.1627 14.0105 14.1518 13.9473C14.1413 13.8867 14.1263 13.8257 14.1037 13.7816L14.1032 13.7806C14.0664 13.7106 14.0065 13.6426 13.9438 13.5885C13.8818 13.5349 13.8074 13.4866 13.7363 13.4649L13.732 13.4636L13.732 13.4637C13.7147 13.4593 13.69 13.4574 13.6708 13.4561C13.6475 13.4546 13.6173 13.4532 13.5816 13.452C13.5102 13.4494 13.4143 13.4474 13.3025 13.4457C13.0788 13.4424 12.7893 13.4408 12.5 13.4408C12.2108 13.4408 11.9213 13.4424 11.6976 13.4457C11.5858 13.4474 11.4899 13.4494 11.4185 13.452C11.3828 13.4532 11.3526 13.4546 11.3293 13.4561C11.3101 13.4574 11.2854 13.4593 11.2681 13.4637L11.2655 13.4644L11.2655 13.4644C11.1944 13.4847 11.1192 13.5339 11.0569 13.5878C10.9936 13.6426 10.9326 13.7118 10.8945 13.7826M10.8945 13.7826C10.8945 13.7826 10.8944 13.7826 10.8944 13.7827L10.9825 13.8301L10.8945 13.7824C10.8945 13.7825 10.8945 13.7825 10.8945 13.7826ZM13.5266 14.087C13.5244 14.0865 13.5217 14.0859 13.5186 14.0853C13.4934 14.0805 13.4499 14.0761 13.3732 14.0728C13.2213 14.0663 12.9594 14.0648 12.5 14.0648C12.4312 14.0648 12.3666 14.0648 12.306 14.0647C12.098 14.0646 11.9365 14.0644 11.8104 14.0667C11.6449 14.0697 11.5509 14.0769 11.4965 14.0902C11.4732 14.0959 11.4638 14.1012 11.4609 14.1032C11.4609 14.1034 11.4608 14.1036 11.4607 14.1039C11.4589 14.1098 11.457 14.1218 11.4567 14.1476C11.4565 14.1628 11.4567 14.1762 11.457 14.1918C11.4572 14.206 11.4575 14.2221 11.4575 14.2432C11.4575 14.2707 11.4565 14.2976 11.4558 14.3198C11.4555 14.3295 11.4552 14.3383 11.455 14.3458C11.4544 14.3714 11.4551 14.3848 11.4565 14.3925C11.4604 14.3944 11.4679 14.3973 11.481 14.4005C11.5324 14.4129 11.6243 14.4192 11.7925 14.4213C11.8996 14.4226 12.0326 14.4223 12.1988 14.4219C12.289 14.4217 12.389 14.4215 12.5 14.4215C12.6111 14.4215 12.7111 14.4217 12.8013 14.4219C12.9675 14.4223 13.1005 14.4226 13.2076 14.4213C13.3758 14.4192 13.4677 14.4129 13.5191 14.4005C13.5322 14.3973 13.5397 14.3944 13.5436 14.3925C13.545 14.3848 13.5457 14.3714 13.5451 14.3458C13.5449 14.3383 13.5446 14.3295 13.5443 14.3198C13.5435 14.2976 13.5426 14.2707 13.5426 14.2432C13.5426 14.1814 13.539 14.1393 13.5333 14.1112C13.5309 14.0992 13.5284 14.0916 13.5266 14.087ZM12.5 16.399H12.826L12.8336 15.7278L12.8336 15.7274L12.8387 15.0609H12.5H12.1614L12.1664 15.7274L12.1665 15.7278L12.1741 16.399H12.5ZM10.8422 17.3805H12.5H14.1579V17.2168V17.0531H12.5H10.8422V17.2168V17.3805ZM10.8422 18.3473H12.5H14.1579V18.1836V18.0199H12.5H10.8422V18.1836V18.3473ZM13.2696 19.4209C13.2694 19.4211 13.2695 19.421 13.2698 19.4207C13.271 19.4195 13.2762 19.4141 13.2855 19.4019C13.2959 19.3881 13.3084 19.3699 13.3224 19.3477C13.3503 19.3036 13.3818 19.2479 13.4114 19.1908C13.441 19.1336 13.468 19.0766 13.4872 19.03C13.4875 19.0292 13.4878 19.0285 13.4881 19.0277C13.4643 19.0261 13.4347 19.0246 13.3981 19.0233C13.2369 19.0175 12.9606 19.016 12.5 19.016C12.0365 19.016 11.7602 19.0175 11.5998 19.0233C11.5638 19.0246 11.5346 19.0261 11.5111 19.0277C11.5116 19.0288 11.5121 19.03 11.5126 19.0312C11.5315 19.0777 11.5581 19.1342 11.5873 19.191C11.6166 19.2477 11.6477 19.303 11.6754 19.3472C11.6893 19.3693 11.7017 19.3877 11.7122 19.4017C11.7174 19.4086 11.7217 19.4139 11.7251 19.4178C11.7266 19.4195 11.7278 19.4208 11.7285 19.4215C11.7427 19.4318 11.7491 19.4354 11.7587 19.4386C11.7721 19.4431 11.796 19.4482 11.8472 19.452C11.9505 19.4597 12.1346 19.4605 12.5 19.4605C12.8611 19.4605 13.0459 19.4597 13.1504 19.452C13.2023 19.4482 13.2269 19.4431 13.2403 19.4386C13.2501 19.4353 13.2559 19.4319 13.2696 19.4209Z" fill="#3D5AFE" stroke="#3D5AFE" stroke-width="0.2"/>
<path d="M9.08069 15.2633L9.08064 15.2634C9.07379 15.2813 9.06244 15.2977 9.05566 15.3072C9.04707 15.3192 9.03642 15.3328 9.02453 15.3473C9.00061 15.3765 8.96873 15.4128 8.93151 15.4535C8.85692 15.5352 8.7583 15.6375 8.6533 15.741C8.49444 15.8985 8.39172 15.9962 8.31861 16.0543C8.24533 16.1126 8.18552 16.1449 8.11426 16.1449C7.93751 16.1449 7.7916 16.0194 7.7916 15.8398C7.7916 15.8069 7.79705 15.7734 7.81382 15.7362C7.82933 15.7017 7.85304 15.6674 7.88413 15.6293C7.94563 15.5541 8.05237 15.4454 8.2312 15.268C8.34355 15.1557 8.45258 15.0525 8.5374 14.9771C8.57967 14.9394 8.61695 14.9078 8.64612 14.8851C8.6605 14.8739 8.67456 14.8635 8.68717 14.8556C8.69335 14.8516 8.70111 14.847 8.70962 14.8431L8.70981 14.843C8.71513 14.8405 8.73422 14.8316 8.75879 14.8316C8.87171 14.8316 8.97017 14.8879 9.03122 14.9667C9.09227 15.0456 9.12185 15.1558 9.08069 15.2633Z" fill="#3D5AFE" stroke="#3D5AFE" stroke-width="0.2"/>
<path d="M16.0127 15.2275L15.9195 15.2636C15.8912 15.1906 15.8978 15.1098 15.9228 15.0433C15.9476 14.9772 15.9961 14.911 16.0691 14.8766C16.1044 14.8594 16.1487 14.8404 16.2012 14.8401C16.2562 14.8397 16.3058 14.8596 16.3544 14.8903C16.4449 14.9476 16.5677 15.0669 16.7688 15.268C16.9477 15.4454 17.0544 15.5541 17.1159 15.6293C17.147 15.6674 17.1707 15.7017 17.1862 15.7362C17.203 15.7734 17.2084 15.8069 17.2084 15.8398C17.2084 16.0194 17.0625 16.1449 16.8858 16.1449C16.8145 16.1449 16.7547 16.1126 16.6814 16.0543C16.6083 15.9962 16.5056 15.8985 16.3467 15.741C16.2417 15.6375 16.1431 15.5352 16.0685 15.4535C16.0313 15.4128 15.9994 15.3765 15.9755 15.3473C15.9636 15.3328 15.9529 15.3192 15.9444 15.3072C15.9376 15.2977 15.9262 15.2813 15.9194 15.2634L16.0127 15.2275Z" fill="#3D5AFE" stroke="#3D5AFE" stroke-width="0.2"/>
</g>
<defs>
<clipPath id="clip0_216_1590">
<rect width="15" height="15" fill="white" transform="translate(5 5)"/>
</clipPath>
</defs>
</svg>
