<svg width="28" height="28" viewBox="0 0 28 28" fill="none" xmlns="http://www.w3.org/2000/svg">
<circle cx="14" cy="14" r="14" fill="#FFA726"/>
<g clip-path="url(#clip0_89_2548)">
<path opacity="0.992" fill-rule="evenodd" clip-rule="evenodd" d="M15.3867 4.29297C16.7409 4.28646 18.0951 4.29297 19.4492 4.3125C19.485 4.32712 19.5176 4.34665 19.5469 4.37109C19.605 6.00839 19.6246 7.64901 19.6055 9.29297C20.491 9.28644 21.3764 9.29297 22.2617 9.3125C22.2975 9.32711 22.3301 9.34664 22.3594 9.37109C22.4175 10.9042 22.437 12.4407 22.418 13.9805C22.2096 13.9805 22.0013 13.9805 21.793 13.9805C21.793 12.6263 21.793 11.2721 21.793 9.91797C21.0638 9.91797 20.3346 9.91797 19.6055 9.91797C19.6055 11.2721 19.6055 12.6263 19.6055 13.9805C19.3971 13.9805 19.1888 13.9805 18.9805 13.9805C18.9805 10.9596 18.9805 7.93879 18.9805 4.91797C17.9388 4.91797 16.8971 4.91797 15.8555 4.91797C15.8555 7.93879 15.8555 10.9596 15.8555 13.9805C15.6471 13.9805 15.4388 13.9805 15.2305 13.9805C15.2305 12.1055 15.2305 10.2305 15.2305 8.35547C14.3971 8.35547 13.5638 8.35547 12.7305 8.35547C12.7305 10.2305 12.7305 12.1055 12.7305 13.9805C12.5221 13.9805 12.3138 13.9805 12.1055 13.9805C12.112 11.5325 12.1055 9.08461 12.0859 6.63672C11.5774 6.21986 11.0696 5.8032 10.5625 5.38672C10.0352 5.7938 9.51441 6.21047 9 6.63672C8.98047 9.08461 8.97394 11.5325 8.98047 13.9805C8.77215 13.9805 8.56379 13.9805 8.35547 13.9805C8.35547 12.5221 8.35547 11.0638 8.35547 9.60547C7.6263 9.60547 6.89714 9.60547 6.16797 9.60547C6.16797 11.0638 6.16797 12.5221 6.16797 13.9805C5.95964 13.9805 5.7513 13.9805 5.54297 13.9805C5.52387 12.3365 5.54341 10.6959 5.60156 9.05859C5.63087 9.03414 5.66343 9.01461 5.69922 9C6.58454 8.98047 7.46996 8.97395 8.35547 8.98047C8.34894 8.09496 8.35547 7.20954 8.375 6.32422C9.0207 5.73077 9.69129 5.16437 10.3867 4.625C10.522 4.5931 10.6523 4.60612 10.7773 4.66406C11.4089 5.19141 12.0404 5.71875 12.6719 6.24609C12.7289 6.73698 12.7485 7.23178 12.7305 7.73047C13.5638 7.73047 14.3971 7.73047 15.2305 7.73047C15.2239 6.63664 15.2305 5.54289 15.25 4.44922C15.277 4.37694 15.3225 4.32486 15.3867 4.29297Z" fill="#F8FCFF"/>
<path fill-rule="evenodd" clip-rule="evenodd" d="M16.4805 5.85547C16.6888 5.85547 16.8971 5.85547 17.1055 5.85547C17.1055 6.0638 17.1055 6.27214 17.1055 6.48047C16.8971 6.48047 16.6888 6.48047 16.4805 6.48047C16.4805 6.27214 16.4805 6.0638 16.4805 5.85547Z" fill="#F8FCFF"/>
<path fill-rule="evenodd" clip-rule="evenodd" d="M17.7305 5.85547C17.9388 5.85547 18.1471 5.85547 18.3555 5.85547C18.3555 6.0638 18.3555 6.27214 18.3555 6.48047C18.1471 6.48047 17.9388 6.48047 17.7305 6.48047C17.7305 6.27214 17.7305 6.0638 17.7305 5.85547Z" fill="#F8FCFF"/>
<path fill-rule="evenodd" clip-rule="evenodd" d="M9.60547 7.10547C10.2305 7.10547 10.8555 7.10547 11.4805 7.10547C11.4805 7.3138 11.4805 7.52214 11.4805 7.73047C10.8555 7.73047 10.2305 7.73047 9.60547 7.73047C9.60547 7.52214 9.60547 7.3138 9.60547 7.10547Z" fill="#F8FCFF"/>
<path fill-rule="evenodd" clip-rule="evenodd" d="M16.4805 7.41797C16.6888 7.41797 16.8971 7.41797 17.1055 7.41797C17.1055 7.6263 17.1055 7.83464 17.1055 8.04297C16.8971 8.04297 16.6888 8.04297 16.4805 8.04297C16.4805 7.83464 16.4805 7.6263 16.4805 7.41797Z" fill="#F8FCFF"/>
<path fill-rule="evenodd" clip-rule="evenodd" d="M17.7305 7.41797C17.9388 7.41797 18.1471 7.41797 18.3555 7.41797C18.3555 7.6263 18.3555 7.83464 18.3555 8.04297C18.1471 8.04297 17.9388 8.04297 17.7305 8.04297C17.7305 7.83464 17.7305 7.6263 17.7305 7.41797Z" fill="#F8FCFF"/>
<path fill-rule="evenodd" clip-rule="evenodd" d="M9.60547 8.66797C10.2305 8.66797 10.8555 8.66797 11.4805 8.66797C11.4805 8.87629 11.4805 9.08465 11.4805 9.29297C10.8555 9.29297 10.2305 9.29297 9.60547 9.29297C9.60547 9.08465 9.60547 8.87629 9.60547 8.66797Z" fill="#F8FCFF"/>
<path fill-rule="evenodd" clip-rule="evenodd" d="M16.4805 8.98047C16.6888 8.98047 16.8971 8.98047 17.1055 8.98047C17.1055 9.18879 17.1055 9.39715 17.1055 9.60547C16.8971 9.60547 16.6888 9.60547 16.4805 9.60547C16.4805 9.39715 16.4805 9.18879 16.4805 8.98047Z" fill="#F8FCFF"/>
<path fill-rule="evenodd" clip-rule="evenodd" d="M17.7305 8.98047C17.9388 8.98047 18.1471 8.98047 18.3555 8.98047C18.3555 9.18879 18.3555 9.39715 18.3555 9.60547C18.1471 9.60547 17.9388 9.60547 17.7305 9.60547C17.7305 9.39715 17.7305 9.18879 17.7305 8.98047Z" fill="#F8FCFF"/>
<path fill-rule="evenodd" clip-rule="evenodd" d="M4.29297 14.6055C10.7513 14.6055 17.2096 14.6055 23.668 14.6055C23.668 14.8138 23.668 15.0221 23.668 15.2305C17.2096 15.2305 10.7513 15.2305 4.29297 15.2305C4.29297 15.0221 4.29297 14.8138 4.29297 14.6055Z" fill="#F8FCFF"/>
<path opacity="0.927" fill-rule="evenodd" clip-rule="evenodd" d="M4.95703 15.7383C4.99593 15.7349 5.02848 15.748 5.05469 15.7774C5.26316 16.4028 5.4715 17.0278 5.67969 17.6524C5.96948 17.5297 6.26896 17.4386 6.57812 17.3789C6.72723 17.385 6.86395 17.4306 6.98828 17.5157C7.21772 17.8377 7.43257 18.1698 7.63281 18.5117C7.85256 18.7967 8.08695 19.0701 8.33594 19.3321C8.46191 19.5234 8.50098 19.7317 8.45312 19.9571C8.29387 20.2337 8.11809 20.5007 7.92578 20.7578C8.41129 21.1079 8.89957 21.453 9.39062 21.793C9.57078 21.5699 9.74656 21.342 9.91797 21.1094C10.1627 20.9587 10.4231 20.9327 10.6992 21.0313C11.3226 21.3239 11.9736 21.5322 12.6523 21.6563C12.8448 21.7316 12.9685 21.8683 13.0234 22.0664C13.043 22.3787 13.0495 22.6912 13.043 23.0039C13.655 23.0039 14.2669 23.0039 14.8789 23.0039C14.8645 22.6757 14.884 22.3502 14.9375 22.0274C15.0091 21.8516 15.1328 21.7279 15.3086 21.6563C16.0144 21.5208 16.6914 21.2995 17.3398 20.9922C17.5585 20.9496 17.7668 20.9757 17.9648 21.0703C18.1723 21.3114 18.3741 21.5523 18.5703 21.793C19.0191 21.4746 19.4683 21.1555 19.918 20.836C19.9514 20.8091 19.9775 20.7765 19.9961 20.7383C19.867 20.5376 19.7303 20.3423 19.5859 20.1524C19.4036 19.8919 19.4036 19.6316 19.5859 19.3711C20.0791 18.8535 20.4957 18.2807 20.8359 17.6524C21.0118 17.4288 21.2396 17.3442 21.5195 17.3985C21.7794 17.4677 22.0333 17.5524 22.2812 17.6524C22.503 17.0196 22.7048 16.3816 22.8867 15.7383C23.1198 15.7856 23.3412 15.8637 23.5508 15.9727C23.3191 16.6483 23.0912 17.3254 22.8672 18.0039C22.7343 18.2039 22.5455 18.3081 22.3008 18.3164C21.9885 18.2449 21.6825 18.1537 21.3828 18.043C21.056 18.6758 20.6458 19.2487 20.1523 19.7617C20.3481 20.0232 20.5239 20.2966 20.6797 20.5821C20.7423 20.8759 20.6577 21.1168 20.4258 21.3047C19.8759 21.7117 19.3159 22.1023 18.7461 22.4766C18.5416 22.5148 18.3463 22.4887 18.1602 22.3985C17.9583 22.1446 17.7565 21.8907 17.5547 21.6367C16.9373 21.9294 16.2928 22.1442 15.6211 22.2813C15.5512 22.603 15.5187 22.9351 15.5234 23.2774C15.4218 23.5333 15.233 23.6701 14.957 23.6875C14.306 23.7136 13.655 23.7136 13.0039 23.6875C12.6637 23.6468 12.4619 23.458 12.3984 23.1211C12.3912 22.838 12.3717 22.5581 12.3398 22.2813C11.6629 22.1598 11.0183 21.9449 10.4062 21.6367C10.2175 21.8776 10.0286 22.1185 9.83984 22.3594C9.64992 22.4853 9.44156 22.5244 9.21484 22.4766C8.65805 22.1154 8.11117 21.7378 7.57422 21.3438C7.29517 21.1437 7.19751 20.8767 7.28125 20.543C7.44258 20.2789 7.61836 20.025 7.80859 19.7813C7.35209 19.2662 6.94844 18.7128 6.59766 18.1211C6.57161 18.1081 6.54557 18.0951 6.51953 18.0821C6.23473 18.1683 5.94827 18.2465 5.66016 18.3164C5.37626 18.3082 5.17443 18.178 5.05469 17.9258C4.85157 17.2709 4.63673 16.6198 4.41016 15.9727C4.59185 15.8863 4.77414 15.8082 4.95703 15.7383Z" fill="#F8FCFF"/>
<path opacity="0.928" fill-rule="evenodd" clip-rule="evenodd" d="M8.23828 15.7383C8.27719 15.7349 8.30973 15.748 8.33594 15.7774C8.95523 17.5946 10.1596 18.8511 11.9492 19.5469C14.1952 20.2642 16.2134 19.8606 18.0039 18.336C18.7715 17.6147 19.3054 16.7488 19.6055 15.7383C19.8326 15.7901 20.0539 15.8617 20.2695 15.9532C19.3907 18.4856 17.6329 19.996 14.9961 20.4844C12.3247 20.8049 10.1828 19.9 8.57031 17.7696C8.2048 17.2078 7.91184 16.6089 7.69141 15.9727C7.8731 15.8863 8.05539 15.8082 8.23828 15.7383Z" fill="#F8FCFF"/>
</g>
<defs>
<clipPath id="clip0_89_2548">
<rect width="20" height="20" fill="white" transform="translate(4 4)"/>
</clipPath>
</defs>
</svg>
