<svg width="28" height="28" viewBox="0 0 28 28" fill="none" xmlns="http://www.w3.org/2000/svg">
<circle cx="14" cy="14" r="14" fill="#3D5AFE"/>
<g clip-path="url(#clip0_216_1555)">
<path d="M13.6079 5.73427L13.6419 5.76343L13.7511 5.85701C13.7873 5.88834 13.8304 5.91611 13.8703 5.93635C13.8904 5.94657 13.9113 5.95564 13.9314 5.96236C13.9501 5.96857 13.9746 5.975 14 5.975C14.0254 5.975 14.0499 5.96857 14.0685 5.96236C14.0887 5.95564 14.1096 5.94657 14.1297 5.93635C14.1696 5.91611 14.2127 5.88835 14.2489 5.85701L14.358 5.76343L14.3921 5.73427L14.3929 5.68947L14.4047 5.09613C14.4047 5.09606 14.4047 5.09599 14.4047 5.09592L14.4047 5.09572L14.3047 5.09375C14.3125 4.76562 14.3086 4.42188 14.293 4.32812L13.6079 5.73427ZM13.6079 5.73427L13.607 5.68947L13.5953 5.09612C13.5856 4.74336 13.5872 4.50892 13.6068 4.34826C13.6264 4.18695 13.6661 4.08216 13.747 4.0061C13.7804 3.97316 13.8245 3.94781 13.8651 3.93076C13.9058 3.91365 13.9546 3.9 14 3.9C14.218 3.9 14.3605 4.08791 14.3918 4.31317L13.6079 5.73427Z" fill="#F8FCFF" stroke="#F8FCFF" stroke-width="0.2"/>
<path d="M7.89426 6.43719L7.89416 6.43708L7.89847 6.43363C7.934 6.40521 7.97651 6.37886 8.01686 6.35927C8.05294 6.34174 8.1027 6.32187 8.14844 6.32187C8.17902 6.32187 8.20551 6.33346 8.2205 6.34078C8.23847 6.34957 8.25734 6.36123 8.27632 6.37424C8.31449 6.4004 8.36125 6.43766 8.41538 6.48431C8.52404 6.57794 8.66954 6.71562 8.8479 6.89398C9.08107 7.12521 9.22175 7.26864 9.30371 7.36801C9.38658 7.46849 9.42422 7.54098 9.42422 7.62891C9.42422 7.73502 9.38923 7.83129 9.31925 7.90128C9.24926 7.97126 9.15299 8.00625 9.04687 8.00625C9.00756 8.00625 8.96678 8.00211 8.92056 7.98411C8.87645 7.96693 8.83284 7.93924 8.78341 7.90039C8.68638 7.82411 8.54691 7.68833 8.3124 7.45382C8.08133 7.22663 7.94505 7.08768 7.86702 6.99105C7.82758 6.9422 7.79901 6.8994 7.78078 6.8574C7.76142 6.81283 7.75547 6.77333 7.75547 6.73438C7.75547 6.67578 7.76537 6.62135 7.7902 6.56956C7.81472 6.51842 7.85085 6.47604 7.89426 6.43719Z" fill="#F8FCFF" stroke="#F8FCFF" stroke-width="0.2"/>
<path d="M18.5758 7.62891C18.5758 7.54098 18.6134 7.46849 18.6963 7.36801C18.7783 7.26864 18.9189 7.12521 19.1521 6.89398C19.317 6.7291 19.4622 6.59172 19.5729 6.49501C19.628 6.44683 19.676 6.40749 19.7143 6.37966C19.7333 6.36587 19.7518 6.35349 19.7689 6.34411C19.7774 6.33942 19.7873 6.33454 19.7979 6.33061C19.8072 6.32714 19.8237 6.32187 19.8438 6.32187C19.926 6.32187 20.0092 6.36094 20.0737 6.40926C20.1392 6.45843 20.2007 6.52864 20.2306 6.61011L20.1367 6.64453L20.2302 6.60914C20.2488 6.65816 20.2585 6.71178 20.2456 6.77374C20.2335 6.83218 20.2031 6.88915 20.1593 6.94999C20.0731 7.0698 19.9118 7.23541 19.6444 7.49704C19.4296 7.7099 19.3006 7.83514 19.2093 7.90611C19.1626 7.94241 19.1206 7.96869 19.0774 7.98509C19.0325 8.00216 18.9922 8.00625 18.9531 8.00625C18.847 8.00625 18.7507 7.97126 18.6808 7.90128C18.6108 7.83129 18.5758 7.73502 18.5758 7.62891Z" fill="#F8FCFF" stroke="#F8FCFF" stroke-width="0.2"/>
<path d="M9.80445 8.20649L9.80431 8.20663C8.93132 9.07963 8.41403 10.0267 8.1561 11.2449C8.06963 11.6512 8.04545 12.2446 8.06907 12.7609C8.08092 13.0198 8.10492 13.2627 8.14017 13.4561C8.15776 13.5527 8.17856 13.6391 8.20295 13.71C8.22611 13.7773 8.25648 13.8428 8.29971 13.8864C8.37109 13.9602 8.47107 13.9924 8.56528 13.9931C8.66 13.9937 8.76032 13.9626 8.83615 13.8949L8.83698 13.8942L8.83698 13.8942C8.86649 13.8672 8.89536 13.8341 8.91387 13.7836C8.93104 13.7367 8.93648 13.6823 8.93596 13.6169C8.93492 13.4876 8.90933 13.277 8.86088 12.9127C8.80773 12.5063 8.83449 11.8458 8.92216 11.4226C9.14484 10.3554 9.5965 9.51377 10.3557 8.75839L10.3559 8.75821C11.1268 7.98727 11.9491 7.5471 13.048 7.31268C13.2623 7.268 13.624 7.24453 13.9956 7.24453C14.367 7.24453 14.7362 7.26796 14.9649 7.31293C16.5521 7.63119 17.9012 8.65469 18.6295 10.0997L18.6295 10.0998C18.9931 10.8192 19.1539 11.5183 19.15 12.3785L19.15 12.3789C19.15 13.042 19.0965 13.4223 18.9203 13.9814L9.80445 8.20649ZM9.80445 8.20649C10.7883 7.22661 11.9058 6.66966 13.2634 6.48301C13.4779 6.45239 13.8399 6.44789 14.1991 6.4616C14.559 6.47532 14.9278 6.50777 15.1566 6.55434C16.3125 6.7887 17.3732 7.35675 18.2075 8.19101C20.039 10.0226 20.4759 12.7921 19.2962 15.1117C18.938 15.8161 18.5076 16.3532 17.8238 16.954L17.8238 16.954L17.8228 16.9549C17.6362 17.1143 17.4133 17.3221 17.3315 17.4113L17.3316 17.4113M9.80445 8.20649L17.3316 17.4113M17.3316 17.4113L17.3297 17.4133M17.3316 17.4113L17.3297 17.4133M17.3297 17.4133C17.2083 17.5386 17.1079 17.6156 16.9805 17.6156C16.7552 17.6156 16.5953 17.4357 16.5953 17.2109C16.5953 17.175 16.597 17.1369 16.6081 17.0968C16.6196 17.0556 16.6393 17.0185 16.6677 16.9801C16.7207 16.9085 16.8142 16.8201 16.9677 16.6801M17.3297 17.4133L16.9677 16.6801M16.9677 16.6801C18.172 15.5768 18.6074 14.966 18.9203 13.9817L16.9677 16.6801Z" fill="#F8FCFF" stroke="#F8FCFF" stroke-width="0.2"/>
<path d="M7.19531 12.7773L7.26916 12.8448C7.24796 12.868 7.22095 12.8969 7.17855 12.9185C7.13758 12.9392 7.09019 12.9493 7.03188 12.9554C6.91925 12.9672 6.72603 12.9672 6.36959 12.9672L6.35547 12.9672L6.33976 12.9672C5.97699 12.9672 5.78341 12.9672 5.67079 12.9543C5.61171 12.9476 5.56436 12.9364 5.52283 12.9139C5.48318 12.8924 5.45579 12.8638 5.43407 12.8412C5.43392 12.841 5.43377 12.8409 5.43363 12.8407C5.40052 12.8096 5.37147 12.7734 5.35002 12.7394C5.33902 12.722 5.32902 12.7036 5.32144 12.6853C5.31471 12.6691 5.30625 12.6445 5.30625 12.6172C5.30625 12.5407 5.33607 12.4605 5.37381 12.3965C5.41108 12.3332 5.46639 12.2683 5.5334 12.2348L5.53338 12.2347L5.53622 12.2334C5.55483 12.2248 5.57585 12.2204 5.59131 12.2176C5.60903 12.2144 5.62986 12.2117 5.65286 12.2094C5.699 12.2048 5.75892 12.2011 5.83017 12.1984C5.97295 12.193 6.16606 12.191 6.39539 12.193L6.39561 12.193L6.41425 12.1932C6.75969 12.1969 6.9474 12.1989 7.05612 12.2123C7.11277 12.2192 7.15983 12.2303 7.20015 12.2535C7.24142 12.2771 7.26653 12.3086 7.28517 12.3321M7.19531 12.7773L7.2685 12.8455C7.33607 12.7729 7.37456 12.6849 7.3773 12.5918C7.38003 12.499 7.34701 12.409 7.28517 12.3321M7.19531 12.7773C7.30078 12.6641 7.30469 12.5156 7.20703 12.3945M7.19531 12.7773C7.11328 12.8672 7.09375 12.8672 6.35547 12.8672C5.60156 12.8672 5.59766 12.8672 5.50391 12.7695C5.44922 12.7188 5.40625 12.6484 5.40625 12.6172C5.40625 12.5117 5.49219 12.3672 5.57812 12.3242L6.39453 12.293L6.39846 12.293C7.11724 12.3008 7.13295 12.301 7.20703 12.3945M7.28517 12.3321C7.28507 12.332 7.28497 12.3319 7.28487 12.3318L7.20703 12.3945M7.28517 12.3321C7.28526 12.3322 7.28535 12.3323 7.28544 12.3325L7.20703 12.3945" fill="#F8FCFF" stroke="#F8FCFF" stroke-width="0.2"/>
<path d="M22.4507 12.2328C22.5238 12.2651 22.5833 12.3283 22.6235 12.393C22.664 12.4582 22.6937 12.5388 22.6937 12.6172C22.6937 12.6445 22.6853 12.6691 22.6785 12.6853C22.671 12.7036 22.661 12.722 22.65 12.7394C22.6285 12.7734 22.5995 12.8096 22.5664 12.8407C22.5442 12.8638 22.5166 12.8925 22.4765 12.914C22.4349 12.9364 22.3876 12.9476 22.3288 12.9543C22.2166 12.9672 22.0249 12.9672 21.6679 12.9672L21.6523 12.9672C21.2959 12.9672 21.0998 12.9664 20.983 12.9545C20.9235 12.9484 20.8762 12.9388 20.8352 12.9208C20.7924 12.9019 20.7638 12.8768 20.7397 12.8537C20.5452 12.6696 20.5987 12.3311 20.8485 12.2279L20.8485 12.2279L20.8501 12.2273C20.8814 12.2149 20.9299 12.2087 20.9748 12.2043C21.025 12.1994 21.0881 12.1955 21.1589 12.1924C21.3009 12.1864 21.4783 12.1837 21.6546 12.1842C21.8308 12.1847 22.0073 12.1884 22.1473 12.1952C22.2172 12.1986 22.2791 12.2028 22.3279 12.2079C22.3523 12.2105 22.3745 12.2134 22.3934 12.2168C22.4099 12.2198 22.4318 12.2244 22.4507 12.2328ZM22.4507 12.2328C22.4508 12.2329 22.4509 12.2329 22.4511 12.233L22.4101 12.3242L22.4504 12.2327C22.4505 12.2327 22.4506 12.2328 22.4507 12.2328Z" fill="#F8FCFF" stroke="#F8FCFF" stroke-width="0.2"/>
<path d="M8.73878 15.1895L8.73879 15.1895C9.03944 15.7868 9.65093 16.5156 10.3219 17.084C10.6342 17.3506 10.9623 17.7402 11.1513 18.0728L11.1519 18.0738L11.1519 18.0738C11.2147 18.1815 11.2951 18.3813 11.3645 18.5923C11.4337 18.803 11.4877 19.0119 11.5022 19.1364C11.5082 19.1891 11.5122 19.2252 11.5137 19.252C11.514 19.2574 11.5141 19.2621 11.5142 19.266C11.5095 19.2673 11.504 19.2688 11.4974 19.2706L8.73878 15.1895ZM8.73878 15.1895L8.73838 15.1887M8.73878 15.1895L8.73838 15.1887M8.73838 15.1887C8.70814 15.1272 8.68345 15.0752 8.66598 15.0304C8.64858 14.9858 8.63577 14.9422 8.63351 14.8982C8.62853 14.8009 8.67661 14.732 8.72998 14.6647M8.73838 15.1887L8.72998 14.6647M11.0859 20.3555C11.0703 20.0039 11.0781 19.8164 11.1094 19.7383L11.0859 20.3555ZM11.0859 20.3555C11.0991 20.6461 11.106 20.7808 11.1064 20.9156M11.0859 20.3555L11.1064 20.9156M11.9597 23.0843L11.9598 23.0844C12.0813 23.3511 12.1798 23.5373 12.2839 23.6754C12.3904 23.8167 12.5014 23.9059 12.6435 23.9823C12.683 24.0042 12.7222 24.0241 12.7765 24.039C12.8293 24.0535 12.8923 24.0622 12.9802 24.068C13.1548 24.0796 13.4491 24.0805 14 24.0805C14.5508 24.0805 14.8452 24.0796 15.0197 24.068C15.1077 24.0622 15.1707 24.0535 15.2235 24.039C15.2777 24.0241 15.3169 24.0042 15.3564 23.9823C15.3566 23.9822 15.3568 23.9821 15.3569 23.9821L15.3086 23.8945C15.5703 23.7539 15.707 23.5742 15.9492 23.043L11.9597 23.0843ZM11.9597 23.0843L11.7528 22.6284L11.9597 23.0843ZM11.9765 15.7734C12.0586 15.6211 12.2539 15.4531 12.3906 15.4141L8.80858 14.7266C8.86326 14.6562 8.92576 14.625 9.01561 14.625C9.18358 14.625 9.23436 14.6719 9.42576 15.0039C9.76561 15.5938 10.1289 16.0078 10.9023 16.6836C11.5664 17.2656 12.039 18.1289 12.1758 19.0078L12.2265 19.332L12.5273 19.3438L12.7281 19.3516V19.2515M11.9765 15.7734C11.9258 15.8672 11.9101 15.9961 11.9101 16.3477C11.9101 16.7734 11.914 16.8086 12.0195 16.9609M11.9765 15.7734L11.8885 15.726C11.8885 15.726 11.8885 15.726 11.8886 15.7259M11.9765 15.7734L11.8886 15.7258C11.8886 15.7258 11.8886 15.7259 11.8886 15.7259M12.0195 16.9609C12.1523 17.168 12.375 17.2812 12.6328 17.2812H12.7281V17.3812M12.0195 16.9609L11.9373 17.0179C11.937 17.0174 11.9366 17.0169 11.9363 17.0164M12.0195 16.9609L11.9353 17.0149C11.9357 17.0154 11.936 17.0159 11.9363 17.0164M12.7281 17.3812H12.8281V18.3164V19.2554L12.7281 19.2515M12.7281 17.3812V18.3164V19.2515M12.7281 17.3812H12.6328C12.3449 17.3812 12.0894 17.2539 11.9363 17.0164M12.7281 19.2515L12.5312 19.2438L12.3126 19.2353L12.2746 18.9924C12.1343 18.0906 11.6501 17.206 10.9682 16.6084L10.9681 16.6083C10.1993 15.9365 9.84473 15.5308 9.51241 14.954L9.5124 14.954C9.41873 14.7915 9.35074 14.6821 9.27975 14.6165C9.24114 14.5808 9.20015 14.5563 9.15285 14.5419C9.10751 14.528 9.06131 14.525 9.01561 14.525C8.95876 14.525 8.90491 14.535 8.85471 14.5597C8.80473 14.5843 8.76434 14.6207 8.72998 14.6647M8.72998 14.6647L15.6889 19.229C15.6782 19.231 15.6619 19.2332 15.6374 19.2352C15.598 19.2385 15.5453 19.2409 15.4726 19.2438C15.4725 19.2438 15.4725 19.2438 15.4725 19.2438L15.2719 19.2515V18.3164V17.3812H15.3672C15.5689 17.3812 15.7454 17.3273 15.8855 17.216C16.0252 17.1048 16.1201 16.9434 16.1711 16.7435L16.1712 16.743C16.2043 16.6107 16.2103 16.4012 16.1994 16.2106C16.1939 16.1137 16.1838 16.0181 16.1694 15.9354C16.1556 15.8553 16.1363 15.7781 16.1085 15.7239L16.108 15.723C16.0614 15.6345 15.9847 15.5469 15.9032 15.4766C15.8224 15.4068 15.7272 15.3455 15.6386 15.3184L15.6343 15.3171L15.6343 15.3172C15.6149 15.3122 15.5852 15.3098 15.5588 15.3081C15.5282 15.3061 15.4883 15.3043 15.4409 15.3026C15.346 15.2993 15.2184 15.2965 15.0695 15.2943C14.7713 15.2899 14.3855 15.2877 14 15.2877C13.6144 15.2877 13.2287 15.2899 12.9305 15.2943C12.7815 15.2965 12.6539 15.2993 12.5591 15.3026C12.5117 15.3043 12.4718 15.3061 12.4412 15.3081C12.4147 15.3098 12.3851 15.3122 12.3657 15.3172L12.3631 15.3179L12.3631 15.3179C12.2749 15.3431 12.179 15.4053 12.0976 15.4757C12.0153 15.5469 11.9369 15.6361 11.8886 15.7259M11.9363 17.0164C11.8814 16.937 11.8446 16.8759 11.8268 16.774C11.8107 16.6823 11.8101 16.5565 11.8101 16.3477C11.8101 16.0024 11.8235 15.846 11.8886 15.7259M11.1064 20.9156C11.1069 21.0597 11.1001 21.2039 11.0859 21.5391L11.1064 20.9156ZM15.6897 19.223C15.7041 19.0843 15.7402 18.8947 15.78 18.7226C15.8195 18.5517 15.8651 18.3879 15.9 18.3049L15.9 18.3049L15.9007 18.3034C15.9693 18.1479 16.0886 18.0427 16.2304 18.023C16.3749 18.003 16.5123 18.076 16.6032 18.2147L16.6032 18.2147L16.6049 18.2175C16.6194 18.2413 16.6355 18.2694 16.6456 18.3036C16.6561 18.3392 16.6585 18.3753 16.6554 18.4159C16.6496 18.4905 16.6231 18.5973 16.5772 18.7712C16.5441 18.901 16.5201 18.9995 16.5049 19.076C16.4895 19.1538 16.4848 19.2014 16.4865 19.2317C16.4873 19.2459 16.4894 19.2534 16.4908 19.2568C16.4918 19.2596 16.4927 19.2607 16.4937 19.2618C16.498 19.2661 16.5099 19.2746 16.5492 19.2886L16.5498 19.2888C16.6567 19.3277 16.7608 19.4107 16.841 19.5026C16.9205 19.5938 16.9879 19.7069 17.0083 19.8167C17.0184 19.8659 17.0219 19.9588 17.0223 20.0596C17.0228 20.1656 17.0199 20.2924 17.0139 20.415L17.0139 20.4153C17.0018 20.6498 16.995 20.7661 16.9938 20.8824C16.9922 21.0259 16.9989 21.1695 17.014 21.5349L17.014 21.5352C17.0236 21.7835 17.0281 21.9254 17.0179 22.0205C17.0124 22.071 17.0025 22.1122 16.9857 22.1517C16.9696 22.1897 16.9485 22.2223 16.9269 22.2547L16.9267 22.2551C16.7835 22.4676 16.6071 22.5832 16.3727 22.6147L16.3727 22.6148L16.3702 22.615L16.2472 22.6284L15.6897 19.223ZM15.3916 16.088C15.3879 16.0866 15.3796 16.0839 15.3643 16.081C15.3282 16.0741 15.268 16.0681 15.1656 16.0638C14.9622 16.0551 14.6121 16.0531 14 16.0531C13.9083 16.0531 13.8223 16.0531 13.7415 16.053C13.4641 16.0527 13.2484 16.0526 13.0799 16.0556C12.8596 16.0596 12.7307 16.0692 12.654 16.0879C12.6168 16.097 12.6002 16.1064 12.5929 16.1121C12.588 16.1159 12.5851 16.1195 12.5823 16.1288C12.5785 16.1414 12.576 16.1612 12.5755 16.1963C12.5752 16.2166 12.5755 16.2354 12.5759 16.2569C12.5762 16.2761 12.5765 16.2976 12.5765 16.3242C12.5765 16.3603 12.5754 16.3951 12.5744 16.4243C12.5739 16.4376 12.5735 16.4497 12.5732 16.4603C12.5724 16.4983 12.5735 16.5196 12.5766 16.5337C12.5787 16.5434 12.5807 16.5451 12.5819 16.546C12.5819 16.5461 12.582 16.5461 12.5821 16.5462C12.5857 16.5494 12.5983 16.5579 12.6334 16.5664C12.7062 16.584 12.8327 16.5922 13.0562 16.595C13.1993 16.5968 13.3769 16.5964 13.5988 16.5959C13.719 16.5956 13.8523 16.5953 14 16.5953C14.1477 16.5953 14.2809 16.5956 14.4012 16.5959C14.623 16.5964 14.8007 16.5968 14.9437 16.595C15.1673 16.5922 15.2938 16.584 15.3666 16.5664C15.4017 16.5579 15.4142 16.5494 15.4179 16.5462C15.4189 16.5453 15.4211 16.5442 15.4234 16.5337C15.4265 16.5196 15.4276 16.4983 15.4267 16.4603C15.4265 16.4497 15.4261 16.4376 15.4256 16.4243C15.4246 16.3951 15.4234 16.3603 15.4234 16.3242C15.4234 16.241 15.4186 16.1823 15.4103 16.1416C15.4032 16.1067 15.395 16.0926 15.3916 16.088ZM14.4852 17.3812H14H13.5148L13.5219 18.3035L13.5219 18.3039L13.5324 19.232H14H14.4675L14.4781 18.3039L14.4781 18.3035L14.4852 17.3812ZM11.7562 20.5406H14H16.2437V20.2891V20.0375H14H11.7562V20.2891V20.5406ZM11.7562 21.8297H14H16.2437V21.5781V21.3266H14H11.7562V21.5781V21.8297ZM15.0469 23.2539L15.0469 23.2539C15.047 23.2539 15.0477 23.2533 15.0492 23.2518C15.0507 23.2503 15.0527 23.2482 15.0553 23.2454C15.0603 23.2398 15.0665 23.2322 15.0738 23.2226C15.0885 23.2033 15.1057 23.1781 15.1246 23.1481C15.1625 23.0882 15.2049 23.0132 15.2447 22.9364C15.2845 22.8596 15.3209 22.7827 15.347 22.7193C15.3538 22.703 15.3597 22.6878 15.3648 22.6741C15.3266 22.6704 15.2729 22.6671 15.1985 22.6644C14.983 22.6567 14.6139 22.6547 14 22.6547C13.3822 22.6547 13.0131 22.6567 12.7985 22.6644C12.725 22.667 12.672 22.6703 12.6344 22.674C12.6395 22.6882 12.6456 22.7038 12.6525 22.7208C12.6782 22.784 12.7141 22.8603 12.7534 22.9366C12.7927 23.0129 12.8347 23.0875 12.8722 23.1473C12.9107 23.2086 12.9377 23.2432 12.9494 23.254C12.9709 23.2698 12.9829 23.277 13.0009 23.2831C13.0226 23.2904 13.0578 23.2975 13.127 23.3026C13.2664 23.313 13.5134 23.3141 14 23.3141C14.4806 23.3141 14.7287 23.313 14.8696 23.3026C14.9397 23.2974 14.9757 23.2903 14.9976 23.283C15.0159 23.2769 15.0271 23.2698 15.0469 23.2539Z" fill="#F8FCFF" stroke="#F8FCFF" stroke-width="0.2"/>
<path d="M9.40979 17.6725L9.40974 17.6726C9.40228 17.692 9.38945 17.7108 9.38041 17.7235C9.36957 17.7387 9.35588 17.7562 9.34026 17.7753C9.3089 17.8135 9.26682 17.8615 9.2174 17.9156C9.11839 18.024 8.98731 18.16 8.84764 18.2977C8.63555 18.5078 8.49987 18.6368 8.40406 18.713C8.30808 18.7894 8.23581 18.8266 8.15234 18.8266C7.93263 18.8266 7.75547 18.6717 7.75547 18.4531C7.75547 18.4133 7.76196 18.3735 7.78216 18.3286C7.8011 18.2865 7.83064 18.2433 7.87132 18.1935C7.95198 18.0949 8.0929 17.9512 8.33178 17.7143C8.48124 17.5648 8.62616 17.4278 8.7387 17.3276C8.79482 17.2777 8.84391 17.236 8.88198 17.2064C8.90081 17.1917 8.91859 17.1787 8.93407 17.1689C8.9417 17.1641 8.95069 17.1588 8.9602 17.1543L8.96025 17.1543C8.96634 17.1515 8.98635 17.1422 9.01172 17.1422C9.15101 17.1422 9.27291 17.2116 9.3486 17.3094C9.4243 17.4072 9.45974 17.5421 9.40979 17.6725Z" fill="#F8FCFF" stroke="#F8FCFF" stroke-width="0.2"/>
<path d="M18.6836 17.6367L18.5904 17.6728C18.5562 17.5847 18.5638 17.4855 18.5949 17.4028C18.6259 17.3205 18.6856 17.2401 18.7733 17.1989C18.8194 17.1763 18.8729 17.1538 18.9351 17.1534C18.9998 17.153 19.0596 17.1762 19.1214 17.2153C19.2381 17.2891 19.3988 17.4448 19.6683 17.7143C19.9071 17.9512 20.0481 18.0949 20.1287 18.1935C20.1694 18.2433 20.1989 18.2865 20.2179 18.3286C20.2381 18.3735 20.2446 18.4133 20.2446 18.4531C20.2446 18.6717 20.0674 18.8266 19.8477 18.8266C19.7642 18.8266 19.6919 18.7894 19.596 18.713C19.5002 18.6368 19.3645 18.5078 19.1524 18.2977C19.0127 18.16 18.8816 18.024 18.7826 17.9156C18.7332 17.8615 18.6911 17.8135 18.6598 17.7753C18.6441 17.7562 18.6305 17.7387 18.6196 17.7235C18.6106 17.7108 18.5978 17.692 18.5903 17.6726L18.6836 17.6367Z" fill="#F8FCFF" stroke="#F8FCFF" stroke-width="0.2"/>
</g>
<defs>
<clipPath id="clip0_216_1555">
<rect width="20" height="20" fill="white" transform="translate(4 4)"/>
</clipPath>
</defs>
</svg>
