<svg width="15" height="12" viewBox="0 0 15 12" fill="none" xmlns="http://www.w3.org/2000/svg">
<path d="M8.14062 7C8.14062 6.88811 8.18507 6.78081 8.26419 6.70169C8.34331 6.62257 8.45061 6.57812 8.5625 6.57812H13.625C13.7369 6.57812 13.8442 6.62257 13.9233 6.70169C14.0024 6.78081 14.0469 6.88811 14.0469 7C14.0469 7.11189 14.0024 7.21919 13.9233 7.29831C13.8442 7.37743 13.7369 7.42188 13.625 7.42188H8.5625C8.45061 7.42188 8.34331 7.37743 8.26419 7.29831C8.18507 7.21919 8.14062 7.11189 8.14062 7ZM13.625 11.0781H4.0625C3.95061 11.0781 3.84331 11.1226 3.76419 11.2017C3.68507 11.2808 3.64062 11.3881 3.64062 11.5C3.64062 11.6119 3.68507 11.7192 3.76419 11.7983C3.84331 11.8774 3.95061 11.9219 4.0625 11.9219H13.625C13.7369 11.9219 13.8442 11.8774 13.9233 11.7983C14.0024 11.7192 14.0469 11.6119 14.0469 11.5C14.0469 11.3881 14.0024 11.2808 13.9233 11.2017C13.8442 11.1226 13.7369 11.0781 13.625 11.0781ZM9.6875 2.92188H13.625C13.7369 2.92188 13.8442 2.87743 13.9233 2.79831C14.0024 2.71919 14.0469 2.61189 14.0469 2.5C14.0469 2.38811 14.0024 2.28081 13.9233 2.20169C13.8442 2.12257 13.7369 2.07812 13.625 2.07812H9.6875C9.57561 2.07812 9.46831 2.12257 9.38919 2.20169C9.31007 2.28081 9.26562 2.38811 9.26562 2.5C9.26562 2.61189 9.31007 2.71919 9.38919 2.79831C9.46831 2.87743 9.57561 2.92188 9.6875 2.92188ZM0.951875 4.48563C1.03098 4.56463 1.1382 4.609 1.25 4.609C1.3618 4.609 1.46902 4.56463 1.54813 4.48563L3.64062 2.39383V8.125C3.64062 8.23689 3.68507 8.34419 3.76419 8.42331C3.84331 8.50243 3.95061 8.54688 4.0625 8.54688C4.17439 8.54688 4.28169 8.50243 4.36081 8.42331C4.43993 8.34419 4.48438 8.23689 4.48438 8.125V2.39383L6.57687 4.48563C6.65685 4.56015 6.76262 4.60071 6.87192 4.59879C6.98121 4.59686 7.08549 4.55258 7.16279 4.47529C7.24008 4.39799 7.28436 4.29371 7.28629 4.18442C7.28821 4.07512 7.24765 3.96935 7.17313 3.88937L4.36063 1.07687C4.28152 0.997871 4.1743 0.953496 4.0625 0.953496C3.9507 0.953496 3.84348 0.997871 3.76437 1.07687L0.951875 3.88937C0.872871 3.96848 0.828496 4.0757 0.828496 4.1875C0.828496 4.2993 0.872871 4.40652 0.951875 4.48563Z" fill="#637B90"/>
</svg>
