<svg width="16" height="20" viewBox="0 0 16 20" fill="none" xmlns="http://www.w3.org/2000/svg">
<path d="M13.957 8.08594V5.74871H12.2985V4.48816H11.1266V5.74871H9.46801V8.08594H8.58594V3.63281H7.16332V1.32812H5.26227V0H4.0904V1.32812H2.18938V3.63281H0.766724V20H15.2333V8.08594H13.957ZM4.14899 17.8646H2.97711V16.6797H4.14899V17.8646ZM4.14899 15.6771H2.97711V14.4922H4.14899V15.6771ZM4.14899 13.4896H2.97711V12.3047H4.14899V13.4896ZM4.14899 11.3021H2.97711V10.1172H4.14899V11.3021ZM4.14899 9.11457H2.97711V7.92969H4.14899V9.11457ZM4.14899 6.92707H2.97711V5.74219H4.14899V6.92707ZM6.37555 17.8646H5.20368V16.6797H6.37555V17.8646ZM6.37555 15.6771H5.20368V14.4922H6.37555V15.6771ZM6.37555 13.4896H5.20368V12.3047H6.37555V13.4896ZM6.37555 11.3021H5.20368V10.1172H6.37555V11.3021ZM6.37555 9.11457H5.20368V7.92969H6.37555V9.11457ZM6.37555 6.92707H5.20368V5.74219H6.37555V6.92707ZM11.0828 17.8646H9.9109V16.6797H11.0828V17.8646ZM11.0828 15.6771H9.9109V14.4922H11.0828V15.6771ZM11.0828 13.4896H9.9109V12.3047H11.0828V13.4896ZM11.0828 11.3021H9.9109V10.1172H11.0828V11.3021ZM13.3093 17.8646H12.1375V16.6797H13.3093V17.8646ZM13.3093 15.6771H12.1375V14.4922H13.3093V15.6771ZM13.3093 13.4896H12.1375V12.3047H13.3093V13.4896ZM13.3093 11.3021H12.1375V10.1172H13.3093V11.3021Z" fill="#00AAE6"/>
</svg>
