<svg width="25" height="25" viewBox="0 0 25 25" fill="none" xmlns="http://www.w3.org/2000/svg">
<circle cx="12.5" cy="12.5" r="12.5" fill="#6A1B9A"/>
<circle cx="12.5" cy="12.5" r="10.5" fill="#F8FCFF"/>
<g clip-path="url(#clip0_216_1589)">
<path d="M11.9822 5.43659L11.9821 5.43661C10.7856 5.56333 9.80515 5.89968 8.8838 6.50505C8.46528 6.77914 8.2371 6.95988 7.88601 7.30505C7.59407 7.58817 7.31955 7.90687 7.11834 8.1939L11.9822 5.43659ZM11.9822 5.43659C12.1285 5.42151 12.4352 5.42467 12.745 5.43821C13.0554 5.45176 13.3751 5.47602 13.5482 5.50437L13.5484 5.50441C15.6437 5.85855 17.4239 7.15134 18.3746 9.00846L18.3748 9.00871L18.5062 9.26895L18.8541 9.18196L18.8543 9.18192C18.9614 9.15552 19.0658 9.13052 19.1483 9.11209C19.1896 9.10288 19.2257 9.09524 19.2542 9.08987C19.2807 9.08487 19.3053 9.08086 19.3204 9.08086C19.3529 9.08086 19.3851 9.09233 19.4129 9.10736C19.4413 9.12269 19.4687 9.14358 19.4926 9.16682C19.5164 9.19005 19.5379 9.21676 19.5537 9.24454C19.5692 9.27169 19.5813 9.30349 19.5813 9.33594C19.5813 9.34344 19.5799 9.35122 19.5789 9.35623C19.5777 9.36233 19.5761 9.36947 19.5741 9.37734C19.5701 9.39314 19.5644 9.4137 19.5572 9.43816C19.5429 9.48719 19.5222 9.55358 19.4969 9.63247C19.4462 9.79034 19.3765 9.9994 19.3003 10.2222L19.3002 10.2224L19.026 11.0133L19.0533 11.1821C19.0533 11.1822 19.0533 11.1823 19.0533 11.1824C19.1069 11.5012 19.1214 12.229 19.086 12.6217L19.086 12.622C18.9886 13.6282 18.6641 14.6228 18.156 15.4557L18.1559 15.4559C18.0624 15.6078 17.9615 15.7624 17.9303 15.8029L17.9302 15.803L17.8804 15.8675L17.8508 15.9059L17.8115 15.8774L17.6299 15.7455L17.6298 15.7455C17.5811 15.7101 17.5359 15.676 17.5027 15.6499C17.4862 15.6369 17.4722 15.6255 17.4621 15.6168C17.4572 15.6126 17.4525 15.6083 17.4487 15.6044C17.4469 15.6026 17.4443 15.5999 17.4419 15.5967C17.4407 15.5952 17.4386 15.5924 17.4367 15.5887C17.4354 15.5864 17.4305 15.5772 17.4305 15.5645C17.4305 15.5581 17.4317 15.5533 17.4322 15.5516C17.4328 15.5493 17.4334 15.5475 17.4338 15.5463C17.4347 15.5441 17.4355 15.5421 17.4361 15.5408L17.4401 15.5329C17.443 15.5276 17.4469 15.5206 17.4516 15.5125C17.461 15.4962 17.4744 15.4736 17.4908 15.4464C17.5235 15.392 17.5682 15.3186 17.6166 15.2395L17.6169 15.2389C18.3171 14.1291 18.6454 12.7488 18.5148 11.48C18.4975 11.3299 18.4778 11.1782 18.4693 11.1361C18.4688 11.1352 18.4674 11.1323 18.4638 11.1271C18.4585 11.1192 18.4506 11.1087 18.4395 11.0956C18.4174 11.0693 18.3852 11.0349 18.3431 10.9929C18.2592 10.9089 18.1385 10.7969 17.9865 10.6624L17.9669 10.6452C17.5912 10.3133 17.4009 10.1452 17.3051 10.0482C17.2568 9.99935 17.2279 9.96418 17.2123 9.93184C17.196 9.89792 17.1961 9.86997 17.1961 9.8464L17.1962 9.84277C17.1962 9.80041 17.2011 9.76035 17.2171 9.7234C17.2336 9.6856 17.26 9.65485 17.2969 9.6285C17.3671 9.57835 17.481 9.5406 17.6524 9.49559L17.6651 9.54394M11.9822 5.43659L7.1183 8.19395L6.9932 8.37187L6.24771 8.77928C6.24768 8.7793 6.24764 8.77932 6.2476 8.77934C5.93448 8.94907 5.74268 9.056 5.62617 9.12873C5.56802 9.16503 5.52673 9.19395 5.49801 9.2189C5.4694 9.24373 5.44942 9.26784 5.4394 9.29541L5.4393 9.29568L5.4393 9.29568C5.42377 9.33916 5.41339 9.38206 5.41763 9.42519C5.42203 9.47008 5.44161 9.50943 5.47512 9.54689C5.50766 9.58326 5.55437 9.61902 5.61555 9.65823C5.67711 9.69769 5.75611 9.74236 5.85518 9.79593L5.85539 9.79605C5.88085 9.80966 5.90452 9.82221 5.92653 9.83388C5.99704 9.87128 6.0505 9.89963 6.09147 9.92504C6.14557 9.9586 6.16793 9.98135 6.17789 10.0027C6.18741 10.0231 6.18973 10.0513 6.17848 10.1076C6.17001 10.1499 6.15543 10.2014 6.13613 10.2697C6.1296 10.2928 6.12253 10.3178 6.11497 10.345L6.16314 10.3584M6.16314 10.3584L6.115 10.3449C5.95242 10.9243 5.90514 11.3127 5.90514 12.0165M6.16314 10.3584C6.22016 10.1531 6.25429 10.0574 6.22571 9.98732C6.19556 9.91332 6.09557 9.86778 5.87896 9.75195L7.11899 15.7959L7.12011 15.7951L6.98053 15.582C6.63482 15.0518 6.30377 14.29 6.14264 13.6484C5.99029 13.0508 5.95221 12.7285 5.95514 12.0166M6.16314 10.3584C6.00201 10.9326 5.95514 11.3164 5.95514 12.0166M5.90514 12.0165C5.9022 12.732 5.94067 13.0585 6.09416 13.6607C6.2566 14.3075 6.58983 15.0743 6.93864 15.6093L6.9387 15.6094L7.1057 15.8643L7.13386 15.9073L7.17605 15.878L7.3489 15.7579L7.34896 15.7578C7.39794 15.7237 7.44327 15.6902 7.47763 15.6637C7.49478 15.6505 7.50944 15.6388 7.52057 15.6295C7.52611 15.6248 7.53106 15.6205 7.53513 15.6168C7.5383 15.6139 7.5437 15.6088 7.54787 15.6032L7.55332 15.596L7.55259 15.5956C7.5603 15.5802 7.55798 15.5654 7.55748 15.5623L7.55744 15.562C7.55658 15.5564 7.55508 15.5513 7.55383 15.5475C7.55125 15.5397 7.54747 15.5307 7.54327 15.5216C7.53473 15.503 7.5221 15.4786 7.50671 15.4504C7.47579 15.3938 7.43213 15.3191 7.38354 15.2396L7.38319 15.239L7.38318 15.239C6.51735 13.8647 6.24427 12.1736 6.63354 10.6078L6.63357 10.6077C6.6584 10.5069 6.68247 10.4135 6.70138 10.3441C6.70974 10.3134 6.71702 10.2876 6.72287 10.268C6.73501 10.2727 6.7497 10.2788 6.76671 10.2863C6.82206 10.3105 6.8978 10.3473 6.98051 10.3908C7.06339 10.4352 7.14647 10.476 7.21364 10.5059C7.24718 10.5208 7.27732 10.5332 7.30179 10.542C7.31399 10.5464 7.32537 10.5501 7.33541 10.5528C7.34444 10.5552 7.35605 10.5578 7.36724 10.5578C7.39558 10.5578 7.42855 10.5451 7.45564 10.5318C7.48484 10.5174 7.51586 10.4978 7.54233 10.4763L7.54383 10.4751L7.54381 10.4751C7.54575 10.4734 7.54773 10.4716 7.54976 10.4699C7.57039 10.4519 7.59461 10.4309 7.61039 10.3971C7.62732 10.3608 7.63295 10.3147 7.63258 10.2479C7.63186 10.1198 7.60795 9.88626 7.56113 9.429L7.55468 9.366L7.55466 9.36582L7.48046 8.66657L7.56331 8.54747C7.56334 8.54742 7.56338 8.54737 7.56341 8.54732C8.81586 6.78065 10.9488 5.80158 13.0839 6.01654C14.8885 6.19963 16.5215 7.17895 17.521 8.67813L17.5211 8.67831C17.6226 8.82915 17.7368 9.02046 17.8227 9.17657C17.8657 9.25467 17.9011 9.32322 17.9242 9.37304C17.9311 9.3878 17.9366 9.40048 17.9409 9.41098C17.9249 9.41645 17.9043 9.4231 17.8799 9.43062C17.8202 9.44908 17.7396 9.47234 17.6522 9.49563L17.6651 9.54394M5.90514 12.0165C5.90514 12.0165 5.90514 12.0164 5.90514 12.0164L5.95514 12.0166M5.90514 12.0165C5.90514 12.0165 5.90514 12.0166 5.90514 12.0166H5.95514M17.6651 9.54394C17.3194 9.63477 17.2462 9.6875 17.2462 9.84277C17.2462 9.85465 17.2461 9.86502 17.2472 9.87525C17.2559 9.95085 17.3332 10.0186 18.0196 10.625L13.0889 5.9668C14.9083 6.15137 16.5547 7.13867 17.5626 8.65039C17.7676 8.95508 18.0225 9.4209 17.9991 9.44141C17.9903 9.45019 17.8409 9.49707 17.6651 9.54394ZM13.5401 5.55371C13.2003 5.49805 12.2715 5.45703 11.9874 5.48633L13.5401 5.55371ZM13.5401 5.55371C15.6202 5.90527 17.3868 7.18848 18.3301 9.03125L13.5401 5.55371ZM6.58502 10.5957C6.63482 10.3936 6.6817 10.2207 6.69049 10.209C6.69635 10.1973 6.83697 10.2588 7.00396 10.3467L6.58502 10.5957ZM6.73437 10.2327L6.73435 10.2328L6.73437 10.2327ZM6.95443 9.11422L6.95438 9.11389C6.9512 9.08947 6.94729 9.06736 6.94325 9.04968C6.92196 9.06005 6.89415 9.07421 6.86173 9.0911C6.79132 9.12781 6.70049 9.17678 6.61061 9.22629C6.52072 9.2758 6.43211 9.32567 6.36613 9.36416C6.34918 9.37404 6.33384 9.38312 6.32042 9.39119C6.33719 9.40108 6.35708 9.41256 6.37969 9.42537C6.45603 9.46863 6.56174 9.52623 6.67857 9.58757C6.79545 9.64893 6.90088 9.70199 6.97677 9.73741C6.99461 9.74573 7.01059 9.75297 7.02454 9.75906C7.02358 9.74865 7.02251 9.73734 7.02135 9.72524C7.01583 9.66776 7.00824 9.59303 7.00001 9.51475C6.98352 9.35788 6.96456 9.18801 6.95443 9.11422ZM6.98065 9.03278C6.98068 9.03276 6.98048 9.03282 6.98001 9.03298L6.98065 9.03278ZM18.4163 9.8823L18.4159 9.88238C18.304 9.91145 18.2042 9.94114 18.1335 9.96518C18.1151 9.97144 18.0989 9.97722 18.0852 9.98242C18.1014 9.99845 18.1216 10.0178 18.1447 10.0397C18.2035 10.0951 18.2802 10.1653 18.3569 10.234C18.4336 10.3027 18.5099 10.3695 18.5678 10.4183C18.5851 10.4329 18.6006 10.4457 18.6138 10.4564C18.6206 10.4376 18.6288 10.415 18.6378 10.3895C18.6643 10.3152 18.6988 10.2169 18.733 10.1183C18.7672 10.0196 18.8011 9.92084 18.8264 9.84547C18.8353 9.81894 18.8432 9.79541 18.8496 9.77586C18.8404 9.77746 18.83 9.77946 18.8181 9.78189C18.741 9.79767 18.6142 9.82952 18.4163 9.8823Z" fill="#6A1B9A" stroke="#6A1B9A" stroke-width="0.1"/>
<path d="M11.6926 7.12618L11.6923 7.12631C11.59 7.17824 11.5125 7.24594 11.4585 7.33921C11.4051 7.43156 11.3768 7.54524 11.3662 7.6857L11.3662 7.68613L11.3534 7.87756L11.1154 7.99922C11.1153 7.99926 11.1153 7.9993 11.1152 7.99934C10.9679 8.07298 10.7959 8.17074 10.7287 8.2165L10.7275 8.21736L10.7275 8.21738C10.6973 8.23936 10.6657 8.25855 10.6398 8.27204C10.6267 8.2788 10.6158 8.28379 10.6076 8.28695C10.6049 8.28799 10.6028 8.28868 10.6014 8.28914C10.5985 8.28834 10.5945 8.28712 10.5894 8.28537C10.5775 8.28127 10.5616 8.27508 10.5428 8.26709C10.5053 8.25118 10.4582 8.22907 10.4109 8.2047C10.336 8.16507 10.2813 8.13963 10.2255 8.1267C10.1688 8.11359 10.1143 8.11411 10.0412 8.12007M11.6926 7.12618L9.00789 9.43555C9.02254 9.38281 9.17782 9.10742 9.35067 8.82617L9.30791 8.80026C9.30794 8.80021 9.30796 8.80016 9.30799 8.80012C9.48238 8.51237 9.58863 8.34655 9.68875 8.25188C9.74053 8.20292 9.79162 8.17186 9.8501 8.15216C9.90727 8.13289 9.96941 8.12525 10.0412 8.12007M11.6926 7.12618C11.7571 7.09392 11.8059 7.07686 11.9165 7.06831C12.0233 7.06007 12.192 7.05938 12.4972 7.05938C12.8025 7.05938 12.9718 7.0608 13.0797 7.06942C13.1912 7.07833 13.2409 7.09526 13.3063 7.12553L13.3063 7.12552L13.3073 7.12604C13.4101 7.17662 13.4877 7.24451 13.5417 7.33819C13.5951 7.43089 13.6234 7.54528 13.6339 7.6857L13.634 7.68613L13.6467 7.87756L13.8847 7.99922C13.8848 7.99926 13.8849 7.9993 13.885 7.99934C14.0322 8.07298 14.2043 8.17074 14.2714 8.2165L14.2714 8.21648L14.2727 8.21738C14.3029 8.23936 14.3343 8.25844 14.3607 8.2718C14.3739 8.27849 14.3852 8.2834 14.3939 8.28652C14.3977 8.28787 14.4005 8.28868 14.4023 8.28915C14.4054 8.28828 14.4103 8.28677 14.4174 8.28428C14.4296 8.28 14.4453 8.27391 14.4633 8.2663C14.4993 8.25113 14.5433 8.23058 14.5857 8.20795C14.8596 8.05866 15.1541 8.08706 15.351 8.28705M11.6926 7.12618L11.3534 13.3724L11.3662 13.5639L11.3662 13.5643C11.3768 13.7047 11.405 13.8191 11.4585 13.9118C11.5125 14.0055 11.5901 14.0734 11.6928 14.124L11.6939 14.1245L11.6939 14.1245C11.7592 14.1547 11.8089 14.1717 11.92 14.1806C12.0276 14.1892 12.1962 14.1906 12.5001 14.1906C12.8039 14.1906 12.9726 14.1892 13.0801 14.1806C13.1913 14.1717 13.241 14.1547 13.3063 14.1245L13.3073 14.124L13.3073 14.124C13.4101 14.0734 13.4877 14.0055 13.5417 13.9118C13.5951 13.8191 13.6234 13.7047 13.6339 13.5643L13.634 13.5639L13.6467 13.3724L13.8847 13.2508C13.8848 13.2507 13.8849 13.2507 13.8849 13.2507C14.0314 13.1775 14.2036 13.0797 14.272 13.0302C14.3024 13.0095 14.3338 12.9911 14.3602 12.9781C14.3736 12.9715 14.3849 12.9666 14.3938 12.9635C14.3976 12.9621 14.4004 12.9613 14.4023 12.9608C14.4054 12.9617 14.4103 12.9632 14.4174 12.9657C14.4296 12.97 14.4453 12.9761 14.4633 12.9837C14.4993 12.9989 14.5433 13.0194 14.5857 13.0421C14.8597 13.1914 15.1543 13.1629 15.3512 12.9628L15.3155 12.9277M10.0412 8.12007C10.0413 8.12006 10.0413 8.12006 10.0414 8.12005L10.045 8.16992L10.0409 8.12009C10.041 8.12008 10.0411 8.12007 10.0412 8.12007ZM15.3155 12.9277L15.3509 12.9631C15.3667 12.9472 15.3887 12.9184 15.4134 12.8835C15.4389 12.8476 15.4695 12.802 15.5033 12.7502C15.5708 12.6465 15.6516 12.5168 15.73 12.3871C15.8084 12.2573 15.8846 12.127 15.943 12.0222C15.9721 11.9698 15.997 11.9235 16.0156 11.8865C16.0331 11.8516 16.0477 11.82 16.0526 11.7999L16.0527 11.7994C16.1149 11.5309 15.9679 11.2742 15.6803 11.109L15.6798 11.1087L15.5589 11.041V10.625V10.209L15.6798 10.1413L15.6803 10.141C15.9679 9.97576 16.1149 9.71914 16.0527 9.45063L16.0526 9.4501C16.0477 9.43 16.0331 9.39836 16.0156 9.36347C15.997 9.32652 15.9721 9.28016 15.943 9.22779C15.8846 9.12299 15.8084 8.99272 15.73 8.86295C15.6516 8.73316 15.5708 8.60347 15.5033 8.49982C15.4695 8.44802 15.4389 8.40243 15.4134 8.36647C15.3888 8.3317 15.3669 8.30295 15.351 8.28705M15.3155 12.9277C15.1368 13.1094 14.8673 13.1387 14.6095 12.998M15.3155 12.9277L14.6095 12.998M15.351 8.28705C15.3511 8.2871 15.3511 8.28715 15.3512 8.2872L15.3155 8.32227L15.3509 8.28691C15.3509 8.28696 15.351 8.28701 15.351 8.28705ZM14.6095 12.998C14.5216 12.9512 14.4278 12.9131 14.4044 12.9102C14.378 12.9102 14.3077 12.9453 14.2432 12.9893L14.6095 12.998ZM15.0372 10.5811L14.9872 10.5807C14.9887 10.3832 14.9916 10.2517 14.9991 10.1602C15.0065 10.0691 15.0189 10.0119 15.0426 9.96619L15.0428 9.96592C15.105 9.84797 15.2496 9.72475 15.4093 9.64036L15.4093 9.64035L15.4103 9.63985C15.4404 9.6248 15.4661 9.60884 15.4835 9.59547C15.4861 9.59351 15.4884 9.59168 15.4904 9.59001C15.4876 9.58442 15.4843 9.57781 15.4804 9.57021C15.4666 9.54338 15.4463 9.50616 15.421 9.46117C15.3704 9.37129 15.3004 9.25167 15.223 9.12465L15.2229 9.12441C15.1233 8.95901 15.0502 8.84403 14.9977 8.77071C14.9712 8.73387 14.9511 8.70916 14.9363 8.69412C14.9317 8.6894 14.9281 8.68616 14.9254 8.684C14.9222 8.6847 14.9177 8.6858 14.9118 8.68753C14.8988 8.69133 14.8823 8.69709 14.8633 8.70459C14.8253 8.71958 14.7796 8.74067 14.736 8.76454L14.736 8.76455L14.7351 8.76502C14.5984 8.83643 14.4779 8.87061 14.3509 8.85836C14.2251 8.84623 14.0998 8.78912 13.9521 8.69219L13.9521 8.69221L13.9508 8.69128C13.875 8.63798 13.6907 8.53698 13.541 8.46065C13.373 8.37662 13.2603 8.30262 13.1873 8.20183C13.1136 8.10023 13.0848 7.97779 13.0685 7.80851L13.0684 7.80786L13.0546 7.6421L12.5053 7.63398C12.5053 7.63398 12.5053 7.63398 12.5053 7.63398C12.2751 7.63105 12.1279 7.63108 12.0374 7.63539C11.9917 7.63757 11.9631 7.64074 11.9464 7.64438C11.9462 7.64442 11.946 7.64445 11.9459 7.64449C11.9455 7.64638 11.9451 7.64852 11.9447 7.65095C11.9425 7.66352 11.9401 7.6801 11.9378 7.69972C11.9332 7.73887 11.9289 7.78839 11.926 7.83879L11.926 7.83879L11.9259 7.83985C11.9139 7.99343 11.884 8.10927 11.8093 8.2078C11.7358 8.30493 11.623 8.37943 11.4591 8.46069C11.31 8.53672 11.1279 8.63799 11.0487 8.69176L11.048 8.69219C10.9004 8.78912 10.7751 8.84623 10.6493 8.85836C10.5223 8.87061 10.4018 8.83643 10.265 8.76502L10.265 8.76503L10.2641 8.76454C10.2206 8.74067 10.1749 8.71958 10.1369 8.70459C10.1179 8.69709 10.1013 8.69133 10.0883 8.68753C10.0824 8.6858 10.0779 8.6847 10.0748 8.684C10.0721 8.68616 10.0685 8.6894 10.0638 8.69412C10.049 8.70916 10.0289 8.73387 10.0025 8.77071C9.94993 8.84403 9.87683 8.95901 9.7773 9.12441L9.77716 9.12465C9.69977 9.25167 9.62976 9.37129 9.57918 9.46117C9.55386 9.50616 9.53359 9.54338 9.51975 9.57021C9.51583 9.57781 9.51251 9.58442 9.50979 9.59001C9.51178 9.59168 9.51405 9.59351 9.51662 9.59547C9.53402 9.60884 9.55972 9.6248 9.58982 9.63985L9.58983 9.63984L9.59082 9.64036C9.75056 9.72475 9.89513 9.84797 9.95739 9.96592L9.95753 9.96619C9.98128 10.0119 9.99362 10.0691 10.0011 10.1602C10.0086 10.2517 10.0115 10.3832 10.013 10.5807L9.96297 10.5811M15.0372 10.5811L14.9872 10.5805C14.9857 10.7174 14.9872 10.8529 14.9909 10.9611C14.9927 11.0151 14.9951 11.0627 14.9981 11.1003C15.0008 11.1356 15.0042 11.1665 15.0093 11.1853M15.0372 10.5811C15.0343 10.8535 15.043 11.1201 15.0577 11.1729M15.0372 10.5811C15.0401 10.1855 15.0489 10.0625 15.087 9.98926L15.0577 11.1729M15.0093 11.1853C15.0464 11.3391 15.1772 11.4771 15.3674 11.5828L15.3675 11.5828C15.4084 11.6054 15.4452 11.6291 15.4711 11.6486C15.4785 11.6541 15.4846 11.6591 15.4895 11.6633C15.487 11.6684 15.484 11.6742 15.4805 11.6808C15.4667 11.7073 15.4464 11.7443 15.421 11.7891C15.3704 11.8787 15.3004 11.9983 15.223 12.1254L15.2229 12.1256C15.1233 12.291 15.0502 12.406 14.9977 12.4793C14.9712 12.5161 14.9511 12.5408 14.9363 12.5559C14.9318 12.5605 14.9282 12.5637 14.9256 12.5659C14.9225 12.5651 14.9182 12.564 14.9126 12.5622C14.8995 12.5582 14.8828 12.5521 14.8635 12.5442C14.8249 12.5284 14.7781 12.5064 14.7325 12.4822L14.7325 12.4822C14.6081 12.4162 14.4905 12.3842 14.3699 12.3915C14.2496 12.3988 14.1315 12.4447 14.0054 12.5252L14.0049 12.5256L14.0049 12.5256C13.9133 12.5857 13.7129 12.699 13.5558 12.7775L13.5553 12.7778L13.5553 12.7778C13.3717 12.8725 13.254 12.9447 13.1812 13.0462C13.1077 13.1488 13.0846 13.2749 13.0684 13.4624C13.0684 13.4624 13.0684 13.4625 13.0684 13.4625L13.0551 13.6072H12.5001H11.9455L11.9317 13.4421L11.9317 13.4415L11.9317 13.4415C11.9154 13.2722 11.8865 13.1498 11.8129 13.0482C11.7399 12.9474 11.6272 12.8734 11.4591 12.7894C11.31 12.7133 11.1279 12.612 11.0487 12.5582L11.048 12.5578L11.048 12.5578C10.9004 12.4609 10.7751 12.4038 10.6493 12.3916C10.5223 12.3794 10.4018 12.4135 10.2651 12.4849C10.2209 12.5077 10.1748 12.529 10.1365 12.5445C10.1173 12.5522 10.1007 12.5582 10.0877 12.5623C10.082 12.564 10.0777 12.5651 10.0746 12.5659C10.072 12.5637 10.0684 12.5605 10.0638 12.5559C10.049 12.5408 10.0289 12.5161 10.0025 12.4793C9.94993 12.406 9.87683 12.291 9.7773 12.1256L9.77716 12.1254C9.69978 11.9983 9.62974 11.8787 9.57913 11.7891C9.5538 11.7443 9.5335 11.7073 9.51961 11.6808C9.51617 11.6742 9.51319 11.6684 9.51065 11.6633C9.51556 11.6591 9.52169 11.6541 9.52907 11.6486C9.55499 11.6291 9.59174 11.6054 9.63263 11.5828L9.63276 11.5828C9.82298 11.4771 9.95381 11.339 9.99091 11.1853C9.99593 11.1665 9.99938 11.1356 10.0021 11.1003C10.005 11.0627 10.0074 11.0151 10.0093 10.9611C10.013 10.8529 10.0144 10.7174 10.013 10.5805L9.96297 10.5811M15.0093 11.1853C15.0092 11.185 15.0091 11.1847 15.0091 11.1845L15.0577 11.1729M15.0093 11.1853C15.0093 11.1856 15.0094 11.1859 15.0095 11.1862L15.0577 11.1729M9.96297 10.5811C9.96004 10.1855 9.95125 10.0625 9.91317 9.98926M9.96297 10.5811C9.9659 10.8535 9.95711 11.1201 9.94246 11.1729L9.91317 9.98926M9.91317 9.98926C9.8575 9.88379 9.72274 9.7666 9.56746 9.68457C9.50301 9.65234 9.45321 9.61426 9.45321 9.59668C9.45321 9.5791 9.57918 9.35352 9.73446 9.09863C9.93367 8.76758 10.0304 8.63281 10.0684 8.63281C10.0977 8.63281 10.1973 8.6709 10.2882 8.7207C10.5518 8.8584 10.7305 8.84082 11.0206 8.65039L9.91317 9.98926ZM9.31987 10.141C9.02001 9.96959 8.8751 9.69972 8.95991 9.42147L8.99324 11.7617C8.95516 11.5127 9.06942 11.3135 9.33309 11.1611L9.30736 11.1183C9.30748 11.1182 9.3076 11.1181 9.30772 11.118C9.34446 11.096 9.37968 11.0755 9.40593 11.0601L9.40604 11.0601L9.43042 11.0458C9.43063 11.0428 9.43086 11.0394 9.43108 11.0356C9.43246 11.0129 9.43381 10.98 9.43509 10.9391C9.43764 10.8576 9.43983 10.746 9.44129 10.6247V10.2114L9.32 10.1411C9.31996 10.141 9.31992 10.141 9.31987 10.141ZM10.4129 13.0429C10.126 13.1877 9.84649 13.1634 9.64915 12.9629L10.7287 13.0306C10.7285 13.0304 10.7283 13.0303 10.7281 13.0302C10.6975 13.0093 10.6666 12.9908 10.6411 12.9777C10.6282 12.9711 10.6174 12.9662 10.6092 12.9632C10.6059 12.9619 10.6035 12.9612 10.602 12.9607C10.5991 12.9615 10.5952 12.9627 10.59 12.9645C10.5783 12.9686 10.5628 12.9747 10.5442 12.9826C10.5073 12.9982 10.4607 13.0197 10.4129 13.0429ZM9.50173 9.60786C9.50123 9.60926 9.50139 9.60909 9.50176 9.60778L9.50173 9.60786ZM13.9796 8.65039C14.2696 8.84082 14.4483 8.8584 14.712 8.7207C14.8028 8.6709 14.9024 8.63281 14.9317 8.63281C14.9698 8.63281 15.0665 8.76758 15.2657 9.09863C15.421 9.35352 15.547 9.5791 15.547 9.59668L13.9796 8.65039ZM15.4984 9.60786L15.4984 9.60778L15.4984 9.60786Z" fill="#6A1B9A" stroke="#6A1B9A" stroke-width="0.1"/>
<path d="M12.9532 11.6433L12.9531 11.6433C12.8641 11.6857 12.8133 11.7067 12.7551 11.7182C12.6958 11.7299 12.6266 11.7322 12.5 11.7322C12.3734 11.7322 12.3042 11.7299 12.2449 11.7182C12.1867 11.7067 12.1359 11.6857 12.0469 11.6433L12.0468 11.6433C11.7842 11.5191 11.6227 11.363 11.4961 11.1069C11.4445 11.0007 11.4202 10.9467 11.4074 10.8876C11.3944 10.8279 11.3928 10.761 11.3928 10.6279C11.3928 10.4998 11.3951 10.4299 11.4068 10.3702C11.4184 10.3117 11.4393 10.2609 11.4817 10.1719L11.4818 10.1717C11.5949 9.93126 11.7547 9.7584 11.9635 9.64983L11.9641 9.6495L11.9641 9.64949C12.0765 9.58899 12.1613 9.55322 12.2492 9.53339L12.9532 11.6433ZM12.9532 11.6433C13.2158 11.5191 13.3773 11.363 13.5039 11.1069C13.5555 11.0007 13.5798 10.9467 13.5926 10.8873C13.6056 10.8272 13.6072 10.7595 13.6072 10.625C13.6072 10.4905 13.6056 10.4228 13.5926 10.3627C13.5798 10.3033 13.5556 10.2493 13.504 10.1432M12.9532 11.6433L13.504 10.1432M13.504 10.1432C13.377 9.88934 13.2152 9.72788 12.9595 9.60985C12.819 9.54523 12.7345 9.52328 12.5621 9.51479C12.5621 9.51479 12.562 9.51479 12.562 9.51478L13.504 10.1432ZM12.1533 8.96757L12.1534 8.96756C12.5351 8.89182 13.0308 8.97931 13.3835 9.18431L13.3835 9.18431L13.3839 9.18455C13.4833 9.24356 13.6034 9.34834 13.7107 9.46158C13.818 9.57475 13.9166 9.7008 13.9709 9.80473C14.0509 9.95572 14.1028 10.0748 14.1342 10.2001C14.1656 10.3255 14.176 10.4546 14.176 10.625C14.176 11.1065 14.0216 11.4856 13.6897 11.8146C13.3606 12.1466 12.9815 12.301 12.5 12.301C12.0185 12.301 11.6394 12.1466 11.3103 11.8147C10.9784 11.4856 10.824 11.1065 10.824 10.625C10.824 10.1373 10.9786 9.76418 11.3162 9.42656C11.5248 9.21798 11.8792 9.02239 12.1533 8.96757Z" fill="#6A1B9A" stroke="#6A1B9A" stroke-width="0.1"/>
<path d="M10.1408 14.3656L10.1408 14.3656C10.0569 14.393 9.95245 14.4752 9.86625 14.564C9.78002 14.6528 9.70031 14.7604 9.67474 14.8472M10.1408 14.3656L9.72269 14.8614M10.1408 14.3656L10.1414 14.3654C10.2849 14.3207 10.4225 14.313 10.5526 14.3456C10.6826 14.3782 10.8016 14.4502 10.9094 14.5595M10.1408 14.3656L10.8741 14.5948M9.67474 14.8472C9.67473 14.8472 9.67473 14.8472 9.67472 14.8473L9.72269 14.8614M9.67474 14.8472C9.67475 14.8472 9.67476 14.8471 9.67477 14.8471L9.72269 14.8614M9.67474 14.8472C9.63173 14.9916 9.62464 15.1249 9.65787 15.2506C9.69105 15.3762 9.76331 15.4898 9.87194 15.597M9.72269 14.8614C9.64065 15.1368 9.69925 15.3565 9.90726 15.5616C10.2061 15.8633 10.6192 15.8575 10.8975 15.5469C11.17 15.2452 11.1612 14.879 10.8741 14.5948M9.87194 15.597C9.87187 15.5969 9.8718 15.5968 9.87173 15.5968L9.90725 15.5616L9.87215 15.5972C9.87208 15.5971 9.87201 15.597 9.87194 15.597ZM9.87194 15.597C10.0297 15.7562 10.2203 15.8367 10.4108 15.8339C10.6015 15.8311 10.7872 15.7449 10.9347 15.5804M10.9347 15.5804C10.9346 15.5804 10.9346 15.5804 10.9346 15.5804L10.8975 15.5469L10.9347 15.5803C10.9347 15.5803 10.9347 15.5803 10.9347 15.5804ZM10.9347 15.5804C11.0779 15.4217 11.15 15.2427 11.1456 15.063C11.1412 14.8833 11.0605 14.709 10.9094 14.5595M10.9094 14.5595C10.9095 14.5595 10.9096 14.5596 10.9097 14.5597L10.8741 14.5948M10.9094 14.5595C10.9094 14.5594 10.9093 14.5593 10.9092 14.5592L10.8741 14.5948M10.5168 14.9528L10.5168 14.9528L10.5153 14.9512C10.4802 14.9138 10.4316 14.8938 10.3907 14.8938C10.3497 14.8938 10.3011 14.9138 10.266 14.9512L10.2661 14.9513L10.2637 14.9535C10.2263 14.9886 10.2063 15.0372 10.2063 15.0782C10.2063 15.1192 10.2263 15.1677 10.2637 15.2028L10.2638 15.2028L10.266 15.2051C10.3011 15.2425 10.3497 15.2626 10.3907 15.2626C10.5508 15.2626 10.6314 15.0651 10.5168 14.9528Z" fill="#6A1B9A" stroke="#6A1B9A" stroke-width="0.1"/>
<path d="M14.3595 14.3656L14.3595 14.3656C14.2757 14.393 14.1712 14.4752 14.085 14.564C13.9988 14.6528 13.9191 14.7604 13.8935 14.8472M14.3595 14.3656L13.9414 14.8614M14.3595 14.3656L14.3601 14.3654C14.5037 14.3207 14.6413 14.313 14.7713 14.3456C14.9013 14.3782 15.0204 14.4502 15.1282 14.5595M14.3595 14.3656L15.0928 14.5948M13.8935 14.8472C13.8935 14.8472 13.8935 14.8472 13.8935 14.8473L13.9414 14.8614M13.8935 14.8472C13.8935 14.8472 13.8935 14.8471 13.8935 14.8471L13.9414 14.8614M13.8935 14.8472C13.8505 14.9916 13.8434 15.1249 13.8766 15.2506C13.9098 15.3762 13.9821 15.4898 14.0907 15.597M13.9414 14.8614C13.8594 15.1368 13.918 15.3565 14.126 15.5616C14.4248 15.8633 14.8379 15.8575 15.1162 15.5469C15.3887 15.2452 15.3799 14.879 15.0928 14.5948M14.0907 15.597C14.0906 15.5969 14.0905 15.5968 14.0905 15.5968L14.126 15.5616L14.0909 15.5972C14.0908 15.5971 14.0908 15.597 14.0907 15.597ZM14.0907 15.597C14.2484 15.7562 14.439 15.8367 14.6295 15.8339C14.8202 15.8311 15.0059 15.7449 15.1534 15.5804M15.1534 15.5804C15.1534 15.5804 15.1534 15.5804 15.1534 15.5804L15.1162 15.5469L15.1535 15.5803C15.1535 15.5803 15.1534 15.5803 15.1534 15.5804ZM15.1534 15.5804C15.2966 15.4217 15.3687 15.2427 15.3643 15.063C15.36 14.8833 15.2792 14.709 15.1282 14.5595M15.1282 14.5595C15.1283 14.5595 15.1283 14.5596 15.1284 14.5597L15.0928 14.5948M15.1282 14.5595C15.1281 14.5594 15.128 14.5593 15.128 14.5592L15.0928 14.5948M14.7355 14.9528L14.7355 14.9528L14.7341 14.9512C14.699 14.9138 14.6504 14.8938 14.6094 14.8938C14.565 14.8938 14.5186 14.9152 14.4825 14.9513C14.4465 14.9874 14.425 15.0338 14.425 15.0782C14.425 15.1225 14.4465 15.169 14.4825 15.2051C14.5186 15.2411 14.565 15.2626 14.6094 15.2626C14.7695 15.2626 14.8502 15.0651 14.7355 14.9528Z" fill="#6A1B9A" stroke="#6A1B9A" stroke-width="0.1"/>
<path d="M11.5625 19.5813H11.5125V19.5312V17.9404V16.3705L11.3372 16.198C11.3372 16.1979 11.3371 16.1979 11.3371 16.1979C11.2835 16.1458 11.235 16.0943 11.1996 16.0536C11.1819 16.0333 11.1671 16.0152 11.1564 16.0007C11.1511 15.9935 11.1462 15.9864 11.1423 15.9799C11.1404 15.9766 11.1383 15.9726 11.1364 15.9682C11.1351 15.965 11.1316 15.9563 11.1316 15.9453C11.1316 15.9315 11.1368 15.9199 11.1391 15.9149C11.1423 15.9082 11.1463 15.9014 11.1504 15.895C11.1587 15.8821 11.17 15.8669 11.1831 15.8509C11.2093 15.8185 11.2449 15.7791 11.284 15.74C11.3228 15.7012 11.3621 15.6649 11.3943 15.6381C11.4103 15.6248 11.4253 15.6131 11.4382 15.6045C11.4446 15.6002 11.4514 15.596 11.4581 15.5928C11.463 15.5904 11.4749 15.5848 11.4893 15.5848C11.5017 15.5848 11.5115 15.5892 11.5147 15.5907C11.5195 15.5929 11.524 15.5955 11.5277 15.5979C11.5353 15.6027 11.5438 15.609 11.5527 15.6161C11.5708 15.6303 11.5939 15.6504 11.6203 15.6743C11.6732 15.7223 11.7412 15.7882 11.812 15.8604C11.812 15.8605 11.8121 15.8605 11.8121 15.8605L12.0668 16.1182L12.0813 16.1328V16.1533V17.8438V19.5312V19.5813H12.0312H11.7969H11.5625Z" fill="#6A1B9A" stroke="#6A1B9A" stroke-width="0.1"/>
<path d="M12.9187 16.1533V16.1328L12.9332 16.1182L13.1879 15.8605C13.1879 15.8605 13.188 15.8605 13.188 15.8604C13.2587 15.7883 13.3259 15.7225 13.378 15.6745C13.4039 15.6506 13.4267 15.6306 13.4445 15.6163C13.4533 15.6093 13.4617 15.6029 13.4692 15.5981C13.4729 15.5957 13.4774 15.593 13.4822 15.5908C13.4855 15.5892 13.4953 15.5848 13.5078 15.5848C13.5217 15.5848 13.5333 15.5897 13.5391 15.5924C13.5463 15.5958 13.5535 15.6 13.5603 15.6044C13.5738 15.6133 13.5893 15.6252 13.6055 15.6385C13.638 15.6654 13.6767 15.7011 13.7136 15.7377C13.7506 15.7742 13.7867 15.8125 13.8138 15.8448C13.8273 15.8608 13.8394 15.8762 13.8483 15.8897C13.8528 15.8964 13.8571 15.9036 13.8605 15.9108C13.8633 15.9167 13.8684 15.9284 13.8684 15.9424C13.8684 15.9523 13.8657 15.9603 13.8642 15.9642C13.8624 15.9689 13.8603 15.9732 13.8583 15.9767C13.8544 15.9838 13.8494 15.9914 13.8441 15.9988C13.8332 16.014 13.8182 16.0325 13.8006 16.053C13.7651 16.0942 13.7165 16.1458 13.6629 16.1979C13.6629 16.1979 13.6628 16.1979 13.6628 16.198L13.4875 16.3705V17.9404V19.5312V19.5813H13.4375H13.2031H12.9688H12.9187V19.5312V17.8438V16.1533Z" fill="#6A1B9A" stroke="#6A1B9A" stroke-width="0.1"/>
<path d="M8.03412 16.4878C8.05968 16.4009 8.13939 16.2934 8.22563 16.2046C8.31183 16.1158 8.41629 16.0336 8.50013 16.0062L8.50013 16.0062L8.08206 16.502M8.03412 16.4878C8.03411 16.4878 8.0341 16.4878 8.03409 16.4878L8.08206 16.502M8.03412 16.4878C8.03412 16.4877 8.03413 16.4877 8.03414 16.4877L8.08206 16.502M8.03412 16.4878C7.9911 16.6322 7.98402 16.7655 8.01724 16.8912C8.05043 17.0167 8.12269 17.1304 8.23131 17.2375M8.08206 16.502C8.00003 16.7773 8.05862 16.9971 8.26663 17.2021M8.23131 17.2375C8.23124 17.2375 8.23117 17.2374 8.2311 17.2373L8.26663 17.2021M8.23131 17.2375C8.23138 17.2376 8.23146 17.2377 8.23153 17.2378L8.26663 17.2021M8.23131 17.2375L8.26663 17.2021M9.26878 17.2375C9.26872 17.2376 9.26867 17.2376 9.26861 17.2377L9.23343 17.2021L9.26896 17.2373C9.2689 17.2374 9.26884 17.2374 9.26878 17.2375ZM9.26882 16.2C9.26889 16.2001 9.26896 16.2002 9.26903 16.2002L9.23343 16.2354L9.26861 16.1998C9.26868 16.1999 9.26875 16.2 9.26882 16.2ZM8.87617 16.5933L8.87613 16.5934L8.87468 16.5918C8.8396 16.5544 8.79102 16.5344 8.75003 16.5344C8.70903 16.5344 8.66046 16.5544 8.62537 16.5918L8.62545 16.5919L8.62309 16.5941C8.58566 16.6292 8.56565 16.6778 8.56565 16.7188C8.56565 16.7597 8.58566 16.8083 8.62309 16.8434L8.62316 16.8433L8.62537 16.8457C8.66046 16.8831 8.70903 16.9031 8.75003 16.9031C8.91016 16.9031 8.99078 16.7056 8.87617 16.5933Z" fill="#6A1B9A" stroke="#6A1B9A" stroke-width="0.1"/>
<path d="M16.0001 16.0061L16.0001 16.0062C15.9163 16.0335 15.8118 16.1157 15.7256 16.2045C15.6394 16.2934 15.5597 16.4009 15.5341 16.4877M16.0001 16.0061L15.5821 16.5019M16.0001 16.0061L16.0008 16.0059C16.1443 15.9612 16.2819 15.9535 16.412 15.9861C16.5419 16.0187 16.661 16.0907 16.7688 16.2M16.0001 16.0061L16.7334 16.2353M15.5341 16.4877C15.5341 16.4878 15.5341 16.4878 15.5341 16.4878L15.5821 16.5019M15.5341 16.4877C15.5341 16.4877 15.5341 16.4877 15.5341 16.4877L15.5821 16.5019M15.5341 16.4877C15.4911 16.6322 15.484 16.7655 15.5172 16.8912C15.5504 17.0167 15.6227 17.1303 15.7313 17.2375M15.5821 16.5019C15.5 16.7773 15.5586 16.997 15.7666 17.2021M15.7313 17.2375C15.7312 17.2374 15.7311 17.2373 15.731 17.2372L15.7666 17.2021M15.7313 17.2375C15.8384 17.3461 15.9521 17.4183 16.0776 17.4515C16.2033 17.4847 16.3366 17.4776 16.4811 17.4346L16.4668 17.3867M15.7313 17.2375C15.7314 17.2376 15.7314 17.2376 15.7315 17.2377L15.7666 17.2021M15.7666 17.2021L16.4668 17.3867M16.4668 17.3867L16.4808 17.4347C16.5734 17.4077 16.6818 17.3282 16.7706 17.2393C16.8594 17.1505 16.939 17.0423 16.966 16.9496M16.4668 17.3867C16.628 17.3398 16.8711 17.0967 16.918 16.9355C17 16.6601 16.9414 16.4404 16.7334 16.2353M16.966 16.9496C16.9659 16.9497 16.9659 16.9497 16.9659 16.9498L16.918 16.9355L16.966 16.9495C16.966 16.9495 16.966 16.9496 16.966 16.9496ZM16.966 16.9496C17.009 16.8052 17.016 16.672 16.9828 16.5463C16.9496 16.4207 16.8774 16.3071 16.7688 16.2M16.7688 16.2C16.7689 16.2001 16.7689 16.2001 16.769 16.2002L16.7334 16.2353M16.7688 16.2C16.7687 16.1999 16.7686 16.1998 16.7685 16.1997L16.7334 16.2353M16.3762 16.5933L16.3761 16.5933L16.3747 16.5918C16.3396 16.5544 16.291 16.5343 16.25 16.5343C16.2057 16.5343 16.1592 16.5558 16.1232 16.5918C16.0871 16.6279 16.0657 16.6744 16.0657 16.7187C16.0657 16.7631 16.0871 16.8095 16.1232 16.8456C16.1592 16.8817 16.2057 16.9031 16.25 16.9031C16.4102 16.9031 16.4908 16.7056 16.3762 16.5933Z" fill="#6A1B9A" stroke="#6A1B9A" stroke-width="0.1"/>
<path d="M9.92188 19.5813H9.87187V19.5312V18.7607V18.0112L9.69659 17.8386C9.69655 17.8385 9.69651 17.8385 9.69647 17.8385C9.6429 17.7864 9.59436 17.7349 9.55896 17.6942C9.54132 17.6739 9.52645 17.6558 9.51574 17.6413C9.51045 17.6342 9.50553 17.627 9.50171 17.6205C9.49982 17.6173 9.49765 17.6133 9.49582 17.6088C9.49449 17.6056 9.49102 17.597 9.49102 17.5859C9.49102 17.5721 9.49618 17.5605 9.49852 17.5555C9.50166 17.5488 9.50566 17.542 9.50978 17.5356C9.51811 17.5227 9.52942 17.5076 9.54244 17.4915C9.56863 17.4591 9.60427 17.4197 9.64336 17.3807C9.68221 17.3418 9.72143 17.3056 9.75364 17.2787C9.76963 17.2654 9.78469 17.2537 9.79756 17.2451C9.80393 17.2408 9.81073 17.2367 9.81747 17.2334C9.82237 17.231 9.83427 17.2254 9.84863 17.2254C9.86106 17.2254 9.87083 17.2298 9.87409 17.2313C9.87888 17.2335 9.88334 17.2361 9.88707 17.2385C9.89464 17.2433 9.90319 17.2497 9.91212 17.2567C9.93019 17.271 9.95331 17.291 9.97967 17.3149C10.0325 17.3629 10.1006 17.4288 10.1714 17.5011C10.1714 17.5011 10.1714 17.5011 10.1715 17.5011L10.4262 17.7588L10.4406 17.7734V17.7939V18.6641V19.5312V19.5813H10.3906H10.1562H9.92188Z" fill="#6A1B9A" stroke="#6A1B9A" stroke-width="0.1"/>
<path d="M14.5594 17.7939V17.7734L14.5738 17.7588L14.8285 17.5011C14.8286 17.5011 14.8286 17.5011 14.8286 17.5011C14.8993 17.4289 14.9665 17.3631 15.0186 17.3152C15.0446 17.2912 15.0673 17.2712 15.0851 17.257C15.0939 17.2499 15.1023 17.2435 15.1098 17.2387C15.1135 17.2363 15.118 17.2336 15.1228 17.2314C15.1261 17.2299 15.1359 17.2254 15.1484 17.2254C15.1623 17.2254 15.1739 17.2303 15.1797 17.233C15.187 17.2364 15.1942 17.2407 15.2009 17.2451C15.2144 17.2539 15.2299 17.2658 15.2461 17.2791C15.2787 17.306 15.3173 17.3417 15.3543 17.3783C15.3912 17.4148 15.4273 17.4532 15.4545 17.4854C15.468 17.5015 15.48 17.5169 15.489 17.5303C15.4934 17.537 15.4978 17.5442 15.5012 17.5515C15.5039 17.5573 15.509 17.569 15.509 17.583C15.509 17.5929 15.5063 17.6009 15.5048 17.6049C15.503 17.6096 15.5009 17.6138 15.499 17.6174C15.4951 17.6244 15.4901 17.632 15.4847 17.6395C15.4739 17.6546 15.4589 17.6732 15.4412 17.6937C15.4057 17.7348 15.3571 17.7864 15.3035 17.8385C15.3035 17.8385 15.3034 17.8385 15.3034 17.8386L15.1281 18.0112V18.7607V19.5312V19.5813H15.0781H14.8438H14.6094H14.5594V19.5312V18.6641V17.7939Z" fill="#6A1B9A" stroke="#6A1B9A" stroke-width="0.1"/>
</g>
<defs>
<clipPath id="clip0_216_1589">
<rect width="15" height="15" fill="white" transform="translate(5 5)"/>
</clipPath>
</defs>
</svg>
