<svg width="11" height="7" viewBox="0 0 11 7" fill="none" xmlns="http://www.w3.org/2000/svg">
<path fill-rule="evenodd" clip-rule="evenodd" d="M0.337369 0.774869C0.375106 0.737036 0.419936 0.70702 0.469292 0.686539C0.518647 0.666059 0.571558 0.655518 0.624994 0.655518C0.67843 0.655518 0.731341 0.666059 0.780696 0.686539C0.830052 0.70702 0.874882 0.737036 0.912619 0.774869L5.49999 5.36306L10.0874 0.774869C10.1251 0.737097 10.17 0.707135 10.2193 0.686693C10.2687 0.666252 10.3216 0.65573 10.375 0.65573C10.4284 0.65573 10.4813 0.666252 10.5307 0.686693C10.58 0.707135 10.6248 0.737097 10.6626 0.774869C10.7004 0.81264 10.7304 0.857481 10.7508 0.906832C10.7712 0.956183 10.7818 1.00908 10.7818 1.06249C10.7818 1.11591 10.7712 1.1688 10.7508 1.21816C10.7304 1.26751 10.7004 1.31235 10.6626 1.35012L5.78762 6.22512C5.74988 6.26295 5.70505 6.29297 5.6557 6.31345C5.60634 6.33393 5.55343 6.34447 5.49999 6.34447C5.44656 6.34447 5.39365 6.33393 5.34429 6.31345C5.29494 6.29297 5.25011 6.26295 5.21237 6.22512L0.337369 1.35012C0.299536 1.31238 0.26952 1.26755 0.24904 1.2182C0.22856 1.16884 0.218018 1.11593 0.218018 1.06249C0.218018 1.00906 0.22856 0.956147 0.24904 0.906791C0.26952 0.857436 0.299536 0.812606 0.337369 0.774869Z" fill="#637B90"/>
</svg>
