<svg width="15" height="15" viewBox="0 0 15 15" fill="none" xmlns="http://www.w3.org/2000/svg">
<g clip-path="url(#clip0)">
<path d="M6.25 15C4.95819 15 3.90625 13.9487 3.90625 12.6562C3.90625 12.3975 4.11625 12.1875 4.375 12.1875C4.63375 12.1875 4.84375 12.3975 4.84375 12.6562C4.84375 13.4319 5.47501 14.0625 6.25 14.0625C7.02499 14.0625 7.65625 13.4319 7.65625 12.6562C7.65625 12.3975 7.86625 12.1875 8.125 12.1875C8.38375 12.1875 8.59375 12.3975 8.59375 12.6562C8.59375 13.9487 7.54192 15 6.25 15Z" fill="white"/>
<path d="M11.4062 13.125H1.09371C0.490608 13.125 0 12.6344 0 12.0313C0 11.7112 0.139389 11.4082 0.382462 11.2C0.39814 11.1863 0.414963 11.1738 0.432472 11.1625C1.34995 10.3618 1.875 9.20998 1.875 7.9937V6.24996C1.875 4.2144 3.25436 2.46689 5.22938 1.99997C5.48183 1.94183 5.73441 2.09621 5.7938 2.34879C5.85308 2.60067 5.69687 2.85313 5.44567 2.91252C3.895 3.27873 2.8125 4.65122 2.8125 6.24996V7.9937C2.8125 9.50375 2.15057 10.9325 0.998154 11.9131C0.98877 11.9206 0.980644 11.9275 0.970573 11.9344C0.953751 11.9556 0.9375 11.9881 0.9375 12.0313C0.9375 12.1162 1.0088 12.1875 1.09371 12.1875H11.4062C11.4912 12.1875 11.5625 12.1162 11.5625 12.0313C11.5625 11.9875 11.5463 11.9556 11.5288 11.9344C11.5194 11.9275 11.5106 11.9206 11.5019 11.9131C10.9419 11.4356 10.5 10.8594 10.1888 10.2C10.0776 9.9662 10.1775 9.68685 10.4118 9.57561C10.6482 9.46438 10.925 9.56566 11.0357 9.79935C11.2831 10.3219 11.6299 10.7807 12.0687 11.1644C12.085 11.1756 12.1019 11.1875 12.1162 11.2C12.3606 11.4082 12.5 11.7112 12.5 12.0313C12.5 12.6344 12.0094 13.125 11.4062 13.125Z" fill="white"/>
<path d="M10.9374 8.12496C8.69747 8.12496 6.875 6.30249 6.875 4.06254C6.875 1.82247 8.69747 0 10.9374 0C13.1775 0 15 1.82247 15 4.06254C15 6.30249 13.1775 8.12496 10.9374 8.12496ZM10.9374 0.9375C9.21429 0.9375 7.8125 2.3394 7.8125 4.06254C7.8125 5.78568 9.21429 7.18746 10.9374 7.18746C12.6606 7.18746 14.0625 5.78568 14.0625 4.06254C14.0625 2.3394 12.6606 0.9375 10.9374 0.9375Z" fill="white"/>
<path d="M11.0938 5.93755C10.835 5.93755 10.625 5.72755 10.625 5.4688V3.43747H10.3125C10.0537 3.43747 9.84375 3.22747 9.84375 2.96872C9.84375 2.70997 10.0537 2.49997 10.3125 2.49997H11.0938C11.3525 2.49997 11.5625 2.70997 11.5625 2.96872V5.4688C11.5625 5.72755 11.3525 5.93755 11.0938 5.93755Z" fill="white"/>
</g>
<defs>
<clipPath id="clip0">
<rect width="15" height="15" fill="white"/>
</clipPath>
</defs>
</svg>
