<svg width="28" height="28" viewBox="0 0 28 28" fill="none" xmlns="http://www.w3.org/2000/svg">
<circle cx="14" cy="14" r="14" fill="#8BC34A"/>
<g clip-path="url(#clip0_90_2924)">
<mask id="path-2-outside-1_90_2924" maskUnits="userSpaceOnUse" x="3.78467" y="2.99438" width="20" height="22" fill="black">
<rect fill="white" x="3.78467" y="2.99438" width="20" height="22"/>
<path d="M16.2734 4.08196C16.1719 4.13274 16.0586 4.23431 16 4.32415L15.8945 4.48431L15.8828 6.25384L15.8711 8.02337H11.5859C8.68751 8.02337 7.25392 8.03899 7.15235 8.06634C6.95313 8.12103 6.70704 8.34759 6.65626 8.52728C6.62501 8.62103 6.6172 9.35931 6.62501 10.7421L6.63673 12.8124L6.7422 12.9726C6.91798 13.2382 7.04298 13.2773 7.82423 13.289L8.50392 13.3007L6.70313 15.1054C5.46876 16.3398 4.88282 16.957 4.83985 17.0546C4.76563 17.2421 4.76563 17.4413 4.84376 17.6249C4.91017 17.7851 6.63673 19.5507 6.82032 19.6484C7.02735 19.7577 7.2422 19.6171 7.2422 19.3749C7.2422 19.2773 7.10157 19.121 6.30079 18.3124C5.57423 17.582 5.36329 17.3515 5.38282 17.2968C5.39454 17.2538 6.7461 15.8788 8.38673 14.2421C10.8906 11.7382 11.3867 11.2617 11.4649 11.2734L11.5586 11.2851L11.5781 13.2109L11.5977 15.1406L11.6914 15.2148C11.7734 15.2851 11.8555 15.289 12.75 15.289H13.7227L13.8008 15.1874C13.9102 15.0507 13.9024 14.9179 13.7852 14.8007C13.6914 14.7031 13.6875 14.7031 12.9258 14.7031H12.1641V13.9999V13.2968H14.0195H15.875V13.9999V14.7031H15.3711C14.9219 14.7031 14.8594 14.7109 14.7656 14.7851C14.6367 14.8866 14.625 15.0937 14.7422 15.2109C14.8125 15.2812 14.8711 15.289 15.3477 15.289H15.875V16.0195C15.875 16.6562 15.8867 16.7773 15.9492 16.9179C16.0899 17.2226 16.4961 17.3906 16.8359 17.2812C16.9531 17.2421 17.2149 17.0077 17.9649 16.2616L18.9453 15.289H19.8438C20.4922 15.289 20.7539 15.3007 20.7891 15.3359C20.8555 15.4023 20.8555 19.2773 20.7891 19.3437C20.7539 19.3788 19.6914 19.3906 16.2461 19.3906H11.7461L11.6719 19.4726C11.6016 19.5507 11.5977 19.6562 11.5781 21.4491C11.5586 23.1991 11.5547 23.3515 11.4922 23.3906C11.4336 23.4257 11.1914 23.1991 9.75392 21.7656C8.60938 20.6249 8.04688 20.0898 7.97267 20.0702C7.8047 20.0312 7.65626 20.1562 7.64063 20.3476C7.62892 20.496 7.63282 20.4999 9.30079 22.1718C10.4531 23.3241 11.0234 23.871 11.1406 23.9257C11.4844 24.0937 11.9141 23.9413 12.082 23.6015C12.1602 23.4335 12.1641 23.3827 12.1641 21.7031V19.9765H16.4531C19.3203 19.9765 20.7852 19.9609 20.8867 19.9335C21.0703 19.8827 21.3008 19.6874 21.3672 19.5195C21.4102 19.4179 21.4219 18.9765 21.4219 17.332C21.4219 15.3163 21.4219 15.2695 21.3399 15.1015C21.2891 14.9999 21.1914 14.8906 21.0977 14.8281C20.9414 14.7265 20.9219 14.7226 20.2383 14.7109L19.5391 14.6952L20.0703 14.1601C20.5156 13.7109 20.6016 13.6054 20.6016 13.5038C20.6016 13.3554 20.4609 13.2187 20.3086 13.2187C20.207 13.2187 19.9492 13.4609 18.4297 14.9804C16.9609 16.4452 16.6524 16.7382 16.5742 16.7265L16.4805 16.7148L16.4609 14.789L16.4414 12.8593L16.3477 12.7851C16.2617 12.7148 16.168 12.7109 14.2109 12.7109H12.1641V11.9765C12.1641 11.1992 12.1289 11.0312 11.9453 10.8671C11.832 10.7656 11.5977 10.6796 11.4414 10.6796C11.1602 10.6796 11.0352 10.7773 10.0547 11.7577L9.09376 12.7109H8.19532C7.54688 12.7109 7.28517 12.6991 7.25001 12.664C7.1836 12.5976 7.1836 8.72259 7.25001 8.65618C7.28517 8.62103 8.34767 8.60931 11.793 8.60931H16.293L16.3672 8.52728C16.4375 8.44915 16.4414 8.34368 16.4609 6.55071C16.4805 4.79681 16.4844 4.64837 16.5508 4.60931C16.6094 4.57415 17.0274 4.97649 19.6445 7.59368C21.3086 9.25774 22.6719 10.6445 22.6719 10.6757C22.6719 10.707 22.293 11.1132 21.832 11.5781C21.0859 12.3241 20.9922 12.4335 20.9922 12.5468C20.9922 12.7109 21.1094 12.8281 21.2734 12.8281C21.3828 12.8281 21.4961 12.7304 22.25 11.9765C22.7734 11.457 23.1328 11.0663 23.1797 10.9687C23.2774 10.7695 23.2774 10.5507 23.1797 10.3515C23.0703 10.1249 17.082 4.14446 16.8828 4.05853C16.6797 3.97649 16.4727 3.98431 16.2734 4.08196Z"/>
</mask>
<path d="M16.2734 4.08196C16.1719 4.13274 16.0586 4.23431 16 4.32415L15.8945 4.48431L15.8828 6.25384L15.8711 8.02337H11.5859C8.68751 8.02337 7.25392 8.03899 7.15235 8.06634C6.95313 8.12103 6.70704 8.34759 6.65626 8.52728C6.62501 8.62103 6.6172 9.35931 6.62501 10.7421L6.63673 12.8124L6.7422 12.9726C6.91798 13.2382 7.04298 13.2773 7.82423 13.289L8.50392 13.3007L6.70313 15.1054C5.46876 16.3398 4.88282 16.957 4.83985 17.0546C4.76563 17.2421 4.76563 17.4413 4.84376 17.6249C4.91017 17.7851 6.63673 19.5507 6.82032 19.6484C7.02735 19.7577 7.2422 19.6171 7.2422 19.3749C7.2422 19.2773 7.10157 19.121 6.30079 18.3124C5.57423 17.582 5.36329 17.3515 5.38282 17.2968C5.39454 17.2538 6.7461 15.8788 8.38673 14.2421C10.8906 11.7382 11.3867 11.2617 11.4649 11.2734L11.5586 11.2851L11.5781 13.2109L11.5977 15.1406L11.6914 15.2148C11.7734 15.2851 11.8555 15.289 12.75 15.289H13.7227L13.8008 15.1874C13.9102 15.0507 13.9024 14.9179 13.7852 14.8007C13.6914 14.7031 13.6875 14.7031 12.9258 14.7031H12.1641V13.9999V13.2968H14.0195H15.875V13.9999V14.7031H15.3711C14.9219 14.7031 14.8594 14.7109 14.7656 14.7851C14.6367 14.8866 14.625 15.0937 14.7422 15.2109C14.8125 15.2812 14.8711 15.289 15.3477 15.289H15.875V16.0195C15.875 16.6562 15.8867 16.7773 15.9492 16.9179C16.0899 17.2226 16.4961 17.3906 16.8359 17.2812C16.9531 17.2421 17.2149 17.0077 17.9649 16.2616L18.9453 15.289H19.8438C20.4922 15.289 20.7539 15.3007 20.7891 15.3359C20.8555 15.4023 20.8555 19.2773 20.7891 19.3437C20.7539 19.3788 19.6914 19.3906 16.2461 19.3906H11.7461L11.6719 19.4726C11.6016 19.5507 11.5977 19.6562 11.5781 21.4491C11.5586 23.1991 11.5547 23.3515 11.4922 23.3906C11.4336 23.4257 11.1914 23.1991 9.75392 21.7656C8.60938 20.6249 8.04688 20.0898 7.97267 20.0702C7.8047 20.0312 7.65626 20.1562 7.64063 20.3476C7.62892 20.496 7.63282 20.4999 9.30079 22.1718C10.4531 23.3241 11.0234 23.871 11.1406 23.9257C11.4844 24.0937 11.9141 23.9413 12.082 23.6015C12.1602 23.4335 12.1641 23.3827 12.1641 21.7031V19.9765H16.4531C19.3203 19.9765 20.7852 19.9609 20.8867 19.9335C21.0703 19.8827 21.3008 19.6874 21.3672 19.5195C21.4102 19.4179 21.4219 18.9765 21.4219 17.332C21.4219 15.3163 21.4219 15.2695 21.3399 15.1015C21.2891 14.9999 21.1914 14.8906 21.0977 14.8281C20.9414 14.7265 20.9219 14.7226 20.2383 14.7109L19.5391 14.6952L20.0703 14.1601C20.5156 13.7109 20.6016 13.6054 20.6016 13.5038C20.6016 13.3554 20.4609 13.2187 20.3086 13.2187C20.207 13.2187 19.9492 13.4609 18.4297 14.9804C16.9609 16.4452 16.6524 16.7382 16.5742 16.7265L16.4805 16.7148L16.4609 14.789L16.4414 12.8593L16.3477 12.7851C16.2617 12.7148 16.168 12.7109 14.2109 12.7109H12.1641V11.9765C12.1641 11.1992 12.1289 11.0312 11.9453 10.8671C11.832 10.7656 11.5977 10.6796 11.4414 10.6796C11.1602 10.6796 11.0352 10.7773 10.0547 11.7577L9.09376 12.7109H8.19532C7.54688 12.7109 7.28517 12.6991 7.25001 12.664C7.1836 12.5976 7.1836 8.72259 7.25001 8.65618C7.28517 8.62103 8.34767 8.60931 11.793 8.60931H16.293L16.3672 8.52728C16.4375 8.44915 16.4414 8.34368 16.4609 6.55071C16.4805 4.79681 16.4844 4.64837 16.5508 4.60931C16.6094 4.57415 17.0274 4.97649 19.6445 7.59368C21.3086 9.25774 22.6719 10.6445 22.6719 10.6757C22.6719 10.707 22.293 11.1132 21.832 11.5781C21.0859 12.3241 20.9922 12.4335 20.9922 12.5468C20.9922 12.7109 21.1094 12.8281 21.2734 12.8281C21.3828 12.8281 21.4961 12.7304 22.25 11.9765C22.7734 11.457 23.1328 11.0663 23.1797 10.9687C23.2774 10.7695 23.2774 10.5507 23.1797 10.3515C23.0703 10.1249 17.082 4.14446 16.8828 4.05853C16.6797 3.97649 16.4727 3.98431 16.2734 4.08196Z" fill="#F8FCFF"/>
<path d="M16.2734 4.08196C16.1719 4.13274 16.0586 4.23431 16 4.32415L15.8945 4.48431L15.8828 6.25384L15.8711 8.02337H11.5859C8.68751 8.02337 7.25392 8.03899 7.15235 8.06634C6.95313 8.12103 6.70704 8.34759 6.65626 8.52728C6.62501 8.62103 6.6172 9.35931 6.62501 10.7421L6.63673 12.8124L6.7422 12.9726C6.91798 13.2382 7.04298 13.2773 7.82423 13.289L8.50392 13.3007L6.70313 15.1054C5.46876 16.3398 4.88282 16.957 4.83985 17.0546C4.76563 17.2421 4.76563 17.4413 4.84376 17.6249C4.91017 17.7851 6.63673 19.5507 6.82032 19.6484C7.02735 19.7577 7.2422 19.6171 7.2422 19.3749C7.2422 19.2773 7.10157 19.121 6.30079 18.3124C5.57423 17.582 5.36329 17.3515 5.38282 17.2968C5.39454 17.2538 6.7461 15.8788 8.38673 14.2421C10.8906 11.7382 11.3867 11.2617 11.4649 11.2734L11.5586 11.2851L11.5781 13.2109L11.5977 15.1406L11.6914 15.2148C11.7734 15.2851 11.8555 15.289 12.75 15.289H13.7227L13.8008 15.1874C13.9102 15.0507 13.9024 14.9179 13.7852 14.8007C13.6914 14.7031 13.6875 14.7031 12.9258 14.7031H12.1641V13.9999V13.2968H14.0195H15.875V13.9999V14.7031H15.3711C14.9219 14.7031 14.8594 14.7109 14.7656 14.7851C14.6367 14.8866 14.625 15.0937 14.7422 15.2109C14.8125 15.2812 14.8711 15.289 15.3477 15.289H15.875V16.0195C15.875 16.6562 15.8867 16.7773 15.9492 16.9179C16.0899 17.2226 16.4961 17.3906 16.8359 17.2812C16.9531 17.2421 17.2149 17.0077 17.9649 16.2616L18.9453 15.289H19.8438C20.4922 15.289 20.7539 15.3007 20.7891 15.3359C20.8555 15.4023 20.8555 19.2773 20.7891 19.3437C20.7539 19.3788 19.6914 19.3906 16.2461 19.3906H11.7461L11.6719 19.4726C11.6016 19.5507 11.5977 19.6562 11.5781 21.4491C11.5586 23.1991 11.5547 23.3515 11.4922 23.3906C11.4336 23.4257 11.1914 23.1991 9.75392 21.7656C8.60938 20.6249 8.04688 20.0898 7.97267 20.0702C7.8047 20.0312 7.65626 20.1562 7.64063 20.3476C7.62892 20.496 7.63282 20.4999 9.30079 22.1718C10.4531 23.3241 11.0234 23.871 11.1406 23.9257C11.4844 24.0937 11.9141 23.9413 12.082 23.6015C12.1602 23.4335 12.1641 23.3827 12.1641 21.7031V19.9765H16.4531C19.3203 19.9765 20.7852 19.9609 20.8867 19.9335C21.0703 19.8827 21.3008 19.6874 21.3672 19.5195C21.4102 19.4179 21.4219 18.9765 21.4219 17.332C21.4219 15.3163 21.4219 15.2695 21.3399 15.1015C21.2891 14.9999 21.1914 14.8906 21.0977 14.8281C20.9414 14.7265 20.9219 14.7226 20.2383 14.7109L19.5391 14.6952L20.0703 14.1601C20.5156 13.7109 20.6016 13.6054 20.6016 13.5038C20.6016 13.3554 20.4609 13.2187 20.3086 13.2187C20.207 13.2187 19.9492 13.4609 18.4297 14.9804C16.9609 16.4452 16.6524 16.7382 16.5742 16.7265L16.4805 16.7148L16.4609 14.789L16.4414 12.8593L16.3477 12.7851C16.2617 12.7148 16.168 12.7109 14.2109 12.7109H12.1641V11.9765C12.1641 11.1992 12.1289 11.0312 11.9453 10.8671C11.832 10.7656 11.5977 10.6796 11.4414 10.6796C11.1602 10.6796 11.0352 10.7773 10.0547 11.7577L9.09376 12.7109H8.19532C7.54688 12.7109 7.28517 12.6991 7.25001 12.664C7.1836 12.5976 7.1836 8.72259 7.25001 8.65618C7.28517 8.62103 8.34767 8.60931 11.793 8.60931H16.293L16.3672 8.52728C16.4375 8.44915 16.4414 8.34368 16.4609 6.55071C16.4805 4.79681 16.4844 4.64837 16.5508 4.60931C16.6094 4.57415 17.0274 4.97649 19.6445 7.59368C21.3086 9.25774 22.6719 10.6445 22.6719 10.6757C22.6719 10.707 22.293 11.1132 21.832 11.5781C21.0859 12.3241 20.9922 12.4335 20.9922 12.5468C20.9922 12.7109 21.1094 12.8281 21.2734 12.8281C21.3828 12.8281 21.4961 12.7304 22.25 11.9765C22.7734 11.457 23.1328 11.0663 23.1797 10.9687C23.2774 10.7695 23.2774 10.5507 23.1797 10.3515C23.0703 10.1249 17.082 4.14446 16.8828 4.05853C16.6797 3.97649 16.4727 3.98431 16.2734 4.08196Z" stroke="#F8FCFF" stroke-width="0.4" mask="url(#path-2-outside-1_90_2924)"/>
</g>
<defs>
<clipPath id="clip0_90_2924">
<rect width="20" height="20" fill="white" transform="translate(4 4)"/>
</clipPath>
</defs>
</svg>
