<svg width="10" height="10" viewBox="0 0 10 10" fill="none" xmlns="http://www.w3.org/2000/svg">
<path d="M0.609501 1.14049C0.574635 1.10562 0.546978 1.06423 0.528108 1.01867C0.509239 0.973118 0.499527 0.924293 0.499527 0.874985C0.499527 0.825677 0.509239 0.776852 0.528108 0.731298C0.546978 0.685743 0.574635 0.644351 0.609501 0.609485C0.644367 0.574619 0.685759 0.546962 0.731313 0.528093C0.776868 0.509224 0.825693 0.499512 0.875001 0.499512C0.924309 0.499512 0.973134 0.509224 1.01869 0.528093C1.06424 0.546962 1.10563 0.574619 1.1405 0.609485L5 4.46974L8.8595 0.609485C8.89437 0.574619 8.93576 0.546962 8.98131 0.528093C9.02687 0.509224 9.07569 0.499512 9.125 0.499512C9.17431 0.499512 9.22313 0.509224 9.26869 0.528093C9.31424 0.546962 9.35563 0.574619 9.3905 0.609485C9.42537 0.644351 9.45302 0.685743 9.47189 0.731298C9.49076 0.776852 9.50047 0.825677 9.50047 0.874985C9.50047 0.924293 9.49076 0.973118 9.47189 1.01867C9.45302 1.06423 9.42537 1.10562 9.3905 1.14049L5.53025 4.99999L9.3905 8.85949C9.42537 8.89435 9.45302 8.93574 9.47189 8.9813C9.49076 9.02685 9.50047 9.07568 9.50047 9.12499C9.50047 9.17429 9.49076 9.22312 9.47189 9.26867C9.45302 9.31423 9.42537 9.35562 9.3905 9.39049C9.35563 9.42535 9.31424 9.45301 9.26869 9.47188C9.22313 9.49075 9.17431 9.50046 9.125 9.50046C9.07569 9.50046 9.02687 9.49075 8.98131 9.47188C8.93576 9.45301 8.89437 9.42535 8.8595 9.39049L5 5.53024L1.1405 9.39049C1.10563 9.42535 1.06424 9.45301 1.01869 9.47188C0.973134 9.49075 0.924309 9.50046 0.875001 9.50046C0.825693 9.50046 0.776868 9.49075 0.731313 9.47188C0.685759 9.45301 0.644367 9.42535 0.609501 9.39049C0.574635 9.35562 0.546978 9.31423 0.528108 9.26867C0.509239 9.22312 0.499527 9.17429 0.499527 9.12499C0.499527 9.07568 0.509239 9.02685 0.528108 8.9813C0.546978 8.93574 0.574635 8.89435 0.609501 8.85949L4.46975 4.99999L0.609501 1.14049Z" fill="#348AD4"/>
</svg>
