<svg width="15" height="12" viewBox="0 0 15 12" fill="none" xmlns="http://www.w3.org/2000/svg">
<path d="M6.85938 5C6.85938 5.11189 6.81493 5.21919 6.73581 5.29831C6.65669 5.37743 6.54939 5.42188 6.4375 5.42188H1.375C1.26311 5.42188 1.15581 5.37743 1.07669 5.29831C0.997572 5.21919 0.953125 5.11189 0.953125 5C0.953125 4.88811 0.997572 4.78081 1.07669 4.70169C1.15581 4.62257 1.26311 4.57812 1.375 4.57812H6.4375C6.54939 4.57812 6.65669 4.62257 6.73581 4.70169C6.81493 4.78081 6.85938 4.88811 6.85938 5ZM1.375 0.921875H10.9375C11.0494 0.921875 11.1567 0.877427 11.2358 0.79831C11.3149 0.719194 11.3594 0.611888 11.3594 0.5C11.3594 0.388112 11.3149 0.280806 11.2358 0.201689C11.1567 0.122572 11.0494 0.078125 10.9375 0.078125H1.375C1.26311 0.078125 1.15581 0.122572 1.07669 0.201689C0.997572 0.280806 0.953125 0.388112 0.953125 0.5C0.953125 0.611888 0.997572 0.719194 1.07669 0.79831C1.15581 0.877427 1.26311 0.921875 1.375 0.921875ZM5.3125 9.07812H1.375C1.26311 9.07812 1.15581 9.12257 1.07669 9.20169C0.997572 9.28081 0.953125 9.38811 0.953125 9.5C0.953125 9.61189 0.997572 9.71919 1.07669 9.79831C1.15581 9.87743 1.26311 9.92188 1.375 9.92188H5.3125C5.42439 9.92188 5.53169 9.87743 5.61081 9.79831C5.68993 9.71919 5.73438 9.61189 5.73438 9.5C5.73438 9.38811 5.68993 9.28081 5.61081 9.20169C5.53169 9.12257 5.42439 9.07812 5.3125 9.07812ZM14.0481 7.51437C13.969 7.43537 13.8618 7.391 13.75 7.391C13.6382 7.391 13.531 7.43537 13.4519 7.51437L11.3594 9.60617V3.875C11.3594 3.76311 11.3149 3.65581 11.2358 3.57669C11.1567 3.49757 11.0494 3.45312 10.9375 3.45312C10.8256 3.45312 10.7183 3.49757 10.6392 3.57669C10.5601 3.65581 10.5156 3.76311 10.5156 3.875V9.60617L8.42313 7.51437C8.34315 7.43985 8.23738 7.39929 8.12808 7.40121C8.01879 7.40314 7.91451 7.44742 7.83721 7.52471C7.75992 7.60201 7.71564 7.70629 7.71371 7.81558C7.71179 7.92488 7.75235 8.03065 7.82687 8.11063L10.6394 10.9231C10.7185 11.0021 10.8257 11.0465 10.9375 11.0465C11.0493 11.0465 11.1565 11.0021 11.2356 10.9231L14.0481 8.11063C14.1271 8.03152 14.1715 7.9243 14.1715 7.8125C14.1715 7.7007 14.1271 7.59348 14.0481 7.51437Z" fill="#637B90"/>
</svg>
