<svg width="28" height="28" viewBox="0 0 28 28" fill="none" xmlns="http://www.w3.org/2000/svg">
<circle cx="14" cy="14" r="14" fill="#6A1B9A"/>
<g clip-path="url(#clip0_216_1558)">
<path d="M13.3113 4.5987L13.3111 4.59871C11.7181 4.76743 10.4135 5.21511 9.18742 6.02067C8.63024 6.38559 8.32686 6.6259 7.85957 7.08533C7.47092 7.46221 7.10557 7.88641 6.83794 8.26817L6.6689 8.50858L5.67146 9.0537C5.67142 9.05372 5.67139 9.05373 5.67136 9.05375C5.25374 9.28013 4.99846 9.42245 4.84362 9.51911C4.7663 9.56737 4.71214 9.60539 4.67483 9.63778C4.63766 9.67006 4.6134 9.69997 4.60142 9.73291L4.60132 9.73318C4.58092 9.79033 4.56804 9.84477 4.57332 9.89862C4.57878 9.95424 4.60296 10.0035 4.64582 10.0514C4.6877 10.0982 4.74847 10.1449 4.82962 10.1969C4.91116 10.2492 5.01604 10.3085 5.14807 10.3799L5.14827 10.38C5.18198 10.3981 5.21338 10.4147 5.24264 10.4302C5.33684 10.4802 5.40882 10.5184 5.46398 10.5526C5.5366 10.5976 5.57007 10.6301 5.58552 10.6632C5.60054 10.6954 5.60273 10.7375 5.58754 10.8134C5.57612 10.8704 5.55642 10.9401 5.53061 11.0314C5.52193 11.0621 5.51256 11.0952 5.50258 11.1311L5.55076 11.1445M13.3113 4.5987L14.7801 5.33881C11.9272 5.05159 9.07751 6.35975 7.40417 8.72015C7.40413 8.72021 7.40409 8.72026 7.40405 8.72032L7.28994 8.88435L7.38954 9.82285L7.38956 9.82303L7.39798 9.90527C7.46057 10.5166 7.49238 10.8273 7.49333 10.9973C7.49383 11.0859 7.48625 11.1443 7.46532 11.1891C7.44584 11.2308 7.41619 11.2566 7.38848 11.2807C7.38585 11.283 7.38323 11.2853 7.38064 11.2876L7.38066 11.2876L7.37916 11.2888C7.34488 11.3167 7.30458 11.3421 7.26671 11.3608C7.23096 11.3784 7.18993 11.3937 7.15622 11.3937C7.14356 11.3937 7.12982 11.3908 7.11807 11.3876C7.1053 11.3842 7.09061 11.3795 7.07459 11.3737C7.0425 11.3622 7.00271 11.3458 6.95818 11.326C6.86904 11.2863 6.75862 11.2321 6.6484 11.1731C6.53785 11.1149 6.43648 11.0657 6.36221 11.0331C6.33111 11.0194 6.30549 11.009 6.28629 11.0021C6.28559 11.0044 6.28487 11.0067 6.28413 11.0092C6.2758 11.0365 6.26496 11.0746 6.25232 11.121C6.22706 11.2138 6.19494 11.3384 6.1618 11.4729L6.16178 11.473C5.64165 13.5652 6.00653 15.8246 7.16337 17.6608L7.16338 17.6608L7.16373 17.6614C7.22844 17.7673 7.2865 17.8667 7.32755 17.9419C7.348 17.9793 7.36464 18.0115 7.37579 18.0358C7.38128 18.0477 7.38602 18.059 7.38918 18.0686C7.39071 18.0732 7.3924 18.0791 7.39335 18.0852L7.39339 18.0854C7.39395 18.089 7.39631 18.1043 7.38845 18.12L7.38918 18.1204L7.38372 18.1277C7.37919 18.1337 7.37304 18.1395 7.36878 18.1435C7.36362 18.1482 7.35723 18.1538 7.34995 18.1598C7.33535 18.1721 7.31598 18.1875 7.29322 18.2051C7.24763 18.2403 7.1874 18.2847 7.12231 18.3301L7.12226 18.3301L6.89179 18.4903L6.84959 18.5196L6.82143 18.4766L6.59878 18.1368L6.59871 18.1367C6.13466 17.4249 5.69109 16.4041 5.47493 15.5435C5.27067 14.7421 5.21949 14.3082 5.22341 13.3554M13.3113 4.5987C13.5049 4.57874 13.9127 4.58287 14.3259 4.60092C14.7396 4.619 15.1651 4.65131 15.3948 4.68894L15.395 4.68898C18.1837 5.1603 20.5528 6.88083 21.8179 9.35221L21.818 9.35246L21.9993 9.71134M13.3113 4.5987L21.9993 9.71134M5.55076 11.1445L5.50262 11.131C5.28633 11.9018 5.22342 12.4182 5.22341 13.3554M5.55076 11.1445C5.33591 11.9102 5.27341 12.4219 5.27341 13.3555M5.55076 11.1445C5.62678 10.8708 5.67229 10.7433 5.63418 10.6498C5.59397 10.5511 5.46066 10.4904 5.17185 10.3359C4.64451 10.0508 4.57029 9.96875 4.64841 9.75C4.67966 9.66406 4.85935 9.55078 5.69529 9.09766L5.27341 13.3555M5.22341 13.3554C5.22341 13.3553 5.22341 13.3553 5.22341 13.3553L5.27341 13.3555M5.22341 13.3554C5.22341 13.3554 5.22341 13.3554 5.22341 13.3555H5.27341M6.11326 11.4609C6.17966 11.1914 6.24216 10.9609 6.25388 10.9453L6.11326 11.4609ZM6.11326 11.4609C5.58982 13.5664 5.95701 15.8398 7.12107 17.6875C7.24997 17.8984 7.35154 18.082 7.34372 18.0977C7.33201 18.1133 7.22263 18.1992 7.09372 18.2891L6.90433 18.4207L6.90508 18.4218L6.86326 18.4492L6.83472 18.4082L6.83584 18.4074L6.6406 18.1094L6.11326 11.4609ZM21.332 9.92187C21.3203 9.93359 21.1211 9.99609 20.8867 10.0586M21.332 9.92187L21.7734 9.375L21.9726 9.76953M21.332 9.92187C21.3633 9.89453 21.0234 9.27344 20.75 8.86719L21.332 9.92187ZM20.8867 10.0586C20.4258 10.1797 20.3281 10.25 20.3281 10.457C20.3281 10.4729 20.328 10.4867 20.3296 10.5003C20.3411 10.6011 20.4441 10.6914 21.3594 11.5C21.7656 11.8594 22.0078 12.1016 22.0234 12.1641C22.0351 12.2187 22.0625 12.4297 22.0859 12.6328C22.2617 14.3398 21.8203 16.1953 20.8789 17.6875C20.75 17.8984 20.6406 18.0781 20.6406 18.0859C20.6406 18.0937 20.75 18.1797 20.8789 18.2734L21.1211 18.4492L21.1875 18.3633C21.2265 18.3125 21.3594 18.1094 21.4844 17.9062C22.1562 16.8047 22.5859 15.4883 22.7148 14.1562C22.7617 13.6367 22.7422 12.6719 22.6719 12.2539L22.6328 12.0117L23.0039 10.9414C23.207 10.3477 23.375 9.82812 23.375 9.78125C23.375 9.67187 23.207 9.50781 23.0937 9.50781C23.0429 9.50781 22.7734 9.57031 22.4883 9.64062L21.9726 9.76953M20.8867 10.0586L20.8738 10.0103C20.8738 10.0103 20.8738 10.0103 20.8738 10.0103M20.8867 10.0586L20.874 10.0102C20.8739 10.0102 20.8739 10.0103 20.8738 10.0103M21.9726 9.76953L21.9605 9.72102L21.9993 9.71134M21.9726 9.76953L22.0173 9.74699L21.9993 9.71134M21.9993 9.71134L22.4761 9.59212L22.4763 9.59208C22.619 9.55689 22.7581 9.52358 22.868 9.49905C22.9229 9.48679 22.9709 9.47665 23.0085 9.46954C23.0443 9.4628 23.0755 9.45781 23.0937 9.45781C23.1333 9.45781 23.1734 9.47185 23.2092 9.49115C23.2455 9.51076 23.2808 9.53762 23.3117 9.5677C23.3426 9.59776 23.3702 9.63217 23.3904 9.66764C23.4102 9.70247 23.425 9.74196 23.425 9.78125C23.425 9.78948 23.4234 9.79846 23.4221 9.8051C23.4206 9.81283 23.4185 9.82204 23.4159 9.83239C23.4106 9.85316 23.4031 9.88032 23.3935 9.91286C23.3744 9.97804 23.347 10.0664 23.3132 10.1715C23.2457 10.3819 23.1528 10.6605 23.0512 10.9576L23.0511 10.9578L22.6842 12.0162L22.7212 12.2456C22.7212 12.2457 22.7212 12.2458 22.7212 12.2458C22.7924 12.6692 22.8118 13.6382 22.7646 14.1607L22.7646 14.1611C22.635 15.5002 22.203 16.824 21.527 17.9323L21.5269 17.9325C21.4022 18.1352 21.268 18.3406 21.2271 18.3938L21.227 18.3939L21.1606 18.4798L21.131 18.5182L21.0917 18.4897L20.8495 18.3139L20.8495 18.3139C20.7847 18.2667 20.7246 18.2214 20.6805 18.1868C20.6585 18.1695 20.6401 18.1545 20.627 18.1431C20.6205 18.1376 20.6146 18.1322 20.61 18.1275C20.6078 18.1253 20.6049 18.1223 20.6022 18.1188C20.6009 18.1171 20.5988 18.1142 20.5968 18.1105C20.5955 18.108 20.5906 18.0988 20.5906 18.0859C20.5906 18.0757 20.5939 18.0676 20.594 18.0675C20.5949 18.0651 20.5958 18.0629 20.5965 18.0615C20.5979 18.0584 20.5997 18.055 20.6014 18.0517C20.6051 18.0449 20.6102 18.0358 20.6164 18.025C20.6289 18.0034 20.6468 17.9733 20.6686 17.9371C20.7121 17.8647 20.7718 17.7669 20.8362 17.6614L20.8366 17.6608C21.7721 16.1779 22.2107 14.3338 22.0362 12.6382C22.0129 12.4361 21.9862 12.2306 21.9749 12.1762C21.9749 12.1762 21.9748 12.1761 21.9748 12.176C21.9743 12.1749 21.972 12.1699 21.9655 12.1601C21.958 12.1489 21.9469 12.1345 21.9319 12.1167C21.902 12.0811 21.8587 12.0349 21.8025 11.9787C21.6903 11.8665 21.529 11.7168 21.3262 11.5374L21.3013 11.5154C20.7993 11.072 20.5459 10.8481 20.4185 10.7192C20.3542 10.6542 20.3174 10.609 20.298 10.5686C20.278 10.5268 20.278 10.4929 20.2781 10.4615L20.2781 10.457C20.2781 10.4017 20.2845 10.3509 20.3047 10.3045C20.3252 10.2573 20.3583 10.2186 20.4055 10.1849C20.4962 10.1201 20.645 10.0704 20.8738 10.0103M21.9993 9.71134L14.7801 5.33881C17.1911 5.58342 19.373 6.89184 20.7084 8.89492L20.7085 8.89511C20.8442 9.09673 20.9968 9.35224 21.1114 9.56072C21.1688 9.66501 21.2163 9.75678 21.2473 9.82371C21.2603 9.85161 21.27 9.87431 21.2763 9.89136C21.2755 9.89165 21.2746 9.89195 21.2738 9.89225C21.2507 9.90042 21.2181 9.91106 21.1781 9.92342C21.0982 9.9481 20.9905 9.97917 20.8738 10.0103M21.3051 9.87998C21.305 9.88004 21.3048 9.88014 21.3046 9.88029L21.3047 9.88024C21.3052 9.87996 21.3053 9.87988 21.3051 9.87998ZM6.62231 9.48336L6.62227 9.48303C6.6167 9.44029 6.60942 9.40238 6.6021 9.3757C6.5986 9.37735 6.59488 9.37913 6.59093 9.38103C6.56151 9.39521 6.52158 9.41549 6.4745 9.44003C6.38047 9.48905 6.25924 9.55441 6.13933 9.62045C6.01941 9.68651 5.90115 9.75307 5.81301 9.80448C5.77971 9.8239 5.75096 9.84103 5.72815 9.85506C5.75472 9.8711 5.78959 9.89138 5.83127 9.91499C5.93324 9.97278 6.07436 10.0497 6.23025 10.1315C6.38619 10.2134 6.52701 10.2843 6.62854 10.3316C6.6641 10.3482 6.69432 10.3617 6.7184 10.3717C6.71659 10.3513 6.71432 10.3268 6.71162 10.2987C6.70425 10.222 6.69414 10.1223 6.68316 10.0179C6.66117 9.80881 6.63586 9.58206 6.62231 9.48336ZM21.884 10.4936L21.8836 10.4937C21.7341 10.5325 21.6006 10.5722 21.5058 10.6045C21.4697 10.6168 21.4398 10.6277 21.4171 10.637C21.4176 10.6375 21.4182 10.6381 21.4187 10.6386C21.4425 10.6627 21.4755 10.6946 21.5148 10.7317C21.5932 10.8058 21.6956 10.8995 21.798 10.9911C21.9003 11.0827 22.0022 11.1719 22.0796 11.2372C22.111 11.2637 22.1381 11.286 22.1594 11.3028C22.1699 11.2741 22.1835 11.2361 22.1994 11.1915C22.2347 11.0924 22.2806 10.9613 22.3263 10.8298C22.3719 10.6983 22.4171 10.5665 22.4509 10.4659C22.4671 10.4179 22.4806 10.3771 22.4902 10.347C22.4725 10.3496 22.4496 10.3536 22.4206 10.3595C22.3173 10.3807 22.1478 10.4233 21.884 10.4936Z" fill="#F8FCFF" stroke="#F8FCFF" stroke-width="0.1"/>
<path d="M12.9307 6.84981L12.9305 6.84995C12.7964 6.91799 12.6957 7.0062 12.6256 7.12729C12.5561 7.24748 12.5188 7.39631 12.5048 7.58218L12.5048 7.58261L12.4871 7.84729L12.1612 8.01387C12.1611 8.0139 12.1611 8.01392 12.161 8.01395C11.965 8.112 11.7362 8.24202 11.6476 8.30244L11.6463 8.30329L11.6463 8.30331C11.6054 8.33311 11.5626 8.35913 11.5272 8.3775C11.5095 8.38671 11.4943 8.39365 11.4826 8.39815C11.475 8.40106 11.4706 8.40227 11.4687 8.40278C11.468 8.40263 11.4672 8.40244 11.4662 8.40219C11.4616 8.40102 11.4552 8.39909 11.447 8.39626C11.4306 8.39061 11.4091 8.38219 11.3838 8.37146C11.3334 8.35006 11.2701 8.32037 11.2067 8.28771C11.2066 8.28766 11.2065 8.28762 11.2065 8.28758L11.1836 8.33203C10.9843 8.22656 10.9179 8.21094 10.7265 8.22656L12.9307 6.84981ZM12.9307 6.84981C13.0148 6.80779 13.0777 6.78559 13.2232 6.77437C13.3647 6.76344 13.5889 6.7625 13.9961 6.7625C14.4034 6.7625 14.6284 6.76442 14.7715 6.77584C14.9182 6.78755 14.9825 6.80962 15.0679 6.84917L15.0679 6.84915L15.0689 6.84967C15.2034 6.91588 15.3042 7.00427 15.3743 7.12591C15.4439 7.24657 15.4811 7.39635 15.4951 7.58218L15.4952 7.58261L15.5128 7.84729L15.8387 8.01387C15.8388 8.0139 15.8388 8.01392 15.8389 8.01394C16.035 8.112 16.2637 8.24202 16.3523 8.30244L16.3524 8.30242L16.3536 8.30331C16.3946 8.33311 16.4372 8.35903 16.4732 8.37727C16.4913 8.3864 16.507 8.39326 16.5195 8.39772C16.528 8.40076 16.5335 8.40211 16.5364 8.40269L16.5413 8.40143C16.5467 8.39991 16.5536 8.3977 16.5619 8.39477C16.5786 8.38892 16.5998 8.38066 16.6241 8.37043C16.6725 8.35001 16.7316 8.32238 16.7887 8.29193C17.1485 8.09577 17.5329 8.13393 17.7894 8.39448C17.8094 8.41453 17.8378 8.45176 17.8708 8.49827C17.9046 8.54597 17.9453 8.60655 17.9903 8.67552C18.0802 8.81352 18.1878 8.98627 18.2923 9.15921C18.3967 9.33214 18.4982 9.50565 18.5759 9.64517C18.6148 9.71489 18.6478 9.77648 18.6724 9.82544C18.696 9.87235 18.7144 9.91278 18.7204 9.9374L18.7205 9.93793C18.8013 10.2865 18.6114 10.6222 18.2319 10.8402L18.2314 10.8405L18.0617 10.9356V11.5V12.0644L18.2314 12.1595L18.2319 12.1598C18.6114 12.3778 18.8013 12.7135 18.7206 13.0621L18.7204 13.0626C18.7144 13.0872 18.696 13.1277 18.6724 13.1746C18.6478 13.2235 18.6148 13.2851 18.5759 13.3548C18.4982 13.4944 18.3967 13.6679 18.2923 13.8408C18.1878 14.0137 18.0802 14.1865 17.9903 14.3245C17.9453 14.3935 17.9046 14.454 17.8708 14.5017C17.8379 14.5481 17.8095 14.5853 17.7895 14.6054C17.533 14.866 17.1486 14.9043 16.7887 14.7081C16.7316 14.6776 16.6725 14.65 16.6241 14.6296C16.5998 14.6193 16.5786 14.6111 16.5619 14.6052C16.5536 14.6023 16.5467 14.6001 16.5413 14.5986L16.5364 14.5973C16.5335 14.5979 16.528 14.5992 16.5193 14.6023C16.5067 14.6067 16.4909 14.6135 16.4728 14.6225C16.4367 14.6403 16.3941 14.6653 16.353 14.6932C16.2631 14.7584 16.0342 14.8884 15.8389 14.986C15.8389 14.9861 15.8388 14.9861 15.8387 14.9861L15.5128 15.1527L15.4952 15.4174L15.4951 15.4178C15.4811 15.6036 15.4439 15.7534 15.3743 15.8741C15.3042 15.9957 15.2034 16.0841 15.0689 16.1503L15.0689 16.1503L15.0679 16.1508C14.9825 16.1904 14.9182 16.2124 14.772 16.2242C14.6294 16.2356 14.4054 16.2375 14 16.2375C13.5945 16.2375 13.3705 16.2356 13.2279 16.2242C13.0817 16.2124 13.0174 16.1904 12.9321 16.1508L12.9321 16.1508L12.931 16.1503C12.7965 16.0841 12.6957 15.9957 12.6256 15.8741C12.556 15.7534 12.5188 15.6036 12.5048 15.4178L12.5048 15.4174L12.4871 15.1527L12.9307 6.84981ZM14.7744 7.74243L14.7744 7.74308C14.7961 7.96802 14.8342 8.12758 14.9297 8.25932C15.0246 8.39027 15.1717 8.48746 15.3954 8.59932C15.5949 8.70104 15.8417 8.83622 15.9438 8.90808L15.9452 8.90901L15.9452 8.90898C16.1412 9.03766 16.3055 9.1121 16.4693 9.12789C16.6342 9.14381 16.7916 9.09961 16.9723 9.00526L16.9732 9.00479L16.9732 9.00478C17.0319 8.9726 17.0935 8.94419 17.1448 8.92395C17.1704 8.91383 17.193 8.90596 17.211 8.90071C17.2199 8.89809 17.2273 8.89625 17.2331 8.89509L17.2378 8.89431C17.2425 8.89735 17.2498 8.90332 17.2602 8.9138C17.2808 8.93477 17.3082 8.96855 17.3436 9.01791C17.4141 9.11625 17.5119 9.27005 17.6446 9.49062L17.6448 9.49086C17.748 9.66037 17.8415 9.82002 17.909 9.94005C17.9428 10.0001 17.97 10.0499 17.9885 10.086C17.9967 10.1018 18.003 10.1145 18.0074 10.1241C18.0028 10.1286 17.9964 10.1342 17.9881 10.1405C17.9638 10.1591 17.9286 10.1809 17.8878 10.2014L17.8868 10.2019L17.8868 10.2019C17.6753 10.3136 17.4858 10.4759 17.405 10.629L17.4048 10.6293C17.3747 10.6872 17.3585 10.7607 17.3486 10.8817C17.3386 11.0029 17.3347 11.1775 17.3328 11.4409C17.3308 11.6231 17.3328 11.8036 17.3377 11.9475C17.3401 12.0194 17.3433 12.0826 17.3472 12.1325C17.3509 12.18 17.3554 12.2197 17.3617 12.2429C17.3618 12.2432 17.3619 12.2435 17.3619 12.2439L14.7744 7.74243ZM14.7744 7.74243L14.7547 7.50636L14.0071 7.49531C13.7003 7.4914 13.5035 7.49143 13.3822 7.49721C13.3212 7.50012 13.2819 7.50438 13.2581 7.50955C13.2533 7.5106 13.2496 7.51159 13.2468 7.51244C13.2457 7.51744 13.2444 7.52386 13.243 7.53171C13.24 7.5489 13.2368 7.57133 13.2337 7.59766C13.2275 7.65024 13.2217 7.71661 13.2179 7.7841L13.2179 7.7841L13.2178 7.78516C13.2018 7.98855 13.1624 8.1393 13.0657 8.267C12.97 8.39331 12.8226 8.49124 12.6044 8.59936C12.4055 8.70078 12.162 8.83624 12.0554 8.90856L12.0548 8.90898C11.8588 9.03766 11.6944 9.1121 11.5306 9.12789C11.3657 9.14381 11.2083 9.09961 11.0276 9.00526L11.0276 9.00527L11.0267 9.00478C10.968 8.9726 10.9065 8.94419 10.8552 8.92395C10.8295 8.91383 10.8069 8.90596 10.789 8.90071C10.78 8.89809 10.7726 8.89625 10.7668 8.89509L10.7621 8.89431C10.7574 8.89735 10.7501 8.90332 10.7398 8.9138C10.7191 8.93477 10.6917 8.96855 10.6563 9.01791C10.5858 9.11625 10.488 9.27005 10.3553 9.49062L10.3552 9.49086C10.2519 9.66037 10.1584 9.82002 10.0909 9.94005C10.0571 10.0001 10.03 10.0499 10.0114 10.086C10.0032 10.1018 9.99694 10.1145 9.99251 10.1241C9.99718 10.1286 10.0036 10.1342 10.0119 10.1405C10.0361 10.1591 10.0713 10.1809 10.1122 10.2014L10.1122 10.2014L10.1132 10.2019C10.3247 10.3136 10.5142 10.4759 10.595 10.629L10.5951 10.6293M14.7744 7.74243L10.5951 10.6293M17.6448 13.5091L17.6446 13.5094C17.5119 13.73 17.4141 13.8837 17.3436 13.9821C17.3082 14.0315 17.2808 14.0652 17.2602 14.0862C17.2499 14.0967 17.2425 14.1026 17.2378 14.1057C17.2367 14.1055 17.2354 14.1052 17.2337 14.1049C17.228 14.1037 17.2207 14.1017 17.2117 14.0989C17.1936 14.0933 17.1709 14.085 17.1449 14.0743C17.0929 14.0531 17.0299 14.0235 16.9687 13.991L16.9687 13.991C16.8047 13.9039 16.651 13.8625 16.494 13.872C16.3374 13.8814 16.1827 13.9413 16.016 14.0477L16.0155 14.048C15.8926 14.1287 15.6249 14.2801 15.4151 14.385L15.4145 14.3852L15.4145 14.3853C15.1694 14.5117 15.0161 14.6063 14.9217 14.738C14.8266 14.8707 14.7959 15.0347 14.7744 15.2846C14.7744 15.2847 14.7744 15.2847 14.7744 15.2848L14.7551 15.493H14H13.2452L13.2256 15.2576L13.2255 15.2569L13.2255 15.2569C13.2038 15.032 13.1657 14.8724 13.0702 14.7407C12.9753 14.6097 12.8282 14.5125 12.6045 14.4007C12.4056 14.2993 12.162 14.1638 12.0554 14.0914L12.0548 14.091L12.0548 14.091C11.8588 13.9623 11.6944 13.8879 11.5306 13.8721C11.3657 13.8562 11.2084 13.9004 11.0277 13.9947C10.9684 14.0253 10.9064 14.0539 10.8548 14.0747C10.8289 14.0852 10.8063 14.0934 10.7883 14.0989C10.7793 14.1017 10.7719 14.1037 10.7662 14.1049C10.7646 14.1052 10.7632 14.1055 10.7621 14.1057C10.7574 14.1026 10.7501 14.0967 10.7398 14.0862C10.7191 14.0652 10.6917 14.0315 10.6563 13.9821C10.5858 13.8837 10.488 13.73 10.3553 13.5094L10.3552 13.5091C10.2519 13.3396 10.1584 13.18 10.0909 13.0604C10.057 13.0005 10.0299 12.951 10.0112 12.9154C10.0038 12.9013 9.99793 12.8896 9.99356 12.8805C10.0016 12.8728 10.0134 12.8629 10.0286 12.8515C10.0639 12.8249 10.1136 12.7929 10.1687 12.7625L10.1688 12.7625C10.4205 12.6226 10.5904 12.4416 10.6383 12.2429C10.6445 12.2197 10.649 12.1799 10.6527 12.1325C10.6566 12.0826 10.6598 12.0194 10.6622 11.9475L17.6448 13.5091ZM17.6448 13.5091C17.748 13.3396 17.8415 13.18 17.9091 13.0604C17.9429 13.0005 17.9701 12.951 17.9887 12.9154C17.9961 12.9013 18.002 12.8896 18.0064 12.8805L17.6448 13.5091ZM10.5951 10.6293C10.6252 10.6872 10.6414 10.7607 10.6514 10.8817C10.6613 11.0029 10.6652 11.1776 10.6672 11.441L10.5951 10.6293ZM9.98365 12.8914C9.9833 12.8919 9.98343 12.8918 9.9838 12.8911L9.98365 12.8914Z" fill="#F8FCFF" stroke="#F8FCFF" stroke-width="0.1"/>
<path d="M13.541 9.30644L13.5411 9.30642C14.0458 9.20627 14.7027 9.32208 15.1697 9.59349L15.1701 9.59373C15.3007 9.6713 15.4596 9.80976 15.6022 9.96024C15.7447 10.1106 15.8751 10.2775 15.9465 10.4141C16.0528 10.6149 16.1213 10.7723 16.1628 10.9375C16.2042 11.1029 16.218 11.2735 16.218 11.5C16.218 12.1377 16.0138 12.6389 15.5744 13.0744C15.1389 13.5138 14.6377 13.718 14 13.718C13.3623 13.718 12.8611 13.5138 12.4256 13.0744C11.9862 12.6389 11.782 12.1377 11.782 11.5C11.782 10.8541 11.9864 10.3609 12.4334 9.91386C12.7094 9.6379 13.179 9.37884 13.541 9.30644ZM14.6113 12.8728L14.6114 12.8728C14.9648 12.7056 15.1829 12.4948 15.3535 12.1499C15.4222 12.0085 15.4555 11.9348 15.4731 11.8532C15.4908 11.771 15.493 11.679 15.493 11.5C15.493 11.321 15.4908 11.229 15.4731 11.1468C15.4555 11.0653 15.4223 10.9915 15.3536 10.8502C15.1827 10.5085 14.9643 10.2904 14.6197 10.1313C14.4304 10.0443 14.3155 10.0145 14.0836 10.0031C13.908 9.99536 13.7812 10.0013 13.6619 10.0283C13.5427 10.0552 13.428 10.1036 13.2776 10.1846L13.2776 10.1847L13.277 10.185C12.9949 10.3316 12.7795 10.565 12.6273 10.8885L12.6272 10.8887C12.5707 11.0075 12.5419 11.0768 12.5261 11.1571C12.5101 11.2385 12.507 11.3333 12.507 11.5039C12.507 11.6809 12.5092 11.772 12.5269 11.8537C12.5445 11.9347 12.5778 12.0085 12.6465 12.1499C12.8171 12.4948 13.0352 12.7056 13.3886 12.8728L13.3887 12.8728C13.5075 12.9293 13.5769 12.9581 13.6567 12.9739C13.7376 12.9899 13.8314 12.993 14 12.993C14.1686 12.993 14.2624 12.9899 14.3433 12.9739C14.4231 12.9581 14.4925 12.9293 14.6113 12.8728Z" fill="#F8FCFF" stroke="#F8FCFF" stroke-width="0.1"/>
<path d="M10.2489 17.1342C10.2818 17.0224 10.3857 16.8814 10.5002 16.7634C10.6147 16.6454 10.7517 16.5384 10.8594 16.5032L10.8594 16.5032L10.2968 17.1484M10.2489 17.1342C10.2489 17.1342 10.2489 17.1342 10.2489 17.1342L10.2968 17.1484M10.2489 17.1342C10.2489 17.1341 10.2489 17.1341 10.2489 17.1341L10.2968 17.1484M10.2489 17.1342C10.1922 17.3245 10.1832 17.4991 10.2265 17.6631C10.2698 17.827 10.3643 17.976 10.5076 18.1173M10.2968 17.1484C10.1875 17.5155 10.2656 17.8085 10.5429 18.0819M10.5076 18.1173C10.5075 18.1173 10.5075 18.1172 10.5074 18.1171L10.5429 18.0819M10.5076 18.1173C10.5077 18.1174 10.5078 18.1175 10.5078 18.1176L10.5429 18.0819M10.5076 18.1173L10.5429 18.0819M11.9004 18.0958C11.9004 18.0959 11.9004 18.0959 11.9003 18.0959L11.8632 18.0624L11.9005 18.0958C11.9005 18.0958 11.9004 18.0958 11.9004 18.0958ZM11.8674 16.7576C11.8675 16.7576 11.8675 16.7577 11.8676 16.7578L11.832 16.7929L11.8672 16.7573C11.8672 16.7574 11.8673 16.7575 11.8674 16.7576ZM11.3673 17.2583L11.3673 17.2583L11.3658 17.2568C11.3161 17.2037 11.247 17.1749 11.1875 17.1749C11.1279 17.1749 11.0588 17.2037 11.0091 17.2568L11.0092 17.2568L11.0068 17.259C10.9538 17.3088 10.925 17.3779 10.925 17.4374C10.925 17.497 10.9538 17.566 11.0068 17.6158L11.0069 17.6157L11.0091 17.6181C11.0588 17.6711 11.1279 17.6999 11.1875 17.6999C11.4159 17.6999 11.5307 17.4185 11.3673 17.2583Z" fill="#F8FCFF" stroke="#F8FCFF" stroke-width="0.1"/>
<path d="M15.8739 17.1342C15.9068 17.0224 16.0107 16.8814 16.1252 16.7634C16.2397 16.6454 16.3767 16.5384 16.4844 16.5032L16.4844 16.5032L15.9218 17.1484M15.8739 17.1342C15.8739 17.1342 15.8739 17.1342 15.8739 17.1342L15.9218 17.1484M15.8739 17.1342C15.8739 17.1341 15.8739 17.1341 15.8739 17.1341L15.9218 17.1484M15.8739 17.1342C15.8172 17.3245 15.8082 17.4991 15.8515 17.6631C15.8948 17.827 15.9893 17.976 16.1326 18.1173M15.9218 17.1484C15.8125 17.5155 15.8906 17.8085 16.1679 18.0819M16.1326 18.1173C16.1325 18.1173 16.1325 18.1172 16.1324 18.1171L16.1679 18.0819M16.1326 18.1173C16.1327 18.1174 16.1328 18.1175 16.1328 18.1176L16.1679 18.0819M16.1326 18.1173L16.1679 18.0819M17.5254 18.0958C17.5254 18.0959 17.5254 18.0959 17.5253 18.0959L17.4882 18.0624L17.5255 18.0958C17.5255 18.0958 17.5254 18.0958 17.5254 18.0958ZM17.4924 16.7576C17.4925 16.7576 17.4925 16.7577 17.4926 16.7578L17.457 16.7929L17.4922 16.7573C17.4922 16.7574 17.4923 16.7575 17.4924 16.7576ZM16.9923 17.2583L16.9923 17.2583L16.9908 17.2568C16.9411 17.2037 16.872 17.1749 16.8125 17.1749C16.7481 17.1749 16.6821 17.2059 16.6315 17.2565C16.5809 17.3071 16.55 17.373 16.55 17.4374C16.55 17.5018 16.5809 17.5678 16.6315 17.6184C16.6821 17.669 16.7481 17.6999 16.8125 17.6999C17.0409 17.6999 17.1557 17.4185 16.9923 17.2583Z" fill="#F8FCFF" stroke="#F8FCFF" stroke-width="0.1"/>
<path d="M12.75 23.425H12.7V23.375V21.2539V19.1538L12.4612 18.9187C12.4612 18.9186 12.4612 18.9186 12.4611 18.9185C12.39 18.8494 12.3256 18.781 12.2787 18.7272C12.2553 18.7003 12.2358 18.6765 12.2219 18.6577C12.215 18.6483 12.2088 18.6394 12.2042 18.6314C12.2019 18.6275 12.1994 18.6228 12.1973 18.6179C12.1958 18.6142 12.1922 18.6051 12.1922 18.5938C12.1922 18.5792 12.1977 18.5666 12.2006 18.5603C12.2044 18.5522 12.2093 18.5439 12.2146 18.5357C12.2252 18.5191 12.2399 18.4995 12.257 18.4783C12.2915 18.4357 12.3386 18.3836 12.3904 18.3318C12.442 18.2803 12.4939 18.2323 12.5364 18.1969C12.5575 18.1793 12.5771 18.1642 12.5935 18.1532C12.6017 18.1477 12.6101 18.1426 12.6181 18.1386C12.6243 18.1356 12.6372 18.1297 12.6523 18.1297C12.6651 18.1297 12.6754 18.1343 12.6793 18.1361C12.6848 18.1386 12.69 18.1416 12.6947 18.1446C12.7041 18.1506 12.7149 18.1586 12.7267 18.1679C12.7503 18.1865 12.7808 18.2129 12.8158 18.2447C12.886 18.3085 12.9766 18.3961 13.0708 18.4922C13.0708 18.4923 13.0708 18.4923 13.0709 18.4924L13.4106 18.8359L13.425 18.8506V18.8711V21.125V23.375V23.425H13.375H13.0625H12.75Z" fill="#F8FCFF" stroke="#F8FCFF" stroke-width="0.1"/>
<path d="M14.575 18.8711V18.8506L14.5894 18.8359L14.9291 18.4924C14.9292 18.4923 14.9292 18.4923 14.9292 18.4922C15.0233 18.3962 15.1128 18.3087 15.1819 18.245C15.2164 18.2132 15.2465 18.1868 15.2697 18.1681C15.2813 18.1588 15.292 18.1508 15.3013 18.1448C15.3059 18.1418 15.3112 18.1387 15.3166 18.1361C15.3206 18.1343 15.3309 18.1297 15.3438 18.1297C15.3584 18.1297 15.3712 18.135 15.3785 18.1383C15.3871 18.1423 15.396 18.1476 15.4046 18.1532C15.4219 18.1645 15.442 18.1799 15.4634 18.1975C15.5063 18.233 15.5574 18.2802 15.6065 18.3287C15.6555 18.3772 15.7032 18.4279 15.739 18.4705C15.7569 18.4916 15.7725 18.5116 15.7839 18.5289C15.7896 18.5374 15.7949 18.5463 15.799 18.5549C15.8024 18.5621 15.8078 18.575 15.8078 18.5898C15.8078 18.6001 15.805 18.6086 15.8033 18.6131C15.8013 18.6184 15.7989 18.6233 15.7965 18.6276C15.7918 18.6362 15.7855 18.6457 15.7786 18.6554C15.7645 18.675 15.7449 18.6993 15.7215 18.7265C15.6745 18.781 15.61 18.8494 15.5389 18.9185C15.5388 18.9186 15.5388 18.9186 15.5388 18.9187L15.3 19.1538V21.2539V23.375V23.425H15.25H14.9375H14.625H14.575V23.375V21.125V18.8711Z" fill="#F8FCFF" stroke="#F8FCFF" stroke-width="0.1"/>
<path d="M8.06139 19.3217C8.09428 19.21 8.19816 19.069 8.31271 18.951C8.42724 18.833 8.56417 18.7259 8.67194 18.6908L8.67194 18.6907L8.10933 19.3359M8.06139 19.3217C8.06138 19.3218 8.06137 19.3218 8.06136 19.3218L8.10933 19.3359M8.06139 19.3217C8.0614 19.3217 8.0614 19.3217 8.06141 19.3217L8.10933 19.3359M8.06139 19.3217C8.0047 19.5121 7.99566 19.6866 8.03902 19.8507C8.08234 20.0145 8.17682 20.1636 8.32011 20.3049M8.10933 19.3359C7.99996 19.7031 8.07808 19.9961 8.35543 20.2695M8.32011 20.3049C8.32004 20.3049 8.31997 20.3048 8.3199 20.3047L8.35543 20.2695M8.32011 20.3049C8.32018 20.305 8.32025 20.3051 8.32032 20.3051L8.35543 20.2695M8.32011 20.3049L8.35543 20.2695M9.67984 20.3049C9.67979 20.3049 9.67973 20.305 9.67967 20.3051L9.64449 20.2695L9.68002 20.3047C9.67996 20.3048 9.6799 20.3048 9.67984 20.3049ZM9.67988 18.9451C9.67995 18.9452 9.68002 18.9453 9.68009 18.9454L9.64449 18.9805L9.67967 18.9449C9.67974 18.945 9.67981 18.9451 9.67988 18.9451ZM9.1798 19.4459L9.17977 19.4459L9.17832 19.4444C9.12859 19.3913 9.05951 19.3625 8.99996 19.3625C8.94041 19.3625 8.87133 19.3913 8.82159 19.4444L8.82167 19.4444L8.81931 19.4466C8.76626 19.4964 8.73746 19.5655 8.73746 19.625C8.73746 19.6845 8.76626 19.7536 8.81931 19.8034L8.81938 19.8033L8.82159 19.8056C8.87133 19.8587 8.94041 19.8875 8.99996 19.8875C9.22844 19.8875 9.34324 19.606 9.1798 19.4459Z" fill="#F8FCFF" stroke="#F8FCFF" stroke-width="0.1"/>
<path d="M18.0614 19.3218C18.0943 19.2101 18.1982 19.0691 18.3127 18.9511C18.4272 18.8331 18.5642 18.726 18.6719 18.6908L18.6719 18.6908L18.1093 19.336M18.0614 19.3218C18.0614 19.3218 18.0614 19.3218 18.0614 19.3219L18.1093 19.336M18.0614 19.3218C18.0614 19.3218 18.0614 19.3217 18.0614 19.3217L18.1093 19.336M18.0614 19.3218C18.0047 19.5121 17.9957 19.6867 18.039 19.8507C18.0823 20.0146 18.1768 20.1636 18.3201 20.3049M18.1093 19.336C18 19.7032 18.0781 19.9961 18.3554 20.2696M18.3201 20.3049C18.32 20.3048 18.3199 20.3048 18.3198 20.3047L18.3554 20.2696M18.3201 20.3049C18.4614 20.4482 18.6104 20.5427 18.7743 20.586C18.9383 20.6293 19.1129 20.6203 19.3033 20.5636L19.289 20.5157M18.3201 20.3049C18.3202 20.305 18.3202 20.3051 18.3203 20.3052L18.3554 20.2696M18.3554 20.2696L19.289 20.5157M19.289 20.5157L19.303 20.5637C19.4225 20.5289 19.5645 20.4252 19.6823 20.3074C19.8 20.1896 19.9037 20.0477 19.9385 19.9282M19.289 20.5157C19.5039 20.4532 19.8281 20.1289 19.8906 19.9141M19.9385 19.9282C19.9385 19.9283 19.9385 19.9283 19.9385 19.9284L19.8906 19.9141M19.9385 19.9282C19.9386 19.9282 19.9386 19.9281 19.9386 19.9281L19.8906 19.9141M19.9385 19.9282L19.8906 19.9141M19.6798 18.9452C19.6799 18.9452 19.68 18.9453 19.6801 18.9454L19.6445 18.9805L19.6796 18.9449C19.6797 18.945 19.6798 18.9451 19.6798 18.9452ZM19.1798 19.4459L19.1798 19.4459L19.1783 19.4444C19.1286 19.3913 19.0595 19.3625 19 19.3625C18.9356 19.3625 18.8696 19.3935 18.819 19.4441C18.7684 19.4947 18.7375 19.5607 18.7375 19.625C18.7375 19.6894 18.7684 19.7554 18.819 19.806C18.8696 19.8566 18.9356 19.8875 19 19.8875C19.2284 19.8875 19.3432 19.6061 19.1798 19.4459Z" fill="#F8FCFF" stroke="#F8FCFF" stroke-width="0.1"/>
<path d="M10.5625 23.425H10.5125V23.375V22.3477V21.3413L10.2737 21.1062C10.2737 21.1061 10.2737 21.1061 10.2736 21.1061C10.2025 21.0369 10.1381 20.9685 10.0912 20.9147C10.0678 20.8878 10.0483 20.864 10.0344 20.8452C10.0275 20.8358 10.0213 20.8269 10.0167 20.8189C10.0144 20.815 10.0119 20.8103 10.0098 20.8054C10.0083 20.8017 10.0047 20.7926 10.0047 20.7812C10.0047 20.7667 10.0102 20.7541 10.0131 20.7478C10.0169 20.7397 10.0218 20.7314 10.0271 20.7232C10.0377 20.7066 10.0524 20.687 10.0695 20.6658C10.104 20.6232 10.1511 20.5711 10.2029 20.5193C10.2545 20.4678 10.3064 20.4198 10.3489 20.3844C10.37 20.3668 10.3896 20.3517 10.406 20.3407C10.4142 20.3352 10.4226 20.3301 10.4306 20.3261C10.4368 20.3231 10.4497 20.3172 10.4648 20.3172C10.4776 20.3172 10.4879 20.3218 10.4918 20.3236C10.4973 20.3261 10.5025 20.3291 10.5072 20.3321C10.5166 20.3381 10.5274 20.3461 10.5392 20.3554C10.5628 20.374 10.5933 20.4004 10.6283 20.4322C10.6985 20.496 10.7891 20.5836 10.8833 20.6798C10.8833 20.6798 10.8833 20.6798 10.8834 20.6799L11.2231 21.0234L11.2375 21.0381V21.0586V22.2188V23.375V23.425H11.1875H10.875H10.5625Z" fill="#F8FCFF" stroke="#F8FCFF" stroke-width="0.1"/>
<path d="M16.7625 21.0586V21.0381L16.7769 21.0234L17.1166 20.6799C17.1167 20.6798 17.1167 20.6798 17.1167 20.6798C17.2108 20.5837 17.3003 20.4962 17.3694 20.4325C17.4039 20.4007 17.434 20.3743 17.4572 20.3556C17.4688 20.3463 17.4795 20.3383 17.4888 20.3323C17.4934 20.3293 17.4987 20.3262 17.5041 20.3236C17.5081 20.3218 17.5184 20.3172 17.5312 20.3172C17.5459 20.3172 17.5587 20.3225 17.566 20.3258C17.5746 20.3298 17.5835 20.3351 17.5921 20.3407C17.6094 20.352 17.6295 20.3674 17.6509 20.385C17.6938 20.4205 17.7449 20.4677 17.794 20.5162C17.843 20.5647 17.8907 20.6154 17.9265 20.658C17.9444 20.6791 17.96 20.6991 17.9714 20.7164C17.9771 20.7249 17.9824 20.7338 17.9865 20.7424C17.9899 20.7496 17.9953 20.7625 17.9953 20.7773C17.9953 20.7876 17.9925 20.7961 17.9908 20.8006C17.9888 20.8059 17.9864 20.8108 17.984 20.8151C17.9793 20.8237 17.973 20.8332 17.9661 20.8429C17.952 20.8625 17.9324 20.8868 17.909 20.914C17.862 20.9685 17.7975 21.0369 17.7264 21.1061C17.7263 21.1061 17.7263 21.1061 17.7263 21.1062L17.4875 21.3413V22.3477V23.375V23.425H17.4375H17.125H16.8125H16.7625V23.375V22.2188V21.0586Z" fill="#F8FCFF" stroke="#F8FCFF" stroke-width="0.1"/>
</g>
<defs>
<clipPath id="clip0_216_1558">
<rect width="20" height="20" fill="white" transform="translate(4 4)"/>
</clipPath>
</defs>
</svg>
